<svg width="28" height="27" viewBox="0 0 28 27" fill="none" xmlns="http://www.w3.org/2000/svg">
<path d="M14.2195 9.97294C12.3081 9.97294 10.7482 11.5328 10.7482 13.4443C10.7482 15.3558 12.3081 16.9156 14.2195 16.9156C16.131 16.9156 17.6909 15.3558 17.6909 13.4443C17.6909 11.5328 16.131 9.97294 14.2195 9.97294ZM24.631 13.4443C24.631 12.0068 24.644 10.5823 24.5633 9.14742C24.4826 7.48075 24.1024 6.00159 22.8836 4.78284C21.6622 3.56148 20.1857 3.18388 18.519 3.10315C17.0815 3.02242 15.657 3.03544 14.2221 3.03544C12.7846 3.03544 11.3602 3.02242 9.92526 3.10315C8.25859 3.18388 6.77942 3.56409 5.56067 4.78284C4.33932 6.00419 3.96171 7.48075 3.88098 9.14742C3.80025 10.5849 3.81327 12.0094 3.81327 13.4443C3.81327 14.8792 3.80025 16.3063 3.88098 17.7412C3.96171 19.4078 4.34192 20.887 5.56067 22.1057C6.78203 23.3271 8.25859 23.7047 9.92526 23.7854C11.3628 23.8662 12.7872 23.8531 14.2221 23.8531C15.6596 23.8531 17.0841 23.8662 18.519 23.7854C20.1857 23.7047 21.6649 23.3245 22.8836 22.1057C24.105 20.8844 24.4826 19.4078 24.5633 17.7412C24.6466 16.3063 24.631 14.8818 24.631 13.4443V13.4443ZM14.2195 18.7854C11.2638 18.7854 8.87838 16.4 8.87838 13.4443C8.87838 10.4886 11.2638 8.10315 14.2195 8.10315C17.1753 8.10315 19.5607 10.4886 19.5607 13.4443C19.5607 16.4 17.1753 18.7854 14.2195 18.7854ZM19.7794 9.13179C19.0893 9.13179 18.532 8.5745 18.532 7.8844C18.532 7.1943 19.0893 6.637 19.7794 6.637C20.4695 6.637 21.0268 7.1943 21.0268 7.8844C21.027 8.04827 20.9949 8.21057 20.9323 8.362C20.8697 8.51343 20.7778 8.65103 20.6619 8.7669C20.5461 8.88277 20.4085 8.97465 20.257 9.03726C20.1056 9.09988 19.9433 9.132 19.7794 9.13179V9.13179Z" fill="#FF8D7C"/>
</svg>
