<svg width="22" height="22" viewBox="0 0 22 22" fill="none" xmlns="http://www.w3.org/2000/svg">
<g clip-path="url(#clip0_601_504)">
<path d="M21.888 2.63784C21.2939 3.72565 20.5651 4.65296 19.7015 5.41977C19.71 5.62542 19.7143 5.85786 19.7143 6.11709C19.7143 7.55742 19.5437 8.99949 19.2026 10.4433C18.8614 11.8871 18.3403 13.2691 17.6392 14.5893C16.9381 15.9094 16.103 17.079 15.1338 18.0979C14.1647 19.1169 12.9997 19.9293 11.6389 20.5353C10.2781 21.1412 8.81971 21.4442 7.26369 21.4442C4.83527 21.4442 2.59894 20.6371 0.554688 19.023C0.917518 19.0727 1.2655 19.0976 1.59864 19.0976C3.62739 19.0976 5.43939 18.3283 7.03463 16.7898C6.08872 16.7684 5.24158 16.41 4.49322 15.7144C3.74485 15.0188 3.22985 14.13 2.9482 13.048C3.22659 13.1133 3.50135 13.1459 3.77249 13.1459C4.16277 13.1459 4.5468 13.0832 4.92458 12.9579C3.91511 12.709 3.07767 12.0901 2.41226 11.1011C1.74687 10.1121 1.41417 8.97057 1.41417 7.67658V7.60989C2.03379 8.03223 2.69471 8.25689 3.39693 8.28385C2.79893 7.79307 2.3248 7.15308 1.97455 6.36387C1.62428 5.57467 1.44914 4.72061 1.44914 3.8017C1.44914 2.83255 1.64641 1.9301 2.04096 1.09433C3.13874 2.75274 4.46893 4.07819 6.03152 5.07069C7.59415 6.0632 9.27054 6.61441 11.0607 6.72432C10.9844 6.3326 10.9461 5.92382 10.946 5.49798C10.946 4.0111 11.3734 2.74152 12.2282 1.68925C13.0831 0.636977 14.1144 0.11084 15.3222 0.11084C16.5868 0.11084 17.6519 0.677674 18.5176 1.81134C19.5068 1.57015 20.4329 1.13389 21.2961 0.502563C20.9636 1.79095 20.3228 2.78486 19.3737 3.48428C20.246 3.35668 21.0841 3.07453 21.888 2.63784H21.888Z" fill="#FF8D7C"/>
</g>
<defs>
<clipPath id="clip0_601_504">
<rect width="21.3333" height="21.3333" fill="white" transform="translate(0.554688 0.11084)"/>
</clipPath>
</defs>
</svg>
