<svg width="201" height="209" viewBox="0 0 201 209" fill="none" xmlns="http://www.w3.org/2000/svg">
<g clip-path="url(#clip0_545_4497)">
<path d="M126.396 204.725L3.64062 131.214L74.5206 3.88037L197.276 77.4004L126.396 204.725ZM4.36951 131.009L126.21 203.978L196.556 77.5959L74.7073 4.62704L4.36951 131.009Z" fill="url(#paint0_linear_545_4497)"/>
<path d="M121.286 205.996L121.064 205.844L2.40625 125.916L2.54847 125.684L79.6151 2.60889L79.8374 2.76L198.495 82.6889L198.353 82.92L121.286 205.996ZM3.14403 125.756L121.135 205.24L197.757 82.8489L79.7663 3.36444L3.14403 125.756Z" fill="url(#paint1_linear_545_4497)"/>
<path d="M116.129 206.992L115.915 206.832L1.45312 120.565L84.7687 1.61377L84.982 1.77377L199.444 88.0404L116.129 206.992ZM2.1909 120.449L116.004 206.227L198.706 88.156L84.8842 2.3871L2.1909 120.449Z" fill="url(#paint2_linear_545_4497)"/>
<path d="M110.926 207.702L0.765625 115.169L0.934514 114.955L89.9656 0.901855L200.126 93.4352L199.957 93.6485L110.926 207.702ZM1.51229 115.089L110.846 206.929L199.379 93.5152L90.0456 1.67519L1.51229 115.089Z" fill="url(#paint3_linear_545_4497)"/>
<path d="M105.702 208.129L0.359375 109.747L95.2127 0.476074L200.555 98.8583L105.702 208.129ZM1.11493 109.703L105.666 207.347L199.799 98.8938L95.2483 1.2583L1.11493 109.703Z" fill="url(#paint4_linear_545_4497)"/>
<path d="M100.45 208.271L0.21875 104.307L100.45 0.333496L200.681 104.307L100.45 208.271ZM0.965417 104.307L100.45 207.498L199.934 104.307L100.45 1.11572L0.965417 104.307Z" fill="url(#paint5_linear_545_4497)"/>
<path d="M95.2127 208.129L0.359375 98.8583L105.702 0.476074L200.546 109.747L95.2127 208.129ZM1.11493 98.9027L95.2483 207.356L199.799 109.712L105.666 1.2583L1.11493 98.9027Z" fill="url(#paint6_linear_545_4497)"/>
<path d="M89.9656 207.702L89.7967 207.489L0.765625 93.4352L110.926 0.901855L111.095 1.11519L200.126 115.169L89.9656 207.702ZM1.51229 93.5152L90.0456 206.929L199.379 115.089L110.846 1.67519L1.51229 93.5152Z" fill="url(#paint7_linear_545_4497)"/>
<path d="M84.7687 206.992L84.6087 206.769L1.45312 88.0404L1.66646 87.8804L116.129 1.61377L116.289 1.83599L199.453 120.565L199.24 120.725L84.7687 206.992ZM2.1909 88.156L84.8842 206.218L198.698 120.44L116.013 2.3871L2.1909 88.156Z" fill="url(#paint8_linear_545_4497)"/>
<path d="M79.6151 205.996L2.40625 82.6889L121.286 2.60889L198.486 125.924L79.6151 205.996ZM3.14403 82.8489L79.7663 205.24L197.757 125.756L121.135 3.36444L3.14403 82.8489Z" fill="url(#paint9_linear_545_4497)"/>
<path d="M74.5206 204.725L3.64062 77.3916L126.396 3.87158L197.267 131.205L74.5206 204.725ZM4.36951 77.596L74.7073 203.978L196.547 131.009L126.21 4.62714L4.36951 77.596Z" fill="url(#paint10_linear_545_4497)"/>
<path d="M69.4962 203.187L69.3717 202.938L5.14062 72.174L5.38062 72.0496L131.434 5.41846L131.558 5.66735L195.79 136.432L195.549 136.556L69.4962 203.187ZM5.85174 72.414L69.7184 202.441L195.07 136.192L131.203 6.16512L5.85174 72.414Z" fill="url(#paint11_linear_545_4497)"/>
<path d="M64.544 201.364L64.4373 201.115L6.89062 67.0442L136.384 7.23975L136.491 7.48864L194.037 141.56L64.544 201.364ZM7.59285 67.3198L64.8106 200.635L193.335 141.275L136.117 7.96864L7.59285 67.3198Z" fill="url(#paint12_linear_545_4497)"/>
<path d="M59.6906 199.285L8.89062 62.0141L141.228 9.3208L192.028 146.592L59.6906 199.285ZM9.57507 62.3341L59.9928 198.574L191.335 146.272L140.917 10.0319L9.57507 62.3341Z" fill="url(#paint13_linear_545_4497)"/>
<path d="M54.9451 196.939L54.8651 196.681L11.1406 57.0987L145.95 11.6587L146.03 11.9165L189.754 151.49L54.9451 196.939ZM11.8073 57.4542L55.2828 196.245L189.087 151.152L145.612 12.3609L11.8073 57.4542Z" fill="url(#paint14_linear_545_4497)"/>
<path d="M50.3407 194.343L13.6562 52.316L150.572 14.2627L187.256 156.289L50.3407 194.343ZM14.3051 52.7071L50.714 193.667L186.607 155.898L150.198 14.9383L14.3051 52.7071Z" fill="url(#paint15_linear_545_4497)"/>
<path d="M45.8662 191.498L16.3906 47.6758L155.04 17.1069L184.515 160.929L45.8662 191.498ZM17.0217 48.1025L46.2751 190.849L183.884 160.511L154.631 17.7558L17.0217 48.1025Z" fill="url(#paint16_linear_545_4497)"/>
<path d="M41.5372 188.413L19.3594 43.1866L159.359 20.1821L181.537 165.409L41.5372 188.413ZM19.9727 43.6488L41.9816 187.782L180.933 164.955L158.924 20.8221L19.9727 43.6488Z" fill="url(#paint17_linear_545_4497)"/>
<path d="M37.3803 185.098L22.5625 38.8762L163.531 23.5073L178.349 169.738L37.3803 185.098ZM23.1492 39.3651L37.8514 184.494L177.762 169.241L163.06 24.1118L23.1492 39.3651Z" fill="url(#paint18_linear_545_4497)"/>
<path d="M33.391 181.569L33.3732 181.294L25.9688 34.7339L167.524 27.0361L167.542 27.3117L174.947 173.872L33.391 181.569ZM26.5288 35.2584L33.8888 180.992L174.378 173.356L167.018 27.6228L26.5288 35.2584Z" fill="url(#paint19_linear_545_4497)"/>
<path d="M171.32 177.818H29.5781V30.7866H171.329V177.818H171.32ZM30.1026 177.267H170.796V31.3377H30.1026V177.267Z" fill="url(#paint20_linear_545_4497)"/>
</g>
<defs>
<linearGradient id="paint0_linear_545_4497" x1="3.64267" y1="104.303" x2="197.274" y2="104.303" gradientUnits="userSpaceOnUse">
<stop stop-color="#83A4D4"/>
<stop offset="0.9543" stop-color="#B4F7FD"/>
<stop offset="0.9994" stop-color="#B6FBFF"/>
</linearGradient>
<linearGradient id="paint1_linear_545_4497" x1="2.40989" y1="104.302" x2="198.491" y2="104.302" gradientUnits="userSpaceOnUse">
<stop stop-color="#83A4D4"/>
<stop offset="0.9543" stop-color="#B4F7FD"/>
<stop offset="0.9994" stop-color="#B6FBFF"/>
</linearGradient>
<linearGradient id="paint2_linear_545_4497" x1="1.4517" y1="104.303" x2="199.445" y2="104.303" gradientUnits="userSpaceOnUse">
<stop stop-color="#83A4D4"/>
<stop offset="0.9543" stop-color="#B4F7FD"/>
<stop offset="0.9994" stop-color="#B6FBFF"/>
</linearGradient>
<linearGradient id="paint3_linear_545_4497" x1="0.763669" y1="104.302" x2="200.127" y2="104.302" gradientUnits="userSpaceOnUse">
<stop stop-color="#83A4D4"/>
<stop offset="0.9543" stop-color="#B4F7FD"/>
<stop offset="0.9994" stop-color="#B6FBFF"/>
</linearGradient>
<linearGradient id="paint4_linear_545_4497" x1="0.363464" y1="104.303" x2="200.551" y2="104.303" gradientUnits="userSpaceOnUse">
<stop stop-color="#83A4D4"/>
<stop offset="0.9543" stop-color="#B4F7FD"/>
<stop offset="0.9994" stop-color="#B6FBFF"/>
</linearGradient>
<linearGradient id="paint5_linear_545_4497" x1="0.21875" y1="104.302" x2="200.681" y2="104.302" gradientUnits="userSpaceOnUse">
<stop stop-color="#83A4D4"/>
<stop offset="0.9543" stop-color="#B4F7FD"/>
<stop offset="0.9994" stop-color="#B6FBFF"/>
</linearGradient>
<linearGradient id="paint6_linear_545_4497" x1="0.363464" y1="104.303" x2="200.551" y2="104.303" gradientUnits="userSpaceOnUse">
<stop stop-color="#83A4D4"/>
<stop offset="0.9543" stop-color="#B4F7FD"/>
<stop offset="0.9994" stop-color="#B6FBFF"/>
</linearGradient>
<linearGradient id="paint7_linear_545_4497" x1="0.763669" y1="104.302" x2="200.127" y2="104.302" gradientUnits="userSpaceOnUse">
<stop stop-color="#83A4D4"/>
<stop offset="0.9543" stop-color="#B4F7FD"/>
<stop offset="0.9994" stop-color="#B6FBFF"/>
</linearGradient>
<linearGradient id="paint8_linear_545_4497" x1="1.4517" y1="104.303" x2="199.445" y2="104.303" gradientUnits="userSpaceOnUse">
<stop stop-color="#83A4D4"/>
<stop offset="0.9543" stop-color="#B4F7FD"/>
<stop offset="0.9994" stop-color="#B6FBFF"/>
</linearGradient>
<linearGradient id="paint9_linear_545_4497" x1="2.40989" y1="104.302" x2="198.491" y2="104.302" gradientUnits="userSpaceOnUse">
<stop stop-color="#83A4D4"/>
<stop offset="0.9543" stop-color="#B4F7FD"/>
<stop offset="0.9994" stop-color="#B6FBFF"/>
</linearGradient>
<linearGradient id="paint10_linear_545_4497" x1="3.64267" y1="104.303" x2="197.274" y2="104.303" gradientUnits="userSpaceOnUse">
<stop stop-color="#83A4D4"/>
<stop offset="0.9543" stop-color="#B4F7FD"/>
<stop offset="0.9994" stop-color="#B6FBFF"/>
</linearGradient>
<linearGradient id="paint11_linear_545_4497" x1="5.13965" y1="104.303" x2="195.79" y2="104.303" gradientUnits="userSpaceOnUse">
<stop stop-color="#83A4D4"/>
<stop offset="0.9543" stop-color="#B4F7FD"/>
<stop offset="0.9994" stop-color="#B6FBFF"/>
</linearGradient>
<linearGradient id="paint12_linear_545_4497" x1="6.89018" y1="104.302" x2="194.038" y2="104.302" gradientUnits="userSpaceOnUse">
<stop stop-color="#83A4D4"/>
<stop offset="0.9543" stop-color="#B4F7FD"/>
<stop offset="0.9994" stop-color="#B6FBFF"/>
</linearGradient>
<linearGradient id="paint13_linear_545_4497" x1="8.88929" y1="104.303" x2="192.021" y2="104.303" gradientUnits="userSpaceOnUse">
<stop stop-color="#83A4D4"/>
<stop offset="0.9543" stop-color="#B4F7FD"/>
<stop offset="0.9994" stop-color="#B6FBFF"/>
</linearGradient>
<linearGradient id="paint14_linear_545_4497" x1="11.1408" y1="104.303" x2="189.754" y2="104.303" gradientUnits="userSpaceOnUse">
<stop stop-color="#83A4D4"/>
<stop offset="0.9543" stop-color="#B4F7FD"/>
<stop offset="0.9994" stop-color="#B6FBFF"/>
</linearGradient>
<linearGradient id="paint15_linear_545_4497" x1="13.6536" y1="104.303" x2="187.259" y2="104.303" gradientUnits="userSpaceOnUse">
<stop stop-color="#83A4D4"/>
<stop offset="0.9543" stop-color="#B4F7FD"/>
<stop offset="0.9994" stop-color="#B6FBFF"/>
</linearGradient>
<linearGradient id="paint16_linear_545_4497" x1="16.392" y1="104.303" x2="184.514" y2="104.303" gradientUnits="userSpaceOnUse">
<stop stop-color="#83A4D4"/>
<stop offset="0.9543" stop-color="#B4F7FD"/>
<stop offset="0.9994" stop-color="#B6FBFF"/>
</linearGradient>
<linearGradient id="paint17_linear_545_4497" x1="19.3638" y1="104.302" x2="181.541" y2="104.302" gradientUnits="userSpaceOnUse">
<stop stop-color="#83A4D4"/>
<stop offset="0.9543" stop-color="#B4F7FD"/>
<stop offset="0.9994" stop-color="#B6FBFF"/>
</linearGradient>
<linearGradient id="paint18_linear_545_4497" x1="22.5617" y1="104.303" x2="178.35" y2="104.303" gradientUnits="userSpaceOnUse">
<stop stop-color="#83A4D4"/>
<stop offset="0.9543" stop-color="#B4F7FD"/>
<stop offset="0.9994" stop-color="#B6FBFF"/>
</linearGradient>
<linearGradient id="paint19_linear_545_4497" x1="25.9714" y1="104.303" x2="174.944" y2="104.303" gradientUnits="userSpaceOnUse">
<stop stop-color="#83A4D4"/>
<stop offset="0.9543" stop-color="#B4F7FD"/>
<stop offset="0.9994" stop-color="#B6FBFF"/>
</linearGradient>
<linearGradient id="paint20_linear_545_4497" x1="29.5751" y1="104.302" x2="171.323" y2="104.302" gradientUnits="userSpaceOnUse">
<stop stop-color="#83A4D4"/>
<stop offset="0.9543" stop-color="#B4F7FD"/>
<stop offset="0.9994" stop-color="#B6FBFF"/>
</linearGradient>
<clipPath id="clip0_545_4497">
<rect width="200.462" height="207.938" fill="white" transform="translate(0.226562 0.333984)"/>
</clipPath>
</defs>
</svg>
