<svg width="38" height="37" viewBox="0 0 38 37" fill="none" xmlns="http://www.w3.org/2000/svg">
<path d="M31.9728 4.20703H5.78695C5.15721 4.20703 4.64844 4.71581 4.64844 5.34555V31.5314C4.64844 32.1612 5.15721 32.6699 5.78695 32.6699H31.9728C32.6026 32.6699 33.1114 32.1612 33.1114 31.5314V5.34555C33.1114 4.71581 32.6026 4.20703 31.9728 4.20703ZM28.6854 12.5146H26.4119C24.6294 12.5146 24.2843 13.3614 24.2843 14.6067V17.3498H28.5395L27.9845 21.6441H24.2843V32.6699H19.8476V21.6477H16.1368V17.3498H19.8476V14.1833C19.8476 10.508 22.0926 8.50493 25.373 8.50493C26.9456 8.50493 28.294 8.62234 28.6889 8.67571V12.5146H28.6854Z" fill="white"/>
</svg>
