<svg width="441" height="403" viewBox="0 0 441 403" fill="none" xmlns="http://www.w3.org/2000/svg">
<g clip-path="url(#clip0_596_4615)">
<path d="M170.5 254.83C167.837 254.83 165.541 254.136 163.863 252.729C160.795 250.165 160.294 245.557 162.493 240.139L186.339 181.257C189.599 173.198 198.223 164.927 207.291 161.167C212.442 159.027 217.13 158.641 220.506 160.068L262.449 177.767C265.323 178.982 266.963 181.315 267.233 184.515C267.832 192.035 260.655 202.465 250.545 208.809L184.757 249.991C179.664 253.192 174.628 254.83 170.5 254.83ZM215.934 160.743C213.561 160.743 210.802 161.36 207.87 162.575C199.149 166.199 190.873 174.104 187.747 181.816L163.901 240.698C161.934 245.557 162.262 249.413 164.827 251.553C168.59 254.715 176.094 253.597 183.927 248.68L249.716 207.497C260.732 200.595 266.172 190.569 265.69 184.612C265.478 181.97 264.185 180.139 261.831 179.136L219.889 161.437C218.77 160.994 217.42 160.743 215.934 160.743Z" fill="url(#paint0_linear_596_4615)"/>
<path d="M169.025 262.041C166.517 262.041 164.318 261.424 162.601 260.171C159.186 257.665 158.318 253.114 160.189 247.33L180.871 183.397C185.656 168.609 205.315 154.65 216.524 158.082L264.66 172.793C267.978 173.815 270.023 176.148 270.582 179.541C271.856 187.35 264.93 198.879 254.454 206.379L185.636 255.602C179.733 259.805 173.81 262.041 169.025 262.041ZM212.781 159.066C202.132 159.066 186.37 171.366 182.318 183.86L161.636 247.793C159.977 252.902 160.633 256.855 163.488 258.937C167.887 262.138 176.414 260.306 184.73 254.348L253.547 205.126C264.987 196.951 270.081 185.961 269.058 179.772C268.595 176.938 266.955 175.068 264.197 174.239L216.061 159.528C215.058 159.22 213.958 159.066 212.781 159.066Z" fill="url(#paint1_linear_596_4615)"/>
<path d="M168.009 269.677C165.675 269.677 163.61 269.156 161.912 268.096C158.15 265.724 156.896 261.097 158.363 255.062L175.051 186.135C178.909 170.229 199.244 153.802 211.939 156.367L266.653 167.376C270.473 168.147 272.962 170.46 273.868 174.104C275.894 182.299 269.45 194.657 258.569 203.487L187.167 261.425C180.549 266.746 173.546 269.677 168.009 269.677ZM209.18 157.62C197.276 157.62 179.913 172.543 176.517 186.502L159.829 255.428C158.536 260.769 159.559 264.818 162.723 266.804C167.025 269.522 175.938 268.52 186.202 260.191L257.605 202.273C269.315 192.768 273.965 180.833 272.383 174.451C271.63 171.444 269.547 169.496 266.363 168.86L211.649 157.851C210.858 157.678 210.029 157.62 209.18 157.62Z" fill="url(#paint2_linear_596_4615)"/>
<path d="M167.676 277.832C165.515 277.832 163.547 277.388 161.868 276.501C157.759 274.284 156.042 269.618 157.045 263.372L168.852 189.548C171.573 172.523 192.447 153.474 206.705 154.978L268.326 161.514C272.705 161.977 275.696 164.271 276.988 168.166C279.766 176.572 273.805 189.991 262.808 200.055L189.38 267.343C182.029 274.072 174.004 277.832 167.676 277.832ZM205.084 156.405C191.772 156.405 172.827 174.316 170.357 189.779L158.55 263.603C157.663 269.175 159.09 273.282 162.602 275.152C167.618 277.851 177.534 276.135 188.357 266.206L261.786 198.918C273.631 188.063 277.721 175.203 275.541 168.609C274.461 165.332 271.914 163.404 268.171 162.999L206.55 156.463C206.068 156.424 205.566 156.405 205.084 156.405Z" fill="url(#paint3_linear_596_4615)"/>
<path d="M168.061 286.393C166.094 286.393 164.261 286.046 162.64 285.313C158.145 283.289 155.926 278.623 156.409 272.164L162.312 193.674C163.682 175.589 184.846 153.668 200.782 153.995L269.619 155.191C274.635 155.287 278.204 157.524 279.921 161.688C283.49 170.287 278.127 184.747 267.168 196.065L192.409 273.359C184.402 281.65 175.296 286.393 168.061 286.393ZM200.493 155.518C185.579 155.518 165.11 176.823 163.836 193.79L157.933 272.28C157.489 278.064 159.399 282.19 163.258 283.925C170.164 287.029 181.701 282.247 191.329 272.299L266.088 195.004C278.03 182.646 281.387 169.188 278.532 162.267C277.066 158.7 273.979 156.791 269.619 156.714L200.782 155.518C200.666 155.518 200.589 155.518 200.493 155.518Z" fill="url(#paint4_linear_596_4615)"/>
<path d="M169.297 295.357C167.541 295.357 165.882 295.088 164.358 294.528C159.419 292.735 156.66 288.108 156.563 281.456L155.502 198.609C155.251 179.541 176.57 154.689 194.146 153.513L270.468 148.461L270.526 149.213L270.468 148.461C276.101 148.095 280.423 150.312 282.622 154.708C287.079 163.596 282.564 178.712 271.625 191.495L196.364 279.393C187.779 289.458 177.515 295.357 169.297 295.357ZM271.702 149.946C271.336 149.946 270.95 149.965 270.564 149.985L194.242 155.036C177.65 156.135 156.776 180.563 157.007 198.59L158.068 281.437C158.145 287.491 160.499 291.521 164.859 293.102C172.846 295.994 185.329 289.959 195.226 278.41L270.487 190.512C282.236 176.784 284.822 162.459 281.272 155.402C279.477 151.816 276.178 149.946 271.702 149.946Z" fill="url(#paint5_linear_596_4615)"/>
<path d="M171.298 304.612C169.851 304.612 168.462 304.439 167.15 304.072C161.729 302.569 158.353 297.999 157.62 291.193L148.417 204.413C146.295 184.458 167.44 156.444 186.771 153.61L270.753 141.309C277.138 140.364 282.212 142.466 285.01 147.189C290.354 156.193 286.688 172.254 276.116 186.27L201.337 285.351C192.366 297.247 180.636 304.612 171.298 304.612ZM270.868 142.08L270.984 142.832L186.983 155.133C168.694 157.813 147.916 185.364 149.922 204.259L159.125 291.039C159.781 297.267 162.694 301.258 167.536 302.607C176.72 305.152 190.109 297.691 200.102 284.464L274.881 185.383C285.106 171.849 288.714 156.463 283.698 147.999C281.19 143.777 276.791 141.984 270.965 142.851L270.868 142.08Z" fill="url(#paint6_linear_596_4615)"/>
<path d="M174.488 314.156C173.369 314.156 172.289 314.059 171.228 313.847C165.266 312.69 161.176 308.237 159.748 301.315L141.15 211.161C136.867 190.434 157.53 159.143 178.617 154.419L270.392 133.828C277.608 132.208 283.511 134.117 287.023 139.188C293.273 148.249 290.63 165.216 280.579 180.447L207.421 291.193C198.16 305.19 185.099 314.156 174.488 314.156ZM270.566 134.56L270.74 135.312L178.964 155.904C158.957 160.396 138.603 191.206 142.655 210.852L161.253 301.007C162.565 307.388 166.115 311.321 171.536 312.363C182.031 314.387 196.27 305.325 206.147 290.364L279.306 179.618C289.029 164.888 291.691 148.635 285.769 140.055C282.585 135.447 277.376 133.808 270.72 135.312L270.566 134.56Z" fill="url(#paint7_linear_596_4615)"/>
<path d="M178.828 323.873C178.133 323.873 177.458 323.835 176.764 323.758C170.165 323.044 165.304 318.783 163.085 311.707L133.76 218.873C130.77 209.407 132.872 196.739 139.548 184.13C146.937 170.133 158.493 159.355 169.702 155.981L269.292 125.962L269.504 126.694L269.292 125.962C277.395 123.513 284.263 125.171 288.584 130.608C295.935 139.843 294.469 157.234 284.957 173.873L214.693 296.727C205.355 313.038 190.905 323.873 178.828 323.873ZM276.198 126.386C274.173 126.386 271.993 126.733 269.716 127.408L170.146 157.446C159.323 160.705 148.114 171.212 140.898 184.844C134.512 196.913 132.39 209.484 135.226 218.43L164.551 311.264C166.616 317.8 170.899 321.598 176.937 322.254C188.821 323.526 203.793 312.729 213.362 295.975L283.626 173.121C292.694 157.254 294.237 140.171 287.388 131.553C284.668 128.14 280.809 126.386 276.198 126.386Z" fill="url(#paint8_linear_596_4615)"/>
<path d="M184.423 333.667C184.268 333.667 184.133 333.667 183.979 333.667C176.667 333.513 170.918 329.502 167.792 322.33L126.332 227.664C122.261 218.39 123.168 205.415 128.782 192.054C135.515 176.051 147.477 163.172 159.979 158.429L267.285 117.825C276.333 114.393 284.243 115.704 289.549 121.526C297.941 130.723 297.787 148.847 289.124 166.604L223.259 301.874C214.133 320.672 198.217 333.667 184.423 333.667ZM267.555 118.557L267.825 119.271L160.519 159.856C148.384 164.444 136.769 177.015 130.191 192.651C124.731 205.608 123.843 218.159 127.74 227.047L169.201 321.713C172.133 328.403 177.265 332.009 184.037 332.144C197.368 332.394 212.937 319.689 221.928 301.218L287.793 165.948C296.166 148.731 296.436 131.302 288.449 122.568C283.587 117.246 276.275 116.07 267.844 119.271L267.555 118.557Z" fill="url(#paint9_linear_596_4615)"/>
<path d="M191.486 343.424C184.078 343.424 177.924 339.76 174.027 333.012L118.965 237.556C113.737 228.494 113.332 215.249 117.827 201.213C123.576 183.263 135.692 168.205 149.467 161.92L264.317 109.497L264.625 110.191L264.317 109.497C274.368 104.908 283.455 105.776 289.899 111.945C299.564 121.18 300.818 139.497 293.101 158.603L233.313 306.483C224.959 327.132 208.425 342.305 193.107 343.366C192.548 343.404 192.007 343.424 191.486 343.424ZM276.375 108.128C272.825 108.128 268.966 109.034 264.934 110.885L150.084 163.289C136.695 169.4 124.888 184.092 119.274 201.656C114.914 215.287 115.28 228.109 120.277 236.785L175.338 332.241C179.274 339.047 185.371 342.363 192.991 341.843C207.75 340.821 223.744 326.033 231.885 305.904L291.674 158.025C299.044 139.786 297.905 121.72 288.838 113.044C285.404 109.786 281.159 108.128 276.375 108.128Z" fill="url(#paint10_linear_596_4615)"/>
<path d="M200.084 353.024C192.791 353.024 186.463 349.785 181.93 343.654L111.743 248.602C105.241 239.811 103.427 226.295 106.746 211.546C111.125 192.092 123.453 174.412 138.135 166.527L260.181 101.032C271.081 95.1897 281.731 95.4982 289.41 101.899C300.291 110.961 303.146 129.798 296.664 149.868L244.805 310.415C237.647 332.587 220.997 349.959 204.309 352.677C202.881 352.909 201.473 353.024 200.084 353.024ZM260.548 101.687L260.914 102.362L138.868 167.857C124.553 175.55 112.514 192.825 108.231 211.854C105.009 226.18 106.726 239.232 112.977 247.677L183.164 342.729C188.277 349.631 195.492 352.542 204.078 351.154C220.226 348.513 236.374 331.565 243.358 309.914L295.217 149.367C301.506 129.894 298.844 111.694 288.445 103.037C281.172 96.9635 271.39 96.7129 260.914 102.343L260.548 101.687Z" fill="url(#paint11_linear_596_4615)"/>
<path d="M210.353 362.299C203.234 362.299 196.81 359.484 191.755 354.066L104.841 260.827C96.9313 252.324 93.5743 238.558 95.6386 223.037C98.4554 201.983 110.398 182.106 126.083 172.369L254.823 92.491L255.228 93.1465L254.823 92.491C266.727 85.1067 278.843 84.6825 288.065 91.3535C300.258 100.165 304.849 119.387 299.795 140.345L257.949 313.462C252.277 336.945 235.82 356.611 217.935 361.296C215.35 361.971 212.804 362.299 210.353 362.299ZM255.633 93.8021L126.893 173.661C111.574 183.166 99.9023 202.62 97.1435 223.23C95.137 238.288 98.3396 251.611 105.941 259.786L192.855 353.025C199.26 359.888 208.038 362.299 217.55 359.811C234.913 355.261 250.926 336.039 256.482 313.095L298.328 139.978C303.248 119.638 298.869 101.032 287.177 92.5874C278.476 86.3021 266.997 86.7455 255.633 93.8021Z" fill="url(#paint12_linear_596_4615)"/>
<path d="M222.354 371.109C215.467 371.109 209.042 368.738 203.602 364.091L98.3595 274.284C88.8289 266.148 83.7742 252.093 84.5266 235.743C85.5298 213.339 96.8354 191.302 113.311 179.618L248.071 84.0655L248.515 84.6824L248.071 84.0655C260.959 74.9266 274.657 73.5963 285.634 80.4215C299.448 88.9819 305.834 108.011 302.323 130.087L272.785 315.447C268.811 340.377 253.28 361.855 234.142 368.892C230.129 370.377 226.174 371.109 222.354 371.109ZM270.528 77.6451C263.525 77.6451 256.116 80.2094 248.959 85.2994L114.18 180.852C98.0701 192.285 87.0154 213.841 86.0314 235.801C85.3176 251.688 90.1601 265.3 99.3434 273.127L204.566 362.935C212.611 369.798 222.914 371.399 233.602 367.466C252.239 360.602 267.383 339.606 271.261 315.197L300.798 129.837C304.213 108.397 298.097 89.9459 284.805 81.7133C280.445 78.9948 275.602 77.6451 270.528 77.6451Z" fill="url(#paint13_linear_596_4615)"/>
<path d="M236.201 379.265C229.641 379.265 223.352 377.337 217.68 373.52L92.489 288.995C81.1063 281.303 74.1609 266.977 73.4471 249.644C72.4632 226.142 82.8427 202.08 99.8782 188.391L239.789 75.8332C253.584 64.7278 268.96 62.2985 282.002 69.143C297.359 77.2021 305.848 96.3474 304.15 119.117L289.429 316.2C287.5 341.9 272.934 365.596 253.178 375.159C247.468 377.897 241.738 379.265 236.201 379.265ZM240.252 76.4116L240.735 77.0093L100.824 189.567C84.1546 202.986 74.0066 226.527 74.9712 249.587C75.6851 266.418 82.3796 280.319 93.3572 287.723L218.548 372.247C228.542 378.996 240.6 379.535 252.503 373.771C271.796 364.439 286.034 341.245 287.905 316.065L302.626 118.982C304.285 96.8487 296.105 78.2625 281.288 70.4733C268.825 63.918 254.047 66.3088 240.735 77.0093L240.252 76.4116Z" fill="url(#paint14_linear_596_4615)"/>
<path d="M251.993 386.572C245.858 386.572 239.838 385.087 234.166 382.099L87.4063 304.939C73.9014 297.844 64.7952 283.211 62.4608 264.798C59.3546 240.447 68.538 214.554 85.8436 198.802L229.806 67.9468C244.391 54.682 261.562 50.8838 276.9 57.5547C293.974 64.9583 304.759 84.0651 305.067 107.413L307.865 315.428C308.212 341.996 295.363 367.176 275.086 379.592C267.543 384.239 259.671 386.572 251.993 386.572ZM230.327 68.5059L230.848 69.065L86.8854 199.92C69.9271 215.344 60.9366 240.717 63.9849 264.586C66.2614 282.497 75.0782 296.707 88.1394 303.57L234.899 380.73C247.189 387.189 261.195 386.321 274.315 378.281C294.128 366.135 306.707 341.475 306.36 315.428L303.562 107.433C303.254 84.682 292.816 66.1152 276.302 58.9429C261.543 52.5419 244.97 56.2244 230.829 69.065L230.327 68.5059Z" fill="url(#paint15_linear_596_4615)"/>
<path d="M269.584 392.723C264.047 392.723 258.529 391.682 253.243 389.58L83.3315 322.119C67.3571 315.775 55.8008 300.891 51.6142 281.245C46.2123 255.949 53.775 229.034 71.3507 211.026L218.014 60.6016C233.005 45.216 252.51 39.6826 270.143 45.7751C289.378 52.4268 302.401 70.8587 304.986 95.0747L328.234 312.961C331.089 339.664 320.015 366.714 300.047 381.868C290.594 389.021 280.04 392.723 269.584 392.723ZM218.554 61.1222L219.095 61.6621L72.4311 212.086C55.222 229.747 47.8136 256.122 53.0998 280.936C57.1898 300.062 68.3989 314.561 83.891 320.711L253.802 388.173C268.581 394.034 285.095 391.296 299.121 380.653C318.684 365.808 329.507 339.297 326.71 313.115L303.462 95.2289C300.935 71.6107 288.298 53.6608 269.642 47.2212C252.568 41.3214 233.68 46.7199 219.095 61.6621L218.554 61.1222Z" fill="url(#paint16_linear_596_4615)"/>
<path d="M289.247 397.659C284.521 397.659 279.755 397.003 275.067 395.673L80.461 340.512C61.6699 335.191 47.2775 320.075 40.9688 299.059C33.2902 273.455 39.2324 245.133 56.4608 225.139L204.224 53.95C219.62 36.0965 241.015 28.6158 261.427 33.8985C282.784 39.432 298.585 57.459 303.678 82.0991L350.521 308.449C356.097 335.422 347.473 363.417 328.006 381.502C316.662 392.087 303.042 397.659 289.247 397.659ZM204.803 54.4705L205.382 54.9718L57.6184 226.161C40.6986 245.75 34.8915 273.532 42.4157 298.635C48.5701 319.149 62.5766 333.88 80.8662 339.066L275.472 394.227C293.318 399.278 312.09 394.265 326.965 380.422C346.045 362.684 354.495 335.248 349.016 308.796L302.173 82.4462C297.196 58.3844 281.82 40.8009 261.022 35.4217C241.17 30.2739 220.372 37.5811 205.362 54.9911L204.803 54.4705Z" fill="url(#paint17_linear_596_4615)"/>
<path d="M310.811 401.052C307.165 401.052 303.499 400.724 299.795 400.049L79.0471 360.062C57.0148 356.071 39.3619 340.859 30.603 318.34C20.6286 292.678 24.7573 263.16 41.3684 241.334L188.341 48.2815L188.939 48.7443L188.341 48.2815C203.871 27.8831 227.08 18.1273 250.444 22.1954C274.174 26.3214 293.062 43.6928 300.991 68.68L374.786 301.739C383.197 328.288 377.12 357.594 358.927 378.243C345.866 393.051 328.773 401.052 310.811 401.052ZM240.026 22.8124C220.81 22.8124 202.463 32.2404 189.556 49.207L42.5838 242.26C26.2814 263.68 22.2299 292.62 32.0307 317.781C40.5966 339.799 57.8251 354.664 79.3365 358.558L300.103 398.565C321.422 402.421 342.47 394.651 357.808 377.221C375.635 356.977 381.596 328.23 373.339 302.183L299.544 69.1427C291.808 44.6954 273.364 27.7095 250.193 23.6993C246.798 23.1016 243.383 22.8124 240.026 22.8124Z" fill="url(#paint18_linear_596_4615)"/>
<path d="M333.811 402.652C331.747 402.652 329.702 402.555 327.618 402.382L79.3785 380.691C54.0471 378.474 32.092 362.954 20.6514 339.162C8.20755 313.288 10.3105 283.577 26.227 259.689L170.209 43.7694L170.845 44.1935L170.209 43.7694C185.508 20.8066 210.415 8.48654 236.827 10.7809C263.238 13.0945 285.618 29.5598 296.711 54.8169L400.969 292.446C412.507 318.744 409.4 348.358 392.654 371.687C378.532 391.373 356.866 402.652 333.811 402.652ZM230.557 12.0341C207.039 12.0341 185.276 23.9107 171.482 44.6177L27.5003 260.537C11.8732 283.982 9.82814 313.133 22.0212 338.506C33.2303 361.797 54.7031 377.009 79.4943 379.168L327.734 400.878C352.525 403.037 376.333 391.797 391.42 370.801C407.838 347.915 410.886 318.86 399.58 293.063L295.322 55.4339C284.461 30.6781 262.544 14.5598 236.711 12.304C234.647 12.1305 232.582 12.0341 230.557 12.0341Z" fill="url(#paint19_linear_596_4615)"/>
<path d="M358.595 402.286H81.7252C52.3037 402.286 25.9691 387.093 11.268 361.624C-3.43308 336.174 -3.43308 305.769 11.268 280.319L149.694 40.7045C164.395 15.2353 190.749 0.0424805 220.151 0.0424805C249.572 0.0424805 275.907 15.2353 290.608 40.7045L429.033 280.319C443.734 305.769 443.734 336.174 429.033 361.624C414.352 387.074 387.998 402.286 358.595 402.286ZM150.349 41.0708L151.005 41.4564L12.5799 281.071C-1.85108 306.058 -1.85108 335.885 12.5799 360.853C27.0109 385.84 52.8632 400.743 81.7252 400.743H358.595C387.457 400.743 413.31 385.821 427.741 360.853C442.172 335.865 442.172 306.039 427.741 281.071L289.296 41.4564C274.865 16.4692 249.013 1.56562 220.151 1.56562C191.289 1.56562 165.436 16.4885 151.005 41.4564L150.349 41.0708Z" fill="url(#paint20_linear_596_4615)"/>
</g>
<defs>
<linearGradient id="paint0_linear_596_4615" x1="161.15" y1="207.035" x2="267.27" y2="207.035" gradientUnits="userSpaceOnUse">
<stop stop-color="#83A4D4"/>
<stop offset="0.9543" stop-color="#B4F7FD"/>
<stop offset="0.9994" stop-color="#B6FBFF"/>
</linearGradient>
<linearGradient id="paint1_linear_596_4615" x1="159.225" y1="209.796" x2="270.736" y2="209.796" gradientUnits="userSpaceOnUse">
<stop stop-color="#83A4D4"/>
<stop offset="0.9543" stop-color="#B4F7FD"/>
<stop offset="0.9994" stop-color="#B6FBFF"/>
</linearGradient>
<linearGradient id="paint2_linear_596_4615" x1="157.757" y1="212.883" x2="274.227" y2="212.883" gradientUnits="userSpaceOnUse">
<stop stop-color="#83A4D4"/>
<stop offset="0.9543" stop-color="#B4F7FD"/>
<stop offset="0.9994" stop-color="#B6FBFF"/>
</linearGradient>
<linearGradient id="paint3_linear_596_4615" x1="156.767" y1="216.354" x2="277.66" y2="216.354" gradientUnits="userSpaceOnUse">
<stop stop-color="#83A4D4"/>
<stop offset="0.9543" stop-color="#B4F7FD"/>
<stop offset="0.9994" stop-color="#B6FBFF"/>
</linearGradient>
<linearGradient id="paint4_linear_596_4615" x1="156.345" y1="220.196" x2="281.024" y2="220.196" gradientUnits="userSpaceOnUse">
<stop stop-color="#83A4D4"/>
<stop offset="0.9543" stop-color="#B4F7FD"/>
<stop offset="0.9994" stop-color="#B6FBFF"/>
</linearGradient>
<linearGradient id="paint5_linear_596_4615" x1="155.495" y1="221.887" x2="284.333" y2="221.887" gradientUnits="userSpaceOnUse">
<stop stop-color="#83A4D4"/>
<stop offset="0.9543" stop-color="#B4F7FD"/>
<stop offset="0.9994" stop-color="#B6FBFF"/>
</linearGradient>
<linearGradient id="paint6_linear_596_4615" x1="148.273" y1="222.857" x2="287.45" y2="222.857" gradientUnits="userSpaceOnUse">
<stop stop-color="#83A4D4"/>
<stop offset="0.9543" stop-color="#B4F7FD"/>
<stop offset="0.9994" stop-color="#B6FBFF"/>
</linearGradient>
<linearGradient id="paint7_linear_596_4615" x1="140.593" y1="223.7" x2="290.4" y2="223.7" gradientUnits="userSpaceOnUse">
<stop stop-color="#83A4D4"/>
<stop offset="0.9543" stop-color="#B4F7FD"/>
<stop offset="0.9994" stop-color="#B6FBFF"/>
</linearGradient>
<linearGradient id="paint8_linear_596_4615" x1="132.437" y1="224.365" x2="293.231" y2="224.365" gradientUnits="userSpaceOnUse">
<stop stop-color="#83A4D4"/>
<stop offset="0.9543" stop-color="#B4F7FD"/>
<stop offset="0.9994" stop-color="#B6FBFF"/>
</linearGradient>
<linearGradient id="paint9_linear_596_4615" x1="123.818" y1="224.814" x2="295.748" y2="224.814" gradientUnits="userSpaceOnUse">
<stop stop-color="#83A4D4"/>
<stop offset="0.9543" stop-color="#B4F7FD"/>
<stop offset="0.9994" stop-color="#B6FBFF"/>
</linearGradient>
<linearGradient id="paint10_linear_596_4615" x1="114.721" y1="225.009" x2="298.115" y2="225.009" gradientUnits="userSpaceOnUse">
<stop stop-color="#83A4D4"/>
<stop offset="0.9543" stop-color="#B4F7FD"/>
<stop offset="0.9994" stop-color="#B6FBFF"/>
</linearGradient>
<linearGradient id="paint11_linear_596_4615" x1="105.12" y1="224.931" x2="300.103" y2="224.931" gradientUnits="userSpaceOnUse">
<stop stop-color="#83A4D4"/>
<stop offset="0.9543" stop-color="#B4F7FD"/>
<stop offset="0.9994" stop-color="#B6FBFF"/>
</linearGradient>
<linearGradient id="paint12_linear_596_4615" x1="95.0338" y1="224.473" x2="301.821" y2="224.473" gradientUnits="userSpaceOnUse">
<stop stop-color="#83A4D4"/>
<stop offset="0.9543" stop-color="#B4F7FD"/>
<stop offset="0.9994" stop-color="#B6FBFF"/>
</linearGradient>
<linearGradient id="paint13_linear_596_4615" x1="84.4479" y1="223.61" x2="303.278" y2="223.61" gradientUnits="userSpaceOnUse">
<stop stop-color="#83A4D4"/>
<stop offset="0.9543" stop-color="#B4F7FD"/>
<stop offset="0.9994" stop-color="#B6FBFF"/>
</linearGradient>
<linearGradient id="paint14_linear_596_4615" x1="73.3767" y1="222.288" x2="304.347" y2="222.288" gradientUnits="userSpaceOnUse">
<stop stop-color="#83A4D4"/>
<stop offset="0.9543" stop-color="#B4F7FD"/>
<stop offset="0.9994" stop-color="#B6FBFF"/>
</linearGradient>
<linearGradient id="paint15_linear_596_4615" x1="61.8668" y1="220.447" x2="307.885" y2="220.447" gradientUnits="userSpaceOnUse">
<stop stop-color="#83A4D4"/>
<stop offset="0.9543" stop-color="#B4F7FD"/>
<stop offset="0.9994" stop-color="#B6FBFF"/>
</linearGradient>
<linearGradient id="paint16_linear_596_4615" x1="49.8976" y1="218.027" x2="328.679" y2="218.027" gradientUnits="userSpaceOnUse">
<stop stop-color="#83A4D4"/>
<stop offset="0.9543" stop-color="#B4F7FD"/>
<stop offset="0.9994" stop-color="#B6FBFF"/>
</linearGradient>
<linearGradient id="paint17_linear_596_4615" x1="37.6647" y1="214.957" x2="352.209" y2="214.957" gradientUnits="userSpaceOnUse">
<stop stop-color="#83A4D4"/>
<stop offset="0.9543" stop-color="#B4F7FD"/>
<stop offset="0.9994" stop-color="#B6FBFF"/>
</linearGradient>
<linearGradient id="paint18_linear_596_4615" x1="25.2396" y1="211.168" x2="378.5" y2="211.168" gradientUnits="userSpaceOnUse">
<stop stop-color="#83A4D4"/>
<stop offset="0.9543" stop-color="#B4F7FD"/>
<stop offset="0.9994" stop-color="#B6FBFF"/>
</linearGradient>
<linearGradient id="paint19_linear_596_4615" x1="12.6196" y1="206.584" x2="407.852" y2="206.584" gradientUnits="userSpaceOnUse">
<stop stop-color="#83A4D4"/>
<stop offset="0.9543" stop-color="#B4F7FD"/>
<stop offset="0.9994" stop-color="#B6FBFF"/>
</linearGradient>
<linearGradient id="paint20_linear_596_4615" x1="0.232541" y1="201.161" x2="440.083" y2="201.161" gradientUnits="userSpaceOnUse">
<stop stop-color="#83A4D4"/>
<stop offset="0.9543" stop-color="#B4F7FD"/>
<stop offset="0.9994" stop-color="#B6FBFF"/>
</linearGradient>
<clipPath id="clip0_596_4615">
<rect width="439.856" height="402.61" fill="white" transform="translate(0.238281 0.0424805)"/>
</clipPath>
</defs>
</svg>
