<svg width="310" height="283" viewBox="0 0 310 283" fill="none" xmlns="http://www.w3.org/2000/svg">
<g clip-path="url(#clip0_597_6315)">
<path d="M120.168 178.994C118.301 178.994 116.691 178.507 115.514 177.518C113.363 175.718 113.012 172.483 114.554 168.679L131.276 127.339C133.562 121.681 139.609 115.874 145.968 113.234C149.58 111.732 152.868 111.461 155.235 112.463L184.647 124.889C186.663 125.742 187.813 127.38 188.002 129.627C188.421 134.906 183.389 142.229 176.3 146.683L130.166 175.596C126.595 177.843 123.064 178.994 120.168 178.994ZM152.029 112.936C150.365 112.936 148.43 113.37 146.374 114.222C140.259 116.767 134.455 122.317 132.263 127.732L115.541 169.072C114.162 172.483 114.392 175.19 116.191 176.693C118.829 178.913 124.092 178.128 129.584 174.676L175.718 145.762C183.443 140.916 187.258 133.877 186.92 129.694C186.771 127.84 185.864 126.554 184.214 125.85L154.802 113.424C154.018 113.112 153.071 112.936 152.029 112.936Z" fill="url(#paint0_linear_597_6315)"/>
<path d="M119.132 184.058C117.373 184.058 115.831 183.625 114.627 182.745C112.232 180.986 111.623 177.791 112.936 173.73L127.439 128.844C130.794 118.461 144.58 108.661 152.44 111.07L186.194 121.399C188.521 122.116 189.955 123.754 190.348 126.136C191.241 131.619 186.384 139.713 179.038 144.979L130.78 179.537C126.64 182.488 122.487 184.058 119.132 184.058ZM149.815 111.761C142.347 111.761 131.294 120.397 128.453 129.168L113.95 174.055C112.787 177.642 113.247 180.417 115.249 181.879C118.334 184.126 124.313 182.84 130.144 178.657L178.402 144.099C186.424 138.36 189.996 130.644 189.279 126.299C188.954 124.309 187.804 122.996 185.87 122.414L152.115 112.086C151.412 111.869 150.641 111.761 149.815 111.761Z" fill="url(#paint1_linear_597_6315)"/>
<path d="M118.421 189.418C116.784 189.418 115.337 189.052 114.146 188.308C111.508 186.643 110.629 183.394 111.657 179.157L123.359 130.765C126.065 119.597 140.325 108.064 149.227 109.865L187.594 117.594C190.273 118.135 192.018 119.76 192.654 122.318C194.075 128.071 189.556 136.748 181.926 142.947L131.855 183.624C127.215 187.36 122.304 189.418 118.421 189.418ZM147.292 110.744C138.945 110.744 126.769 121.222 124.388 131.022L112.685 179.414C111.779 183.164 112.496 186.007 114.714 187.401C117.731 189.31 123.982 188.606 131.179 182.758L181.249 142.095C189.461 135.421 192.722 127.042 191.612 122.562C191.085 120.45 189.624 119.083 187.391 118.636L149.024 110.907C148.469 110.785 147.887 110.744 147.292 110.744Z" fill="url(#paint2_linear_597_6315)"/>
<path d="M118.182 195.144C116.666 195.144 115.287 194.833 114.11 194.21C111.228 192.653 110.024 189.378 110.727 184.992L119.007 133.161C120.915 121.208 135.553 107.834 145.551 108.89L188.762 113.479C191.833 113.804 193.93 115.415 194.836 118.149C196.784 124.051 192.604 133.472 184.893 140.538L133.402 187.78C128.247 192.504 122.619 195.144 118.182 195.144ZM144.414 109.892C135.079 109.892 121.794 122.467 120.062 133.323L111.783 185.154C111.16 189.066 112.161 191.95 114.624 193.263C118.141 195.158 125.095 193.953 132.685 186.982L184.175 139.74C192.482 132.119 195.35 123.09 193.822 118.461C193.064 116.159 191.278 114.806 188.654 114.521L145.442 109.933C145.104 109.906 144.752 109.892 144.414 109.892Z" fill="url(#paint3_linear_597_6315)"/>
<path d="M118.471 201.156C117.091 201.156 115.806 200.912 114.669 200.398C111.517 198.976 109.961 195.7 110.299 191.166L114.439 136.059C115.4 123.362 130.241 107.971 141.416 108.201L189.687 109.041C193.204 109.108 195.707 110.678 196.911 113.602C199.414 119.64 195.653 129.792 187.969 137.738L135.544 192.005C129.93 197.826 123.544 201.156 118.471 201.156ZM141.213 109.271C130.755 109.271 116.401 124.228 115.508 136.14L111.368 191.247C111.057 195.308 112.396 198.205 115.102 199.423C119.945 201.602 128.036 198.245 134.787 191.261L187.211 136.993C195.585 128.316 197.939 118.868 195.937 114.008C194.909 111.504 192.744 110.164 189.687 110.11L141.416 109.271C141.335 109.271 141.281 109.271 141.213 109.271Z" fill="url(#paint4_linear_597_6315)"/>
<path d="M119.323 207.449C118.092 207.449 116.928 207.26 115.86 206.867C112.396 205.608 110.462 202.36 110.394 197.689L109.65 139.524C109.474 126.136 124.423 108.688 136.748 107.862L190.268 104.316L190.309 104.843L190.268 104.316C194.219 104.058 197.249 105.615 198.792 108.701C201.917 114.942 198.751 125.554 191.08 134.529L138.304 196.241C132.284 203.307 125.086 207.449 119.323 207.449ZM191.134 105.358C190.877 105.358 190.607 105.371 190.336 105.385L136.816 108.931C125.181 109.703 110.543 126.854 110.705 139.51L111.449 197.676C111.503 201.926 113.154 204.755 116.211 205.865C121.812 207.896 130.566 203.659 137.506 195.551L190.282 133.838C198.521 124.2 200.334 114.143 197.845 109.189C196.586 106.671 194.273 105.358 191.134 105.358Z" fill="url(#paint5_linear_597_6315)"/>
<path d="M120.731 213.947C119.716 213.947 118.742 213.825 117.822 213.568C114.02 212.512 111.653 209.304 111.139 204.525L104.686 143.598C103.197 129.588 118.025 109.92 131.581 107.93L190.472 99.2936C194.95 98.6303 198.508 100.106 200.47 103.422C204.217 109.744 201.647 121.019 194.233 130.86L141.795 200.424C135.504 208.776 127.279 213.947 120.731 213.947ZM190.553 99.835L190.634 100.363L131.73 108.999C118.904 110.881 104.334 130.224 105.741 143.49L112.194 204.417C112.654 208.789 114.697 211.591 118.093 212.539C124.532 214.326 133.921 209.087 140.929 199.801L193.367 130.238C200.538 120.735 203.067 109.933 199.55 103.991C197.791 101.026 194.707 99.7674 190.621 100.377L190.553 99.835Z" fill="url(#paint6_linear_597_6315)"/>
<path d="M122.964 220.646C122.179 220.646 121.421 220.579 120.677 220.43C116.497 219.618 113.629 216.491 112.628 211.631L99.5859 148.335C96.5825 133.783 111.072 111.814 125.859 108.497L190.216 94.0406C195.275 92.9036 199.415 94.2437 201.878 97.8037C206.261 104.166 204.407 116.078 197.359 126.772L146.058 204.525C139.564 214.352 130.405 220.646 122.964 220.646ZM190.337 94.555L190.459 95.0829L126.102 109.54C112.073 112.694 97.8001 134.325 100.641 148.118L113.683 211.415C114.603 215.895 117.092 218.657 120.894 219.387C128.254 220.809 138.238 214.447 145.165 203.942L196.466 126.19C203.285 115.848 205.152 104.437 200.998 98.4129C198.766 95.1777 195.113 94.0271 190.446 95.0829L190.337 94.555Z" fill="url(#paint7_linear_597_6315)"/>
<path d="M126.013 227.468C125.526 227.468 125.052 227.441 124.565 227.387C119.938 226.886 116.529 223.894 114.973 218.927L94.4094 153.749C92.3124 147.103 93.7871 138.209 98.4681 129.356C103.65 119.529 111.753 111.962 119.614 109.593L189.45 88.5172L189.598 89.0315L189.45 88.5172C195.132 86.798 199.948 87.9622 202.978 91.7794C208.133 98.2634 207.105 110.473 200.435 122.155L151.163 208.409C144.615 219.861 134.482 227.468 126.013 227.468ZM194.293 88.815C192.872 88.815 191.344 89.0586 189.747 89.5324L119.925 110.622C112.335 112.91 104.475 120.287 99.4151 129.857C94.937 138.331 93.4489 147.157 95.4376 153.438L116.001 218.615C117.449 223.204 120.452 225.871 124.687 226.331C133.021 227.224 143.519 219.644 150.229 207.881L199.502 121.627C205.86 110.487 206.942 98.4935 202.14 92.4427C200.232 90.0468 197.526 88.815 194.293 88.815Z" fill="url(#paint8_linear_597_6315)"/>
<path d="M129.929 234.345C129.821 234.345 129.726 234.345 129.618 234.345C124.491 234.237 120.459 231.422 118.267 226.386L89.1938 159.922C86.3392 153.411 86.975 144.301 90.9119 134.921C95.6335 123.685 104.021 114.643 112.788 111.313L188.036 82.8056C194.381 80.3961 199.927 81.3166 203.648 85.4046C209.533 91.8614 209.425 104.586 203.35 117.053L157.163 212.024C150.764 225.222 139.602 234.345 129.929 234.345ZM188.225 83.32L188.414 83.8208L113.167 112.315C104.657 115.537 96.5129 124.362 91.8996 135.34C88.0709 144.437 87.4486 153.249 90.1814 159.489L119.255 225.953C121.311 230.65 124.91 233.181 129.659 233.276C139.007 233.452 149.925 224.532 156.229 211.564L202.417 116.592C208.288 104.504 208.478 92.2675 202.877 86.1356C199.468 82.3995 194.34 81.5738 188.428 83.8208L188.225 83.32Z" fill="url(#paint9_linear_597_6315)"/>
<path d="M134.882 241.195C129.687 241.195 125.371 238.623 122.638 233.885L84.0268 166.867C80.3605 160.505 80.0764 151.205 83.2286 141.351C87.2602 128.748 95.7564 118.176 105.416 113.764L185.953 76.9581L186.17 77.4454L185.953 76.9581C193.002 73.7365 199.374 74.3456 203.893 78.6772C210.67 85.1612 211.55 98.0207 206.138 111.435L164.212 215.259C158.354 229.757 146.76 240.41 136.018 241.154C135.626 241.181 135.247 241.195 134.882 241.195ZM194.409 75.997C191.919 75.997 189.214 76.6333 186.386 77.9327L105.849 114.725C96.4599 119.016 88.1802 129.33 84.2433 141.662C81.1858 151.232 81.4428 160.234 84.9468 166.325L123.558 233.344C126.318 238.122 130.593 240.451 135.937 240.085C146.287 239.368 157.502 228.985 163.211 214.853L205.137 111.029C210.305 98.2238 209.507 85.5402 203.148 79.4488C200.74 77.1612 197.764 75.997 194.409 75.997Z" fill="url(#paint10_linear_597_6315)"/>
<path d="M140.916 247.935C135.802 247.935 131.365 245.661 128.185 241.356L78.9674 174.622C74.4082 168.449 73.1365 158.96 75.4635 148.605C78.5345 134.947 87.1794 122.534 97.4749 116.998L183.058 71.0146C190.702 66.9131 198.17 67.1297 203.555 71.6237C211.185 77.9858 213.187 91.2109 208.642 105.302L172.276 218.02C167.257 233.586 155.581 245.783 143.879 247.691C142.878 247.854 141.89 247.935 140.916 247.935ZM183.316 71.4748L183.573 71.9486L97.989 117.932C87.9506 123.333 79.5086 135.461 76.5052 148.822C74.2459 158.879 75.4499 168.043 79.8333 173.972L129.051 240.707C132.636 245.553 137.696 247.597 143.717 246.622C155.04 244.768 166.364 232.869 171.261 217.668L207.627 104.95C212.037 91.2785 210.17 78.5002 202.878 72.4224C197.778 68.1584 190.919 67.9824 183.573 71.9351L183.316 71.4748Z" fill="url(#paint11_linear_597_6315)"/>
<path d="M148.114 254.447C143.122 254.447 138.617 252.471 135.072 248.667L74.1249 183.205C68.5781 177.236 66.224 167.571 67.6716 156.674C69.6468 141.892 78.0212 127.936 89.0202 121.1L179.298 65.019L179.582 65.4792L179.298 65.019C187.646 59.8345 196.142 59.5367 202.608 64.2203C211.159 70.4064 214.379 83.9022 210.834 98.6163L181.49 220.159C177.512 236.647 165.972 250.454 153.431 253.743C151.618 254.217 149.832 254.447 148.114 254.447ZM179.866 65.9394L89.5884 122.007C78.8465 128.681 70.6615 142.339 68.7269 156.809C67.3199 167.381 69.5657 176.735 74.896 182.474L135.844 247.936C140.335 252.755 146.491 254.447 153.16 252.701C165.336 249.506 176.565 236.01 180.462 219.902L209.806 98.3591C213.256 84.0782 210.185 71.0156 201.986 65.0866C195.885 60.6738 187.835 60.9851 179.866 65.9394Z" fill="url(#paint12_linear_597_6315)"/>
<path d="M156.534 260.633C151.704 260.633 147.199 258.968 143.384 255.706L69.5838 192.654C62.9005 186.941 59.3559 177.073 59.8836 165.594C60.5871 149.865 68.515 134.393 80.0686 126.19L174.568 59.1037L174.879 59.5368L174.568 59.1037C183.605 52.6874 193.21 51.7534 200.908 56.5453C210.595 62.5554 215.073 75.9158 212.611 91.415L191.898 221.554C189.111 239.056 178.22 254.136 164.8 259.077C161.986 260.119 159.212 260.633 156.534 260.633ZM190.315 54.5961C185.404 54.5961 180.209 56.3964 175.19 59.97L80.6774 127.056C69.3808 135.083 61.6288 150.217 60.9388 165.635C60.4382 176.789 63.834 186.346 70.2737 191.841L144.06 254.894C149.702 259.713 156.926 260.836 164.421 258.075C177.49 253.256 188.11 238.515 190.829 221.378L211.542 91.239C213.937 76.1866 209.648 63.2323 200.327 57.4522C197.269 55.5436 193.873 54.5961 190.315 54.5961Z" fill="url(#paint13_linear_597_6315)"/>
<path d="M166.245 266.357C161.645 266.357 157.235 265.004 153.257 262.324L65.4684 202.98C57.4863 197.579 52.616 187.522 52.1154 175.352C51.4254 158.852 58.7039 141.958 70.6499 132.347L168.761 53.3219C178.434 45.525 189.217 43.8194 198.362 48.6248C209.131 54.283 215.084 67.7246 213.893 83.7111L203.571 222.08C202.218 240.124 192.004 256.76 178.15 263.474C174.146 265.396 170.128 266.357 166.245 266.357ZM169.086 53.728L169.424 54.1476L71.3128 133.173C59.6239 142.594 52.5077 159.122 53.1842 175.312C53.6847 187.129 58.3793 196.889 66.0772 202.087L153.866 261.43C160.874 266.168 169.329 266.547 177.677 262.5C191.206 255.948 201.19 239.664 202.502 221.985L212.825 83.6163C213.988 68.0766 208.252 55.0275 197.862 49.5588C189.122 44.9564 178.759 46.6349 169.424 54.1476L169.086 53.728Z" fill="url(#paint14_linear_597_6315)"/>
<path d="M177.311 271.487C173.009 271.487 168.788 270.445 164.81 268.347L61.8962 214.174C52.426 209.193 46.0404 198.919 44.4034 185.992C42.2252 168.895 48.6649 150.716 60.8003 139.657L161.753 47.7852C171.98 38.4722 184.021 35.8055 194.777 40.4891C206.75 45.6871 214.312 59.1017 214.529 75.4942L216.49 221.538C216.734 240.191 207.724 257.87 193.505 266.587C188.215 269.85 182.695 271.487 177.311 271.487ZM162.118 48.1778L162.483 48.5703L61.5309 140.442C49.639 151.271 43.3346 169.085 45.4721 185.843C47.0685 198.418 53.2512 208.394 62.4103 213.213L165.324 267.386C173.942 271.921 183.764 271.311 192.964 265.667C206.858 257.139 215.679 239.826 215.435 221.538L213.474 75.5077C213.257 59.5348 205.938 46.4993 194.357 41.4637C184.008 36.9697 172.386 39.5551 162.47 48.5703L162.118 48.1778Z" fill="url(#paint15_linear_597_6315)"/>
<path d="M189.658 275.807C185.775 275.807 181.906 275.076 178.199 273.6L59.0501 226.236C47.8482 221.783 39.7444 211.333 36.8087 197.539C33.0206 179.78 38.3239 160.883 50.6487 148.24L153.495 42.6289C164.007 31.8269 177.685 27.9419 190.05 32.2194C203.538 36.8895 212.67 49.8303 214.483 66.832L230.785 219.807C232.788 238.554 225.022 257.546 211.02 268.186C204.391 273.208 196.99 275.807 189.658 275.807ZM153.874 42.9944L154.253 43.3734L51.4063 148.984C39.3386 161.384 34.1435 179.901 37.8504 197.323C40.7185 210.751 48.5788 220.93 59.4424 225.248L178.591 272.612C188.954 276.727 200.535 274.805 210.37 267.333C224.089 256.91 231.678 238.297 229.717 219.915L213.414 66.9403C211.642 50.3582 202.781 37.7558 189.698 33.2347C177.725 29.0925 164.48 32.8827 154.253 43.3734L153.874 42.9944Z" fill="url(#paint16_linear_597_6315)"/>
<path d="M203.437 279.273C200.122 279.273 196.781 278.813 193.493 277.879L57.0277 239.151C43.8506 235.415 33.7581 224.802 29.3342 210.048C23.9497 192.072 28.1166 172.187 40.1978 158.149L143.815 37.9598C154.611 25.4252 169.615 20.173 183.928 23.882C198.905 27.7669 209.985 40.4235 213.557 57.723L246.405 216.64C250.315 235.577 244.267 255.232 230.617 267.929C222.662 275.361 213.11 279.273 203.437 279.273ZM144.221 38.3253L144.627 38.6773L41.0096 158.867C29.1448 172.62 25.0726 192.126 30.3488 209.75C34.6645 224.153 44.4865 234.495 57.3119 238.136L193.777 276.863C206.292 280.41 219.455 276.89 229.886 267.171C243.266 254.718 249.192 235.456 245.349 216.884L212.501 57.9666C209.011 41.0732 198.228 28.728 183.644 24.9514C169.723 21.3372 155.139 26.4675 144.614 38.6908L144.221 38.3253Z" fill="url(#paint17_linear_597_6315)"/>
<path d="M218.556 281.655C215.999 281.655 213.428 281.425 210.831 280.951L56.0337 252.877C40.5837 250.075 28.2048 239.394 22.0627 223.584C15.0683 205.567 17.9635 184.843 29.6118 169.52L132.675 33.9798L133.094 34.3046L132.675 33.9798C143.565 19.6583 159.841 12.8089 176.224 15.665C192.865 18.5618 206.109 30.7581 211.67 48.3012L263.418 211.929C269.316 230.569 265.055 251.144 252.297 265.641C243.138 276.037 231.151 281.655 218.556 281.655ZM168.918 16.0982C155.444 16.0982 142.578 22.7175 133.527 34.6295L30.4642 170.169C19.0323 185.208 16.1912 205.526 23.0639 223.191C29.0707 238.65 41.152 249.086 56.2366 251.821L211.047 279.909C225.997 282.616 240.757 277.161 251.512 264.924C264.013 250.711 268.193 230.528 262.403 212.24L210.655 48.6261C205.23 31.462 192.296 19.5364 176.048 16.7209C173.667 16.3012 171.273 16.0982 168.918 16.0982Z" fill="url(#paint18_linear_597_6315)"/>
<path d="M234.689 282.778C233.241 282.778 231.807 282.711 230.346 282.589L56.2704 267.36C38.507 265.804 23.1112 254.907 15.0886 238.203C6.36248 220.037 7.83713 199.178 18.9984 182.406L119.964 30.8122L120.411 31.11L119.964 30.8122C130.693 14.6904 148.158 6.04066 166.679 7.65149C185.2 9.27585 200.894 20.8359 208.673 38.5686L281.783 205.404C289.873 223.868 287.695 244.66 275.952 261.039C266.049 274.86 250.856 282.778 234.689 282.778ZM162.283 8.53135C145.791 8.53135 130.53 16.8698 120.857 31.4078L19.8913 183.002C8.93296 199.462 7.49891 219.929 16.0491 237.743C23.9094 254.095 38.967 264.775 56.3516 266.291L230.427 281.533C247.812 283.049 264.507 275.157 275.086 260.416C286.599 244.349 288.737 223.949 280.809 205.838L207.699 39.0017C200.082 21.621 184.713 10.3046 166.598 8.72086C165.151 8.59903 163.703 8.53135 162.283 8.53135Z" fill="url(#paint19_linear_597_6315)"/>
<path d="M252.061 282.522H57.9087C37.2772 282.522 18.8103 271.855 8.50127 253.974C-1.80772 236.106 -1.80772 214.759 8.50127 196.891L105.571 28.6605C115.88 10.779 134.36 0.112305 154.978 0.112305C175.61 0.112305 194.077 10.779 204.386 28.6605L301.455 196.891C311.764 214.759 311.764 236.106 301.455 253.974C291.16 271.842 272.679 282.522 252.061 282.522ZM106.031 28.9177L106.491 29.1884L9.42124 197.419C-0.698349 214.962 -0.698349 235.903 9.42124 253.432C19.5408 270.975 37.6695 281.439 57.9087 281.439H252.061C272.3 281.439 290.429 270.962 300.549 253.432C310.668 235.889 310.668 214.948 300.549 197.419L203.466 29.1884C193.346 11.6453 175.217 1.18168 154.978 1.18168C134.739 1.18168 116.61 11.6588 106.491 29.1884L106.031 28.9177Z" fill="url(#paint20_linear_597_6315)"/>
</g>
<defs>
<linearGradient id="paint0_linear_597_6315" x1="113.612" y1="145.437" x2="188.028" y2="145.437" gradientUnits="userSpaceOnUse">
<stop stop-color="#83A4D4"/>
<stop offset="0.9543" stop-color="#B4F7FD"/>
<stop offset="0.9994" stop-color="#B6FBFF"/>
</linearGradient>
<linearGradient id="paint1_linear_597_6315" x1="112.259" y1="147.378" x2="190.455" y2="147.378" gradientUnits="userSpaceOnUse">
<stop stop-color="#83A4D4"/>
<stop offset="0.9543" stop-color="#B4F7FD"/>
<stop offset="0.9994" stop-color="#B6FBFF"/>
</linearGradient>
<linearGradient id="paint2_linear_597_6315" x1="111.232" y1="149.544" x2="192.906" y2="149.544" gradientUnits="userSpaceOnUse">
<stop stop-color="#83A4D4"/>
<stop offset="0.9543" stop-color="#B4F7FD"/>
<stop offset="0.9994" stop-color="#B6FBFF"/>
</linearGradient>
<linearGradient id="paint3_linear_597_6315" x1="110.532" y1="151.981" x2="195.307" y2="151.981" gradientUnits="userSpaceOnUse">
<stop stop-color="#83A4D4"/>
<stop offset="0.9543" stop-color="#B4F7FD"/>
<stop offset="0.9994" stop-color="#B6FBFF"/>
</linearGradient>
<linearGradient id="paint4_linear_597_6315" x1="110.255" y1="154.68" x2="197.685" y2="154.68" gradientUnits="userSpaceOnUse">
<stop stop-color="#83A4D4"/>
<stop offset="0.9543" stop-color="#B4F7FD"/>
<stop offset="0.9994" stop-color="#B6FBFF"/>
</linearGradient>
<linearGradient id="paint5_linear_597_6315" x1="109.645" y1="155.867" x2="199.991" y2="155.867" gradientUnits="userSpaceOnUse">
<stop stop-color="#83A4D4"/>
<stop offset="0.9543" stop-color="#B4F7FD"/>
<stop offset="0.9994" stop-color="#B6FBFF"/>
</linearGradient>
<linearGradient id="paint6_linear_597_6315" x1="104.584" y1="156.548" x2="202.181" y2="156.548" gradientUnits="userSpaceOnUse">
<stop stop-color="#83A4D4"/>
<stop offset="0.9543" stop-color="#B4F7FD"/>
<stop offset="0.9994" stop-color="#B6FBFF"/>
</linearGradient>
<linearGradient id="paint7_linear_597_6315" x1="99.195" y1="157.139" x2="204.246" y2="157.139" gradientUnits="userSpaceOnUse">
<stop stop-color="#83A4D4"/>
<stop offset="0.9543" stop-color="#B4F7FD"/>
<stop offset="0.9994" stop-color="#B6FBFF"/>
</linearGradient>
<linearGradient id="paint8_linear_597_6315" x1="93.4815" y1="157.605" x2="206.237" y2="157.605" gradientUnits="userSpaceOnUse">
<stop stop-color="#83A4D4"/>
<stop offset="0.9543" stop-color="#B4F7FD"/>
<stop offset="0.9994" stop-color="#B6FBFF"/>
</linearGradient>
<linearGradient id="paint9_linear_597_6315" x1="87.4307" y1="157.922" x2="207.995" y2="157.922" gradientUnits="userSpaceOnUse">
<stop stop-color="#83A4D4"/>
<stop offset="0.9543" stop-color="#B4F7FD"/>
<stop offset="0.9994" stop-color="#B6FBFF"/>
</linearGradient>
<linearGradient id="paint10_linear_597_6315" x1="81.0509" y1="158.058" x2="209.654" y2="158.058" gradientUnits="userSpaceOnUse">
<stop stop-color="#83A4D4"/>
<stop offset="0.9543" stop-color="#B4F7FD"/>
<stop offset="0.9994" stop-color="#B6FBFF"/>
</linearGradient>
<linearGradient id="paint11_linear_597_6315" x1="74.3238" y1="158.003" x2="211.053" y2="158.003" gradientUnits="userSpaceOnUse">
<stop stop-color="#83A4D4"/>
<stop offset="0.9543" stop-color="#B4F7FD"/>
<stop offset="0.9994" stop-color="#B6FBFF"/>
</linearGradient>
<linearGradient id="paint12_linear_597_6315" x1="67.2475" y1="157.682" x2="212.255" y2="157.682" gradientUnits="userSpaceOnUse">
<stop stop-color="#83A4D4"/>
<stop offset="0.9543" stop-color="#B4F7FD"/>
<stop offset="0.9994" stop-color="#B6FBFF"/>
</linearGradient>
<linearGradient id="paint13_linear_597_6315" x1="59.8284" y1="157.076" x2="213.281" y2="157.076" gradientUnits="userSpaceOnUse">
<stop stop-color="#83A4D4"/>
<stop offset="0.9543" stop-color="#B4F7FD"/>
<stop offset="0.9994" stop-color="#B6FBFF"/>
</linearGradient>
<linearGradient id="paint14_linear_597_6315" x1="52.066" y1="156.146" x2="214.032" y2="156.146" gradientUnits="userSpaceOnUse">
<stop stop-color="#83A4D4"/>
<stop offset="0.9543" stop-color="#B4F7FD"/>
<stop offset="0.9994" stop-color="#B6FBFF"/>
</linearGradient>
<linearGradient id="paint15_linear_597_6315" x1="43.9868" y1="154.854" x2="216.504" y2="154.854" gradientUnits="userSpaceOnUse">
<stop stop-color="#83A4D4"/>
<stop offset="0.9543" stop-color="#B4F7FD"/>
<stop offset="0.9994" stop-color="#B6FBFF"/>
</linearGradient>
<linearGradient id="paint16_linear_597_6315" x1="35.6049" y1="153.155" x2="231.098" y2="153.155" gradientUnits="userSpaceOnUse">
<stop stop-color="#83A4D4"/>
<stop offset="0.9543" stop-color="#B4F7FD"/>
<stop offset="0.9994" stop-color="#B6FBFF"/>
</linearGradient>
<linearGradient id="paint17_linear_597_6315" x1="27.0172" y1="151.001" x2="247.589" y2="151.001" gradientUnits="userSpaceOnUse">
<stop stop-color="#83A4D4"/>
<stop offset="0.9543" stop-color="#B4F7FD"/>
<stop offset="0.9994" stop-color="#B6FBFF"/>
</linearGradient>
<linearGradient id="paint18_linear_597_6315" x1="18.3017" y1="148.34" x2="266.022" y2="148.34" gradientUnits="userSpaceOnUse">
<stop stop-color="#83A4D4"/>
<stop offset="0.9543" stop-color="#B4F7FD"/>
<stop offset="0.9994" stop-color="#B6FBFF"/>
</linearGradient>
<linearGradient id="paint19_linear_597_6315" x1="9.4564" y1="145.122" x2="286.609" y2="145.122" gradientUnits="userSpaceOnUse">
<stop stop-color="#83A4D4"/>
<stop offset="0.9543" stop-color="#B4F7FD"/>
<stop offset="0.9994" stop-color="#B6FBFF"/>
</linearGradient>
<linearGradient id="paint20_linear_597_6315" x1="0.762767" y1="141.315" x2="309.204" y2="141.315" gradientUnits="userSpaceOnUse">
<stop stop-color="#83A4D4"/>
<stop offset="0.9543" stop-color="#B4F7FD"/>
<stop offset="0.9994" stop-color="#B6FBFF"/>
</linearGradient>
<clipPath id="clip0_597_6315">
<rect width="308.444" height="282.667" fill="white" transform="translate(0.78125 0.111328)"/>
</clipPath>
</defs>
</svg>
