<svg width="325" height="663" viewBox="0 0 325 663" fill="none" xmlns="http://www.w3.org/2000/svg">
<g clip-path="url(#clip0_596_4513)">
<path d="M178.911 612.05C174.7 612.05 170.911 610.857 167.787 608.542C162.84 604.858 160.243 598.718 160.453 591.28L170.77 209.167C171.191 193.8 183.649 177.38 198.528 172.503L569.271 51.8098C576.675 49.3889 583.553 50.1608 588.607 53.95C593.554 57.6339 596.151 63.7738 595.941 71.2119L585.624 453.325C585.203 468.692 572.745 485.112 557.866 489.989L187.123 610.682C184.316 611.594 181.543 612.05 178.911 612.05ZM577.482 51.7396C575.026 51.7396 572.394 52.1606 569.692 53.0728L198.949 173.766C184.526 178.467 172.49 194.361 172.104 209.202L161.787 591.315C161.611 598.297 164.033 604.051 168.595 607.454C173.297 610.963 179.754 611.664 186.737 609.384L557.48 488.691C571.903 483.989 583.939 468.096 584.325 453.255L594.642 71.1417H595.309H594.642C594.818 64.1598 592.396 58.4058 587.834 55.0025C584.957 52.8272 581.413 51.7396 577.482 51.7396Z" fill="url(#paint0_linear_596_4513)"/>
<path d="M157.258 601.806C152.345 601.806 148.029 600.297 144.66 597.315C139.888 593.104 137.747 586.508 138.59 578.72L182.208 187.239C183.963 171.521 197.789 155.732 213.054 152.119L592.886 61.4584C600.325 59.669 607.028 61.0023 611.73 65.1774C616.503 69.3876 618.643 75.9836 617.801 83.7726L574.182 475.288C572.428 491.007 558.601 506.795 543.337 510.409L163.505 601.034C161.364 601.56 159.258 601.806 157.258 601.806ZM599.167 62.0197C597.272 62.0197 595.272 62.2653 593.202 62.7565L213.37 153.417C198.596 156.925 185.226 172.187 183.542 187.414L139.923 578.895C139.116 586.228 141.116 592.403 145.538 596.332C149.924 600.192 156.17 601.42 163.189 599.736L543.021 509.075C557.794 505.567 571.164 490.305 572.849 475.078L616.468 83.562C617.275 76.2292 615.274 70.0542 610.853 66.1247C607.765 63.4231 603.729 62.0197 599.167 62.0197Z" fill="url(#paint1_linear_596_4513)"/>
<path d="M136.654 589.35C130.97 589.35 126.057 587.42 122.548 583.771C117.986 579 116.336 571.947 117.88 563.913L195.433 165.731C198.556 149.732 213.716 134.786 229.226 132.435L615.585 73.4568C623.025 72.3341 629.482 74.1936 633.833 78.7196C638.395 83.4912 640.044 90.5433 638.5 98.5778L560.948 496.76C557.824 512.759 542.665 527.705 527.119 530.056L140.83 589.034C139.392 589.244 138.023 589.35 136.654 589.35ZM619.726 74.4743C618.463 74.4743 617.129 74.5796 615.796 74.7901L229.507 133.768C214.488 136.049 199.854 150.504 196.837 165.977L119.284 564.158C117.81 571.772 119.319 578.403 123.6 582.824C127.636 586.999 133.672 588.753 140.655 587.666L526.944 528.687C541.963 526.407 556.596 511.952 559.614 496.479L637.167 98.2972L637.833 98.4375L637.167 98.2972C638.64 90.6837 637.132 84.0526 632.85 79.6318C629.622 76.2637 625.025 74.4743 619.726 74.4743Z" fill="url(#paint2_linear_596_4513)"/>
<path d="M117.387 574.72C110.86 574.72 105.315 572.334 101.736 567.878C97.4897 562.65 96.3317 554.967 98.6126 546.827L210.59 144.856C215.082 128.716 231.505 114.717 247.191 113.7L637.164 87.8422C644.498 87.351 650.745 89.7719 654.675 94.6137C658.921 99.8414 660.079 107.525 657.798 115.665L545.821 517.636C541.329 533.775 524.906 547.774 509.22 548.792L119.247 574.649C118.615 574.684 118.018 574.72 117.387 574.72ZM638.989 89.1404C638.428 89.1404 637.831 89.1755 637.234 89.2105L247.296 115.068C232.136 116.086 216.275 129.594 211.924 145.242L99.9461 547.213C97.8055 554.932 98.8232 562.159 102.824 567.036C106.473 571.527 112.298 573.737 119.176 573.281L509.15 547.423C524.309 546.406 540.171 532.898 544.522 517.25L656.5 115.279C658.64 107.56 657.623 100.333 653.622 95.4557C650.253 91.3507 645.13 89.1404 638.989 89.1404Z" fill="url(#paint3_linear_596_4513)"/>
<path d="M490.382 566.44C490.172 566.44 489.961 566.44 489.786 566.44L99.0401 557.984C91.8112 557.844 85.8807 554.897 82.3715 549.739C78.4062 543.95 77.8798 535.88 80.9328 527.565L227.476 124.787C233.301 108.823 250.496 96.0522 266.041 96.0522C266.252 96.0522 266.462 96.0522 266.638 96.0522L657.383 104.508C664.612 104.648 670.543 107.595 674.052 112.753C678.017 118.542 678.544 126.611 675.491 134.927L674.824 134.681L675.491 134.927L528.913 537.67C523.123 553.669 505.928 566.44 490.382 566.44ZM266.041 97.4557C251.022 97.4557 234.424 109.806 228.774 125.278L82.1961 528.021C79.3186 535.916 79.8098 543.529 83.4945 548.932C86.758 553.704 92.3025 556.405 99.0401 556.581L489.786 565.036C504.98 565.387 521.93 552.897 527.614 537.249L674.227 134.506C677.105 126.611 676.614 118.998 672.929 113.595C669.665 108.823 664.121 106.122 657.383 105.946L266.638 97.4557C266.427 97.4557 266.252 97.4557 266.041 97.4557Z" fill="url(#paint4_linear_596_4513)"/>
<path d="M472.026 582.965C470.938 582.965 469.885 582.895 468.832 582.789L80.2976 538.968C73.2441 538.161 67.6295 534.723 64.5414 529.284C60.9621 522.969 61.0673 514.514 64.8572 506.128L246.035 105.666C253.299 89.5615 271.968 77.9483 287.584 79.7026L676.084 123.489C683.137 124.296 688.752 127.734 691.84 133.172C695.419 139.488 695.314 147.943 691.524 156.329L690.892 156.048L691.524 156.329L510.381 556.791C503.608 571.808 486.905 582.965 472.026 582.965ZM284.356 80.9657C270.003 80.9657 253.896 91.7719 247.299 106.297L66.1907 506.725C62.5763 514.689 62.4359 522.688 65.8047 528.583C68.6822 533.635 73.8758 536.828 80.473 537.565L469.008 581.351C484.062 583.035 502.064 571.773 509.118 556.195L690.261 155.732C693.875 147.768 694.016 139.768 690.647 133.874C687.769 128.822 682.576 125.629 675.978 124.892L287.408 81.106C286.426 81.0008 285.408 80.9657 284.356 80.9657Z" fill="url(#paint5_linear_596_4513)"/>
<path d="M452.45 598.297C450.449 598.297 448.484 598.122 446.554 597.701L63.3183 517.812C56.4754 516.373 51.2116 512.444 48.5798 506.725C45.4215 499.883 46.2286 491.147 50.7905 482.726L266.183 87.7372C274.851 71.8787 294.432 61.5637 309.872 64.7915L693.108 144.681C699.951 146.119 705.215 150.049 707.847 155.767C711.005 162.609 710.198 171.345 705.636 179.766L490.278 574.755C482.663 588.649 466.662 598.297 452.45 598.297ZM303.942 65.6336C290.221 65.6336 274.781 74.9662 267.446 88.4389L52.0889 483.428C47.7376 491.428 46.9305 499.673 49.9132 506.128C52.3697 511.426 57.2474 515.075 63.6341 516.408L446.87 596.297C461.714 599.385 480.628 589.421 488.98 574.088L704.337 179.099L704.969 179.45L704.337 179.099C708.689 171.1 709.496 162.82 706.513 156.399C704.057 151.101 699.179 147.452 692.792 146.119L309.556 66.1949C307.732 65.809 305.872 65.6336 303.942 65.6336Z" fill="url(#paint6_linear_596_4513)"/>
<path d="M431.745 612.295C428.727 612.295 425.814 611.874 423.042 611.032L48.2632 494.549C41.666 492.479 36.8233 488.059 34.6125 482.059C31.9456 474.691 33.4896 465.709 38.8235 457.429L287.834 71.1061C297.835 55.5633 318.258 46.757 333.383 51.4584L708.197 167.906C714.794 169.976 719.637 174.397 721.847 180.396C724.514 187.764 722.97 196.746 717.636 205.026L468.661 591.349C460.415 604.085 445.255 612.295 431.745 612.295ZM324.61 51.6689C311.591 51.6689 296.958 59.6332 289.027 71.913L40.0868 458.236C34.9985 466.165 33.4896 474.656 36.0162 481.568C38.0515 487.111 42.5433 491.251 48.7194 493.146L423.533 609.594C438.061 614.12 457.748 605.559 467.398 590.543L716.373 204.219L717.005 204.605L716.373 204.219C721.461 196.29 722.97 187.799 720.444 180.888C718.408 175.344 713.917 171.204 707.741 169.31L332.927 52.8618C330.295 52.0548 327.487 51.6689 324.61 51.6689Z" fill="url(#paint7_linear_596_4513)"/>
<path d="M410.088 624.821C405.982 624.821 402.052 624.119 398.508 622.611L35.2742 469.324C28.9227 466.657 24.5011 461.745 22.8167 455.465C20.7112 447.641 22.9922 438.484 29.0981 430.379L310.814 55.9848C322.148 40.9332 343.274 33.7057 357.907 39.9157L721.141 193.203C727.492 195.869 731.914 200.781 733.598 207.062C735.704 214.886 733.423 224.043 727.317 232.148L445.601 606.542C437.003 617.909 422.826 624.821 410.088 624.821ZM346.292 39.1439C334.009 39.1439 320.324 45.8451 312.007 56.8619L30.2912 431.256C24.466 439.01 22.2552 447.676 24.2555 455.079C25.8346 460.868 29.9403 465.464 35.8357 467.955L399.069 621.242C413.141 627.172 433.459 620.19 444.408 605.63L726.124 231.235L726.72 231.691L726.124 231.235C731.949 223.482 734.16 214.815 732.159 207.413C730.58 201.623 726.474 197.027 720.579 194.536L357.345 41.249C353.942 39.8456 350.187 39.1439 346.292 39.1439Z" fill="url(#paint8_linear_596_4513)"/>
<path d="M387.557 635.733C382.293 635.733 377.275 634.61 372.994 632.26L24.534 442.203C18.4982 438.905 14.5329 433.502 13.3749 427.011C11.901 418.766 14.954 409.504 21.7969 401.68L335.06 42.5125C347.658 28.0574 369.345 22.549 383.416 30.2327L731.876 220.289C737.912 223.587 741.877 228.99 743.035 235.481C744.509 243.726 741.456 252.989 734.614 260.813L734.052 260.321L734.614 260.813L421.35 619.98C412.613 630.014 399.488 635.733 387.557 635.733ZM368.783 28.2328C357.308 28.2328 344.64 33.7763 336.183 43.4949L22.9198 402.697C16.3927 410.205 13.445 418.977 14.8487 426.766C15.9365 432.8 19.6212 437.817 25.2358 440.905L373.696 630.961C387.171 638.329 408.051 632.961 420.192 618.997L733.491 259.795C740.018 252.287 742.965 243.516 741.562 235.727C740.474 229.692 736.789 224.675 731.175 221.587L382.714 31.5308C378.609 29.3205 373.801 28.2328 368.783 28.2328Z" fill="url(#paint9_linear_596_4513)"/>
<path d="M364.36 644.925C357.868 644.925 351.727 643.311 346.744 639.908L16.1806 413.433C10.4958 409.539 7.0217 403.679 6.39005 396.908C5.61803 388.277 9.47811 379.05 16.9877 371.577L360.395 30.829C374.221 17.1107 396.328 13.3916 409.663 22.5489L740.262 249.024C745.947 252.918 749.421 258.778 750.052 265.549C750.824 274.18 746.964 283.407 739.455 290.881L396.048 631.628C387.345 640.259 375.379 644.925 364.36 644.925ZM392.012 19.0754C381.415 19.0754 369.834 23.6014 361.447 31.9517L18.0756 372.699C10.8818 379.822 7.19716 388.628 7.93408 396.803C8.49555 403.083 11.7591 408.556 17.0579 412.205L347.656 638.68C360.43 647.416 381.66 643.803 394.995 630.576L738.402 289.828L738.928 290.389L738.402 289.828C745.596 282.706 749.28 273.899 748.543 265.724C747.982 259.444 744.718 253.971 739.42 250.322L408.786 23.847C404.084 20.6192 398.223 19.0754 392.012 19.0754Z" fill="url(#paint10_linear_596_4513)"/>
<path d="M340.572 652.293C332.782 652.293 325.413 650.048 319.938 645.381L10.3599 383.12C5.02596 378.594 2.07826 372.278 2.04317 365.296C2.00807 356.385 6.67526 347.263 14.8165 340.245L386.613 21.1455C401.597 8.30433 423.95 6.4799 436.443 17.0756L746.021 279.373C751.355 283.899 754.303 290.214 754.338 297.196C754.373 306.108 749.706 315.23 741.565 322.212L369.769 641.312C361.382 648.574 350.608 652.293 340.572 652.293ZM415.844 11.7076C406.194 11.7076 395.807 15.3214 387.63 22.3384L15.8342 341.438C8.04384 348.14 3.5872 356.806 3.62229 365.296C3.65738 371.822 6.39453 377.716 11.3775 381.927L320.956 644.224C332.922 654.363 354.363 652.539 368.786 640.154L740.582 321.054L741.073 321.65L740.582 321.054C748.372 314.353 752.829 305.687 752.794 297.196C752.759 290.67 750.022 284.776 745.039 280.566L435.46 18.2685C430.267 13.8478 423.248 11.7076 415.844 11.7076Z" fill="url(#paint11_linear_596_4513)"/>
<path d="M316.362 657.731C307.203 657.731 298.606 654.678 292.78 648.644L7.23969 351.437C2.29177 346.314 -0.0944663 339.508 0.537183 332.315C1.3092 323.193 6.7484 314.247 15.416 307.826L413.601 13.5312C429.638 1.6724 452.097 1.81275 463.642 13.8119L749.182 311.019C754.13 316.141 756.517 322.948 755.885 330.14C755.113 339.262 749.674 348.209 741.006 354.63L740.55 353.998L741.006 354.63L342.821 648.924C334.855 654.819 325.345 657.731 316.362 657.731ZM440.06 6.30365C431.392 6.30365 422.198 9.14555 414.513 14.8294L16.3635 309.124C8.0468 315.264 2.85323 323.79 2.11631 332.456C1.55484 339.192 3.76562 345.543 8.39771 350.349L293.938 647.556C304.957 659.029 326.468 659.064 341.909 647.661L740.094 353.331C748.41 347.192 753.604 338.666 754.341 330C754.902 323.263 752.692 316.913 748.06 312.106L462.519 14.9346C456.974 9.18064 448.798 6.30365 440.06 6.30365Z" fill="url(#paint12_linear_596_4513)"/>
<path d="M291.801 661.169C281.274 661.169 271.378 657.205 265.412 649.521L6.85705 318.633C2.36532 312.879 0.575641 305.651 1.87403 298.283C3.48825 289.056 9.66438 280.425 18.7882 274.671L441.151 8.1636C458.171 -2.57247 480.559 -0.432271 491.017 12.9703L749.572 343.859C754.064 349.613 755.853 356.84 754.555 364.208C752.941 373.436 746.765 382.067 737.641 387.821L315.278 654.328C307.979 658.924 299.697 661.169 291.801 661.169ZM464.628 2.90082C457.013 2.90082 449.047 5.07611 441.994 9.49684L19.6655 276.004C10.8926 281.548 4.99719 289.757 3.45316 298.564C2.26004 305.476 3.90935 312.282 8.12035 317.65L266.676 648.539C276.642 661.31 298.048 663.275 314.4 652.959L736.728 386.452L737.149 387.119L736.728 386.452C745.501 380.909 751.397 372.699 752.941 363.892C754.134 356.981 752.484 350.174 748.273 344.806L489.753 13.9527C484.068 6.69003 474.664 2.90082 464.628 2.90082Z" fill="url(#paint13_linear_596_4513)"/>
<path d="M267.094 662.468C255.163 662.468 244.004 657.346 238.108 647.978L9.34577 284.916C5.31023 278.531 4.22239 270.882 6.22262 263.339C8.67903 254.111 15.557 245.901 25.0668 240.849L469.046 5.11168C486.943 -4.39641 509.051 -0.186188 518.315 14.5145L747.042 377.541C751.078 383.927 752.166 391.575 750.166 399.118C747.709 408.346 740.831 416.556 731.321 421.608L730.935 420.871L731.321 421.608L287.377 657.381C280.885 660.819 273.867 662.468 267.094 662.468ZM489.365 1.63824C482.837 1.63824 476.065 3.21708 469.818 6.55017L25.8739 242.288C16.7501 247.129 10.1529 254.953 7.83683 263.76C5.94188 270.847 6.99463 278.039 10.7845 284.039L239.512 647.066C248.32 661.065 269.48 665.029 286.64 655.907L730.585 420.17C739.708 415.328 746.306 407.504 748.622 398.697C750.517 391.61 749.464 384.418 745.674 378.418L516.947 15.3916C511.332 6.48 500.769 1.63824 489.365 1.63824Z" fill="url(#paint14_linear_596_4513)"/>
<path d="M242.317 661.591C228.947 661.591 216.595 655.135 210.98 643.943L14.783 250.533C11.2738 243.515 10.8878 235.446 13.6601 227.832C16.9587 218.71 24.5034 211.027 34.294 206.711L497.118 4.47995C515.822 -3.6949 537.473 2.62044 545.439 18.5842L741.636 411.96C745.146 418.977 745.532 427.046 742.759 434.66C739.461 443.782 731.916 451.465 722.125 455.781L721.81 455.009L722.125 455.781L259.302 658.012C253.757 660.433 247.932 661.591 242.317 661.591ZM514.137 2.55027C508.733 2.55027 503.118 3.63791 497.784 5.98862L34.9607 208.22C25.5561 212.325 18.3623 219.658 15.2041 228.359C12.5722 235.551 12.9582 243.165 16.2569 249.761L212.454 643.136C219.999 658.293 240.738 664.257 258.6 656.433L721.424 454.202C730.828 450.097 738.022 442.764 741.18 434.063C743.812 426.871 743.426 419.257 740.127 412.661L543.93 19.321C538.631 8.65509 526.875 2.55027 514.137 2.55027Z" fill="url(#paint15_linear_596_4513)"/>
<path d="M217.681 658.433C202.907 658.433 189.362 650.433 184.379 637.311L23.2027 215.693C20.2901 208.044 20.641 199.624 24.2204 191.94C28.3612 183.028 36.4673 175.941 46.4685 172.468L525.154 6.33915C544.489 -0.362119 565.544 8.05833 572.071 25.1448L733.247 446.764C736.16 454.412 735.809 462.833 732.229 470.516C728.089 479.428 719.983 486.515 709.981 489.989L709.701 489.182L709.981 489.989L231.261 656.117C226.769 657.696 222.172 658.433 217.681 658.433ZM538.769 5.70762C534.453 5.70762 530.031 6.40933 525.715 7.91799L46.9948 174.046C37.4148 177.38 29.6947 184.151 25.7293 192.642C22.3254 199.904 22.0096 207.904 24.7467 215.096L185.923 636.715C192.134 652.959 212.241 660.959 230.735 654.538L709.42 488.41C718.965 485.077 726.72 478.305 730.686 469.85C734.089 462.587 734.405 454.588 731.668 447.395L570.492 25.7764C565.72 13.3211 552.841 5.70762 538.769 5.70762Z" fill="url(#paint16_linear_596_4513)"/>
<path d="M193.336 652.995C177.159 652.995 162.561 643.171 158.42 628.154L34.6164 180.678C32.3355 172.433 33.5286 163.661 37.9501 155.978C42.898 147.417 51.4955 141.031 61.5668 138.4L552.885 10.795C572.747 5.63747 592.995 16.1981 598.013 34.3372L721.816 481.849C724.097 490.094 722.904 498.865 718.482 506.549C713.535 515.11 704.937 521.495 694.866 524.127L694.655 523.285L694.866 524.127L203.513 651.696C200.109 652.574 196.705 652.995 193.336 652.995ZM563.097 11.1809C559.868 11.1809 556.605 11.602 553.341 12.444L61.9879 140.049C52.3377 142.54 44.1263 148.68 39.424 156.82C35.213 164.082 34.1251 172.397 36.2657 180.221L160.034 627.698C164.806 644.925 184.142 654.959 203.091 650.012L694.445 522.407C704.095 519.916 712.306 513.776 717.009 505.637C721.22 498.374 722.307 490.059 720.167 482.27L596.364 34.7582C592.433 20.5136 578.537 11.1809 563.097 11.1809Z" fill="url(#paint17_linear_596_4513)"/>
<path d="M169.467 645.241C151.851 645.241 136.341 633.382 133.323 616.436L49.0329 145.733C47.4537 136.891 49.4891 127.839 54.7879 120.261C60.5429 112.051 69.3509 106.543 79.5626 104.753L580.145 17.8473C600.393 14.3388 619.658 26.9695 623.062 46.0558L707.387 516.759C708.967 525.6 706.931 534.652 701.632 542.231C695.877 550.441 687.069 555.949 676.858 557.739L176.275 644.645C173.994 645.03 171.713 645.241 169.467 645.241ZM586.953 19.0051C584.812 19.0051 582.637 19.1806 580.461 19.5665L79.8433 106.473C70.0879 108.157 61.6659 113.419 56.1916 121.279C51.1735 128.471 49.2083 137.032 50.7173 145.452L135.043 616.12C138.306 634.259 156.659 646.294 175.959 642.925L676.542 556.019L676.682 556.861L676.542 556.019C686.297 554.335 694.719 549.072 700.194 541.213C705.212 534.021 707.177 525.46 705.668 517.04L621.378 46.3716C618.5 30.2675 603.727 19.0051 586.953 19.0051Z" fill="url(#paint18_linear_596_4513)"/>
<path d="M146.305 635.101C137.603 635.101 129.251 632.189 122.513 626.681C114.898 620.471 110.231 611.77 109.389 602.121L66.4369 111.139C65.5947 101.49 68.6827 92.0875 75.1045 84.6845C81.5263 77.2815 90.5448 72.6854 100.441 71.8433L606.708 27.5307C616.639 26.6536 626.289 29.6007 633.904 35.7757C641.519 41.9858 646.186 50.6869 647.028 60.3354L689.981 551.318C691.735 571.211 676.47 588.859 655.977 590.648L149.709 634.961C148.551 635.031 147.428 635.101 146.305 635.101ZM610.112 29.1446C609.024 29.1446 607.936 29.1797 606.848 29.285L100.581 73.5625C91.1063 74.4045 82.5439 78.7551 76.4029 85.8072C70.297 92.8594 67.3493 101.806 68.1564 110.963L111.109 601.946C111.916 611.103 116.337 619.383 123.601 625.277C130.865 631.172 140.059 633.978 149.534 633.136L655.801 588.859C675.312 587.14 689.875 570.369 688.191 551.458L645.274 60.5108C644.467 51.3536 640.045 43.0734 632.781 37.1791C626.359 31.9514 618.429 29.1446 610.112 29.1446Z" fill="url(#paint19_linear_596_4513)"/>
<path d="M632.289 622.611H124.091C103.528 622.611 86.7891 605.875 86.7891 585.315V77.1764C86.7891 56.6165 103.528 39.8809 124.091 39.8809H632.289C652.852 39.8809 669.591 56.6165 669.591 77.1764V585.28C669.626 605.875 652.888 622.611 632.289 622.611ZM124.091 41.6702C104.51 41.6702 88.5436 57.5989 88.5436 77.2115V585.315C88.5436 604.893 104.475 620.857 124.091 620.857H632.289C651.87 620.857 667.837 604.928 667.837 585.315V77.1764C667.837 57.5989 651.905 41.6351 632.289 41.6351H124.091V41.6702Z" fill="url(#paint20_linear_596_4513)"/>
</g>
<defs>
<linearGradient id="paint0_linear_596_4513" x1="160.438" y1="331.242" x2="595.986" y2="331.242" gradientUnits="userSpaceOnUse">
<stop stop-color="#83A4D4"/>
<stop offset="0.9543" stop-color="#B4F7FD"/>
<stop offset="0.9994" stop-color="#B6FBFF"/>
</linearGradient>
<linearGradient id="paint1_linear_596_4513" x1="138.411" y1="331.242" x2="618.01" y2="331.242" gradientUnits="userSpaceOnUse">
<stop stop-color="#83A4D4"/>
<stop offset="0.9543" stop-color="#B4F7FD"/>
<stop offset="0.9994" stop-color="#B6FBFF"/>
</linearGradient>
<linearGradient id="paint2_linear_596_4513" x1="117.34" y1="331.242" x2="639.07" y2="331.242" gradientUnits="userSpaceOnUse">
<stop stop-color="#83A4D4"/>
<stop offset="0.9543" stop-color="#B4F7FD"/>
<stop offset="0.9994" stop-color="#B6FBFF"/>
</linearGradient>
<linearGradient id="paint3_linear_596_4513" x1="97.4641" y1="331.242" x2="658.941" y2="331.242" gradientUnits="userSpaceOnUse">
<stop stop-color="#83A4D4"/>
<stop offset="0.9543" stop-color="#B4F7FD"/>
<stop offset="0.9994" stop-color="#B6FBFF"/>
</linearGradient>
<linearGradient id="paint4_linear_596_4513" x1="78.9343" y1="331.242" x2="677.483" y2="331.242" gradientUnits="userSpaceOnUse">
<stop stop-color="#83A4D4"/>
<stop offset="0.9543" stop-color="#B4F7FD"/>
<stop offset="0.9994" stop-color="#B6FBFF"/>
</linearGradient>
<linearGradient id="paint5_linear_596_4513" x1="61.9422" y1="331.243" x2="694.469" y2="331.243" gradientUnits="userSpaceOnUse">
<stop stop-color="#83A4D4"/>
<stop offset="0.9543" stop-color="#B4F7FD"/>
<stop offset="0.9994" stop-color="#B6FBFF"/>
</linearGradient>
<linearGradient id="paint6_linear_596_4513" x1="46.6887" y1="331.242" x2="709.732" y2="331.242" gradientUnits="userSpaceOnUse">
<stop stop-color="#83A4D4"/>
<stop offset="0.9543" stop-color="#B4F7FD"/>
<stop offset="0.9994" stop-color="#B6FBFF"/>
</linearGradient>
<linearGradient id="paint7_linear_596_4513" x1="33.3356" y1="331.24" x2="723.084" y2="331.24" gradientUnits="userSpaceOnUse">
<stop stop-color="#83A4D4"/>
<stop offset="0.9543" stop-color="#B4F7FD"/>
<stop offset="0.9994" stop-color="#B6FBFF"/>
</linearGradient>
<linearGradient id="paint8_linear_596_4513" x1="22.0482" y1="331.242" x2="734.362" y2="331.242" gradientUnits="userSpaceOnUse">
<stop stop-color="#83A4D4"/>
<stop offset="0.9543" stop-color="#B4F7FD"/>
<stop offset="0.9994" stop-color="#B6FBFF"/>
</linearGradient>
<linearGradient id="paint9_linear_596_4513" x1="12.9846" y1="331.242" x2="743.42" y2="331.242" gradientUnits="userSpaceOnUse">
<stop stop-color="#83A4D4"/>
<stop offset="0.9543" stop-color="#B4F7FD"/>
<stop offset="0.9994" stop-color="#B6FBFF"/>
</linearGradient>
<linearGradient id="paint10_linear_596_4513" x1="6.28126" y1="331.242" x2="750.121" y2="331.242" gradientUnits="userSpaceOnUse">
<stop stop-color="#83A4D4"/>
<stop offset="0.9543" stop-color="#B4F7FD"/>
<stop offset="0.9994" stop-color="#B6FBFF"/>
</linearGradient>
<linearGradient id="paint11_linear_596_4513" x1="2.06387" y1="331.242" x2="754.347" y2="331.242" gradientUnits="userSpaceOnUse">
<stop stop-color="#83A4D4"/>
<stop offset="0.9543" stop-color="#B4F7FD"/>
<stop offset="0.9994" stop-color="#B6FBFF"/>
</linearGradient>
<linearGradient id="paint12_linear_596_4513" x1="0.431909" y1="331.241" x2="755.985" y2="331.241" gradientUnits="userSpaceOnUse">
<stop stop-color="#83A4D4"/>
<stop offset="0.9543" stop-color="#B4F7FD"/>
<stop offset="0.9994" stop-color="#B6FBFF"/>
</linearGradient>
<linearGradient id="paint13_linear_596_4513" x1="1.47715" y1="331.241" x2="754.947" y2="331.241" gradientUnits="userSpaceOnUse">
<stop stop-color="#83A4D4"/>
<stop offset="0.9543" stop-color="#B4F7FD"/>
<stop offset="0.9994" stop-color="#B6FBFF"/>
</linearGradient>
<linearGradient id="paint14_linear_596_4513" x1="5.26075" y1="331.242" x2="751.157" y2="331.242" gradientUnits="userSpaceOnUse">
<stop stop-color="#83A4D4"/>
<stop offset="0.9543" stop-color="#B4F7FD"/>
<stop offset="0.9994" stop-color="#B6FBFF"/>
</linearGradient>
<linearGradient id="paint15_linear_596_4513" x1="11.8378" y1="331.242" x2="744.576" y2="331.242" gradientUnits="userSpaceOnUse">
<stop stop-color="#83A4D4"/>
<stop offset="0.9543" stop-color="#B4F7FD"/>
<stop offset="0.9994" stop-color="#B6FBFF"/>
</linearGradient>
<linearGradient id="paint16_linear_596_4513" x1="21.2344" y1="331.241" x2="735.176" y2="331.241" gradientUnits="userSpaceOnUse">
<stop stop-color="#83A4D4"/>
<stop offset="0.9543" stop-color="#B4F7FD"/>
<stop offset="0.9994" stop-color="#B6FBFF"/>
</linearGradient>
<linearGradient id="paint17_linear_596_4513" x1="33.4679" y1="331.242" x2="722.96" y2="331.242" gradientUnits="userSpaceOnUse">
<stop stop-color="#83A4D4"/>
<stop offset="0.9543" stop-color="#B4F7FD"/>
<stop offset="0.9994" stop-color="#B6FBFF"/>
</linearGradient>
<linearGradient id="paint18_linear_596_4513" x1="48.4939" y1="331.242" x2="707.921" y2="331.242" gradientUnits="userSpaceOnUse">
<stop stop-color="#83A4D4"/>
<stop offset="0.9543" stop-color="#B4F7FD"/>
<stop offset="0.9994" stop-color="#B6FBFF"/>
</linearGradient>
<linearGradient id="paint19_linear_596_4513" x1="66.2912" y1="331.242" x2="690.12" y2="331.242" gradientUnits="userSpaceOnUse">
<stop stop-color="#83A4D4"/>
<stop offset="0.9543" stop-color="#B4F7FD"/>
<stop offset="0.9994" stop-color="#B6FBFF"/>
</linearGradient>
<linearGradient id="paint20_linear_596_4513" x1="86.787" y1="331.242" x2="669.623" y2="331.242" gradientUnits="userSpaceOnUse">
<stop stop-color="#83A4D4"/>
<stop offset="0.9543" stop-color="#B4F7FD"/>
<stop offset="0.9994" stop-color="#B6FBFF"/>
</linearGradient>
<clipPath id="clip0_596_4513">
<rect width="755.558" height="662.444" fill="white" transform="translate(0.429688 0.0239258)"/>
</clipPath>
</defs>
</svg>
