<svg width="322" height="321" viewBox="0 0 322 321" fill="none" xmlns="http://www.w3.org/2000/svg">
<path d="M175.199 224.993C157.581 224.993 138.76 219.753 122.171 209.068C101.942 196.04 88.5027 177.218 85.3052 157.431C82.9309 142.757 86.3975 129.143 95.3251 118.062C116.869 91.3251 163.96 88.6182 200.304 112.015C220.534 125.043 233.973 143.865 237.17 163.652C239.545 178.327 236.078 191.94 227.15 203.021C215.437 217.569 196.173 224.993 175.199 224.993ZM147.261 96.6915C126.461 96.6915 107.371 104.052 95.7683 118.442C86.9515 129.396 83.5165 142.836 85.8593 157.352C89.0251 176.981 102.369 195.644 122.472 208.593C158.563 231.832 205.322 229.188 226.691 202.673C235.508 191.719 238.943 178.279 236.6 163.763C233.435 144.134 220.091 125.47 199.988 112.521C183.494 101.9 164.768 96.6915 147.261 96.6915Z" fill="url(#paint0_linear_597_6411)"/>
<path d="M169.371 228.254C157.103 228.254 144.345 225.737 132.109 220.418C110.502 211.031 93.9607 194.394 86.6951 174.733C80.9649 159.235 81.5664 142.962 88.4046 128.905C104.455 95.9156 150.17 83.2516 190.329 100.696C211.92 110.083 228.477 126.721 235.743 146.381C241.473 161.879 240.871 178.152 234.033 192.209C222.873 215.147 197.373 228.254 169.371 228.254ZM88.6737 129.048L88.9428 129.174C82.1838 143.073 81.5822 159.172 87.2649 174.511C94.4672 194.014 110.914 210.524 132.362 219.848C172.22 237.15 217.586 224.629 233.495 191.924C240.254 178.026 240.855 161.926 235.173 146.587C227.97 127.085 211.524 110.574 190.075 101.25C150.233 83.9481 104.851 96.4696 88.9428 129.174L88.6737 129.048Z" fill="url(#paint1_linear_597_6411)"/>
<path d="M164.613 232.906C157.854 232.906 150.968 232.115 144.067 230.452C122.159 225.181 103.243 211.726 92.163 193.521C82.4439 177.565 79.4363 159.249 83.6944 141.916L83.9951 141.995L83.6944 141.916C93.1602 103.37 135.63 80.3845 178.384 90.674C200.292 95.9454 219.208 109.401 230.288 127.605C240.007 143.562 242.999 161.877 238.757 179.211C230.826 211.52 199.675 232.89 164.613 232.906ZM157.838 88.8377C123.062 88.8377 92.1788 110.018 84.3117 142.058C80.1011 159.218 83.077 177.39 92.7012 193.189C103.702 211.251 122.476 224.595 144.225 229.835C186.631 240.03 228.769 217.25 238.155 179.053C242.366 161.893 239.39 143.72 229.766 127.922C218.765 109.86 199.991 96.5153 178.242 91.2755C171.388 89.6292 164.534 88.8377 157.838 88.8377Z" fill="url(#paint2_linear_597_6411)"/>
<path d="M161.702 238.764C160.372 238.764 159.042 238.732 157.713 238.669C113.771 236.563 79.6117 199.806 81.5429 156.733C82.4609 136.154 91.4203 117.126 106.775 103.133C122.572 88.7433 143.15 81.3824 164.725 82.4114C208.667 84.5167 242.826 121.274 240.895 164.347C239.977 184.926 231.018 203.954 215.663 217.947C200.863 231.466 181.821 238.764 161.702 238.764ZM160.736 82.9971C140.776 82.9971 121.907 90.2472 107.218 103.639C92.0059 117.506 83.1099 136.376 82.2077 156.78C80.2923 199.49 114.183 235.946 157.744 238.02C179.146 239.049 199.565 231.751 215.22 217.472C230.432 203.605 239.328 184.736 240.23 164.331C242.146 121.622 208.255 85.1658 164.693 83.0921C163.38 83.0287 162.05 82.9971 160.736 82.9971Z" fill="url(#paint3_linear_597_6411)"/>
<path d="M160.882 245.556C144.689 245.556 128.876 240.3 115.421 230.296C97.2175 216.761 85.4406 196.42 82.2589 173.007C75.9431 126.657 106.224 83.3622 149.754 76.492C169.968 73.3101 190.293 78.3916 207.009 90.8181C225.212 104.353 236.989 124.694 240.171 148.107C246.487 194.457 216.205 237.752 172.675 244.622C168.734 245.239 164.792 245.556 160.882 245.556ZM161.531 76.2545C157.653 76.2545 153.743 76.5553 149.849 77.1726C106.683 83.9795 76.6712 126.942 82.9237 172.912C86.0896 196.135 97.7715 216.318 115.817 229.742C132.374 242.057 152.525 247.107 172.548 243.941C215.715 237.134 245.727 194.172 239.474 148.202C236.308 124.979 224.626 104.796 206.581 91.3721C193.253 81.4467 177.582 76.2545 161.531 76.2545Z" fill="url(#paint4_linear_597_6411)"/>
<path d="M162.891 252.774C152.412 252.774 141.901 250.383 131.976 245.65C110.638 235.456 93.907 215.241 86.0874 190.214C71.0497 142.091 92.514 89.6145 133.923 73.2622C152.269 66.0121 172.356 66.8036 190.497 75.4784C211.834 85.6729 228.566 105.888 236.385 130.915C251.423 179.038 229.959 231.514 188.55 247.867C180.223 251.143 171.565 252.774 162.891 252.774ZM159.566 69.0514C150.971 69.0514 142.408 70.6661 134.176 73.9112C93.0997 90.1369 71.8253 142.202 86.7522 189.976C94.5085 214.814 111.097 234.87 132.261 244.985C150.211 253.565 170.109 254.341 188.249 247.186C229.326 230.96 250.6 178.895 235.673 131.121C227.917 106.283 211.328 86.2269 190.164 76.1116C180.35 71.4101 169.95 69.0514 159.566 69.0514Z" fill="url(#paint5_linear_597_6411)"/>
<path d="M167.075 259.976C161.519 259.976 155.9 259.264 150.312 257.823C126.727 251.76 105.864 233.509 93.074 207.753C69.1403 159.535 80.1891 99.1281 117.72 73.0879C133.85 61.8961 153.162 58.4135 172.109 63.2891C195.695 69.352 216.557 87.6039 229.347 113.359C253.281 161.577 242.232 221.984 204.701 248.025C193.32 255.908 180.372 259.976 167.075 259.976ZM93.7547 207.421C106.45 232.986 127.123 251.08 150.502 257.095C169.228 261.907 188.318 258.472 204.274 247.407C241.504 221.573 252.458 161.593 228.683 113.692C215.988 88.1263 195.315 70.0327 171.935 64.0173C153.209 59.205 134.119 62.6401 118.163 73.7052C80.9172 99.5397 69.9793 159.519 93.7547 207.421Z" fill="url(#paint6_linear_597_6411)"/>
<path d="M173.222 266.72C171.988 266.72 170.737 266.689 169.487 266.61C145.031 265.169 120.907 250.02 103.337 225.024C70.6494 178.563 69.9688 111.824 101.833 76.2703C115.43 61.0894 133.602 53.3485 152.977 54.5041C177.433 55.9446 201.557 71.0939 219.127 96.0894C251.814 142.566 252.495 209.289 220.631 244.843C207.888 259.043 191.173 266.72 173.222 266.72ZM149.225 55.169C131.481 55.169 114.971 62.7673 102.403 76.7927C70.7761 112.093 71.4725 178.389 103.97 224.581C121.414 249.371 145.3 264.409 169.534 265.834C188.656 266.958 206.606 259.312 220.045 244.321C251.672 209.02 250.975 142.724 218.478 96.5326C201.034 71.7429 177.148 56.7045 152.929 55.2798C151.679 55.2006 150.46 55.169 149.225 55.169Z" fill="url(#paint7_linear_597_6411)"/>
<path d="M180.645 272.625C158.895 272.625 136.006 261.528 116.679 241.329C75.7448 198.541 62.3374 127.496 86.8252 82.9662C97.4465 63.6378 114.115 51.5754 133.743 49.011C157.803 45.8608 184.064 57.0684 205.781 79.7844C246.731 122.573 260.123 193.618 235.635 238.147C225.014 257.476 208.346 269.538 188.718 272.102C186.058 272.451 183.351 272.625 180.645 272.625ZM141.832 49.2959C139.156 49.2959 136.497 49.47 133.854 49.8183C114.495 52.3511 98.048 64.271 87.5375 83.362C63.2081 127.607 76.552 198.208 117.265 240.775C138.808 263.301 164.815 274.414 188.607 271.295C207.966 268.762 224.412 256.842 234.923 237.751C259.252 193.507 245.908 122.905 205.196 80.3384C186.042 60.3135 163.343 49.2959 141.832 49.2959Z" fill="url(#paint8_linear_597_6411)"/>
<path d="M188.828 277.388C170.751 277.388 151.187 270.011 132.888 255.954C84.5299 218.801 57.8419 145.793 73.3703 93.2219C80.351 69.5878 95.0721 53.0297 114.795 46.6186C137.431 39.2735 164.689 46.017 189.572 65.1554C237.93 102.308 264.618 175.316 249.09 227.887C242.109 251.521 227.388 268.08 207.665 274.491C201.65 276.438 195.334 277.388 188.828 277.388ZM133.616 44.5607C127.189 44.5607 120.953 45.5105 115.049 47.4259C95.5945 53.742 81.0633 70.0944 74.1618 93.4594C58.7125 145.73 85.2897 218.326 133.379 255.289C158.041 274.253 185.013 280.949 207.38 273.683C226.834 267.367 241.365 251.015 248.267 227.65C263.716 175.379 237.139 102.783 189.05 65.8203C170.91 51.8741 151.503 44.5607 133.616 44.5607Z" fill="url(#paint9_linear_597_6411)"/>
<path d="M196.794 280.982C182.595 280.982 167.209 276.708 151.57 268.207C97.0223 238.589 56.8954 166.247 62.1032 106.932C64.5567 78.9761 76.7135 57.7798 96.31 47.2528C117.11 36.0769 143.592 38.0873 170.865 52.9041C225.413 82.522 265.555 154.865 260.332 214.164C257.878 242.12 245.721 263.316 226.125 273.843C217.261 278.608 207.352 280.982 196.794 280.982ZM125.641 41.0158C115.226 41.0158 105.459 43.3428 96.7215 48.0443C77.41 58.413 65.4273 79.3718 62.9896 107.011C57.7976 165.993 97.7346 237.956 151.997 267.416C179.002 282.074 205.183 284.085 225.713 273.051C245.041 262.667 257.024 241.724 259.461 214.069C264.653 155.086 224.716 83.1235 170.454 53.664C154.941 45.2583 139.698 41.0158 125.641 41.0158Z" fill="url(#paint10_linear_597_6411)"/>
<path d="M204.202 283.104C194.167 283.104 183.435 281.205 172.275 277.389C113.074 257.095 59.8721 188.251 53.6829 123.902C50.612 91.9258 59.3814 66.0597 78.408 51.0371C96.5799 36.6951 122.065 34.099 150.162 43.7236C209.363 64.0176 262.565 132.862 268.754 197.211C271.825 229.187 263.055 255.053 244.029 270.076C233.059 278.735 219.446 283.104 204.202 283.104ZM118.218 38.9271C103.181 38.9271 89.7575 43.2329 78.962 51.7494C60.1887 66.5662 51.5301 92.1633 54.5851 123.807C60.7427 187.824 113.675 256.336 172.56 276.519C200.356 286.048 225.524 283.5 243.443 269.364C262.216 254.547 270.875 228.95 267.836 197.306C261.678 133.289 208.745 64.7774 149.861 44.5943C138.796 40.7951 128.159 38.9271 118.218 38.9271Z" fill="url(#paint11_linear_597_6411)"/>
<path d="M209.62 284.085C204.698 284.085 199.601 283.689 194.361 282.897C132.374 273.526 66.9997 211.093 48.6537 143.736C39.1879 109.021 43.7941 77.8521 61.2854 58.2071C76.513 41.1107 100.241 34.0031 128.1 38.2139C190.087 47.5852 255.462 110.019 273.824 177.391C283.289 212.106 278.683 243.275 261.192 262.92C248.813 276.787 230.847 284.085 209.62 284.085ZM112.841 37.9764C91.8832 37.9764 74.1703 45.1632 61.9977 58.8245C44.7281 78.232 40.2009 109.085 49.5718 143.483C67.8386 210.523 132.849 272.64 194.504 281.963C222.031 286.127 245.458 279.13 260.448 262.287C277.718 242.895 282.245 212.043 272.874 177.644C254.607 110.604 189.597 48.4875 127.942 39.1637C122.75 38.3722 117.701 37.9764 112.841 37.9764Z" fill="url(#paint12_linear_597_6411)"/>
<path d="M212.2 284.306C150.53 284.306 77.5255 232.241 47.4501 165.929C30.8295 129.267 30.0063 94.0138 45.2023 69.2083C57.2167 49.595 78.5702 38.1183 105.322 36.8994C167.958 34.0341 244.064 87.0961 274.947 155.165C291.568 191.827 292.391 227.08 277.195 251.886C265.18 271.499 243.827 282.976 217.075 284.195C215.477 284.274 213.846 284.306 212.2 284.306ZM217.044 283.198L217.06 283.704L217.044 283.198C243.463 281.994 264.515 270.692 276.356 251.363C291.378 226.843 290.539 191.938 274.045 155.576C243.32 87.8401 167.673 35.0473 105.385 37.8966C78.9659 39.0997 57.9132 50.4023 46.0729 69.7307C31.0511 94.2513 31.89 129.156 48.384 165.518C79.0926 233.254 154.756 286.047 217.044 283.198Z" fill="url(#paint13_linear_597_6411)"/>
<path d="M211.428 284.369C154.633 284.369 87.4858 246.361 50.5564 189.864C26.4644 153.012 19.2779 114.672 30.8174 84.6584C39.4285 62.2907 57.3787 46.9198 82.7529 40.2395C143.727 24.188 228.571 65.0134 271.864 131.262C295.956 168.114 303.142 206.454 291.603 236.468C282.992 258.835 265.042 274.206 239.652 280.886C230.708 283.229 221.211 284.369 211.428 284.369ZM111.055 37.7859C101.336 37.7859 91.9338 38.9098 83.022 41.2527C57.9802 47.8379 40.2674 62.9872 31.783 85.0225C20.3701 114.719 27.5249 152.727 51.427 189.279C94.4981 255.163 178.82 295.798 239.398 279.857C264.44 273.272 282.153 258.123 290.637 236.088C302.066 206.391 294.895 168.383 270.993 131.832C234.254 75.6036 167.486 37.7859 111.055 37.7859Z" fill="url(#paint14_linear_597_6411)"/>
<path d="M206.709 284.971C156.009 284.971 97.8048 259.073 58.1686 214.734C26.9534 179.829 12.6755 139.874 18.9755 105.095C23.4868 80.179 38.0972 60.5974 61.2236 48.4716C118.034 18.6797 209.131 44.6566 264.296 106.362C295.495 141.267 309.773 181.237 303.473 216C298.962 240.916 284.352 260.498 261.225 272.624L260.972 272.149L261.225 272.624C245.238 281.014 226.543 284.971 206.709 284.971ZM115.787 37.2007C96.1111 37.2007 77.5751 41.1265 61.7301 49.4373C38.9203 61.4047 24.4999 80.7173 20.0519 105.301C13.8152 139.731 27.9982 179.369 58.9758 214.021C98.4063 258.139 156.294 283.91 206.678 283.91C226.353 283.91 244.889 279.985 260.734 271.674C283.544 259.706 297.965 240.394 302.428 215.826C308.665 181.396 294.482 141.758 263.505 107.106C224.042 62.9719 166.171 37.2007 115.787 37.2007Z" fill="url(#paint15_linear_597_6411)"/>
<path d="M197.892 287.061C155.154 287.061 108.093 270.852 70.3567 239.714C33.1265 208.988 11.4881 169.366 10.9973 131.01C10.6333 103.45 21.2388 79.4992 41.6584 61.738C91.7578 18.1581 186.163 26.9754 252.107 81.3988C289.337 112.125 310.976 151.747 311.482 190.087C311.846 217.647 301.241 241.598 280.821 259.359C259.373 278.007 229.836 287.061 197.892 287.061ZM124.572 35.1595C92.8974 35.1595 63.6293 44.1192 42.4024 62.5928C22.2361 80.1324 11.773 103.782 12.1212 130.994C12.6119 169.002 34.1079 208.307 71.0849 238.828C136.618 292.903 230.358 301.736 280.061 258.504L280.441 258.932L280.061 258.504C300.212 240.98 310.691 217.315 310.327 190.103C309.836 152.095 288.34 112.79 251.363 82.2694C213.848 51.2902 167.041 35.1595 124.572 35.1595Z" fill="url(#paint16_linear_597_6411)"/>
<path d="M186.431 291.477C153.506 291.477 118.619 282.454 87.1028 263.838C45.5513 239.286 16.9163 202.275 8.51102 162.321C2.29016 132.639 8.13112 103.401 24.9575 79.9573C65.8443 23.0486 160.218 12.8858 235.359 57.273C276.91 81.8252 305.545 118.836 313.951 158.79C320.187 188.456 314.346 217.694 297.504 241.138L297.029 240.79L297.504 241.138C273.76 274.191 231.987 291.477 186.431 291.477ZM135.999 30.8053C90.8069 30.8053 49.4294 47.9175 25.9073 80.6538C9.03338 104.145 3.41403 132.307 9.66655 162.067C17.9927 201.705 46.4377 238.431 87.7043 262.825C119.03 281.346 153.744 290.321 186.447 290.321C231.639 290.321 273.016 273.209 296.523 240.473C313.412 216.981 319.032 188.82 312.779 159.06C304.453 119.421 276.008 82.6959 234.741 58.3019C203.416 39.7809 168.718 30.8053 135.999 30.8053Z" fill="url(#paint17_linear_597_6411)"/>
<path d="M175.032 298.695C153.029 298.695 130.283 294.642 108.138 286.078C64.3544 269.156 29.7676 237.037 13.2103 197.985C-0.149503 166.452 -0.561062 132.655 12.0548 102.831C41.3387 33.6383 132.056 3.21309 214.304 35.0155C258.088 51.9377 292.674 84.0566 309.232 123.109C322.591 154.642 323.003 188.439 310.387 218.263C289.002 268.84 234.787 298.695 175.032 298.695ZM147.394 23.6337C88.1298 23.6337 34.3897 53.2199 13.1787 103.338C0.689442 132.845 1.101 166.293 14.3342 197.526C30.749 236.277 65.0983 268.143 108.565 284.939C190.196 316.504 280.217 286.379 309.232 217.772C321.721 188.265 321.309 154.817 308.076 123.584C291.661 84.8323 257.312 52.9666 213.845 36.171C191.858 27.6545 169.254 23.6337 147.394 23.6337Z" fill="url(#paint18_linear_597_6411)"/>
<path d="M166.247 308.701C155.325 308.701 144.229 307.656 133.053 305.488C90.9951 297.32 54.398 274.556 29.9736 241.424C5.54921 208.26 -3.77417 168.67 3.76051 129.949C19.2889 50.0399 102.566 -1.24914 189.389 15.6256C276.212 32.5003 334.226 111.254 318.682 191.164L318.049 191.037L318.682 191.164C305.164 260.8 240.185 308.701 166.247 308.701ZM156.211 13.6943C82.8747 13.6943 18.4342 61.1683 5.02685 130.187C-2.42869 168.559 6.79972 207.785 31.0183 240.648C55.237 273.527 91.5649 296.101 133.306 304.221C144.387 306.374 155.42 307.419 166.247 307.419C239.583 307.419 304.024 259.945 317.431 190.926C332.833 111.713 275.278 33.6401 189.152 16.892C178.071 14.7391 167.038 13.6943 156.211 13.6943Z" fill="url(#paint19_linear_597_6411)"/>
<path d="M161.222 321.001C72.7526 321.001 0.777344 249.022 0.777344 160.548C0.777344 72.0748 72.7526 0.111816 161.222 0.111816C249.691 0.111816 321.666 72.0906 321.666 160.564C321.666 249.038 249.691 321.001 161.222 321.001ZM161.222 1.44153C73.4966 1.44153 2.12282 72.8188 2.12282 160.548C2.12282 248.278 73.4966 319.655 161.222 319.655C248.947 319.655 320.321 248.278 320.321 160.548C320.321 72.8188 248.947 1.44153 161.222 1.44153Z" fill="url(#paint20_linear_597_6411)"/>
<defs>
<linearGradient id="paint0_linear_597_6411" x1="84.5735" y1="160.556" x2="237.895" y2="160.556" gradientUnits="userSpaceOnUse">
<stop stop-color="#83A4D4"/>
<stop offset="0.9543" stop-color="#B4F7FD"/>
<stop offset="0.9994" stop-color="#B6FBFF"/>
</linearGradient>
<linearGradient id="paint1_linear_597_6411" x1="82.7916" y1="160.556" x2="239.639" y2="160.556" gradientUnits="userSpaceOnUse">
<stop stop-color="#83A4D4"/>
<stop offset="0.9543" stop-color="#B4F7FD"/>
<stop offset="0.9994" stop-color="#B6FBFF"/>
</linearGradient>
<linearGradient id="paint2_linear_597_6411" x1="81.8048" y1="160.554" x2="240.639" y2="160.554" gradientUnits="userSpaceOnUse">
<stop stop-color="#83A4D4"/>
<stop offset="0.9543" stop-color="#B4F7FD"/>
<stop offset="0.9994" stop-color="#B6FBFF"/>
</linearGradient>
<linearGradient id="paint3_linear_597_6411" x1="81.4656" y1="160.554" x2="240.982" y2="160.554" gradientUnits="userSpaceOnUse">
<stop stop-color="#83A4D4"/>
<stop offset="0.9543" stop-color="#B4F7FD"/>
<stop offset="0.9994" stop-color="#B6FBFF"/>
</linearGradient>
<linearGradient id="paint4_linear_597_6411" x1="81.42" y1="160.555" x2="241.003" y2="160.555" gradientUnits="userSpaceOnUse">
<stop stop-color="#83A4D4"/>
<stop offset="0.9543" stop-color="#B4F7FD"/>
<stop offset="0.9994" stop-color="#B6FBFF"/>
</linearGradient>
<linearGradient id="paint5_linear_597_6411" x1="81.2731" y1="160.555" x2="241.177" y2="160.555" gradientUnits="userSpaceOnUse">
<stop stop-color="#83A4D4"/>
<stop offset="0.9543" stop-color="#B4F7FD"/>
<stop offset="0.9994" stop-color="#B6FBFF"/>
</linearGradient>
<linearGradient id="paint6_linear_597_6411" x1="80.4392" y1="160.555" x2="241.991" y2="160.555" gradientUnits="userSpaceOnUse">
<stop stop-color="#83A4D4"/>
<stop offset="0.9543" stop-color="#B4F7FD"/>
<stop offset="0.9994" stop-color="#B6FBFF"/>
</linearGradient>
<linearGradient id="paint7_linear_597_6411" x1="78.3627" y1="160.555" x2="244.079" y2="160.555" gradientUnits="userSpaceOnUse">
<stop stop-color="#83A4D4"/>
<stop offset="0.9543" stop-color="#B4F7FD"/>
<stop offset="0.9994" stop-color="#B6FBFF"/>
</linearGradient>
<linearGradient id="paint8_linear_597_6411" x1="74.5843" y1="160.555" x2="247.885" y2="160.555" gradientUnits="userSpaceOnUse">
<stop stop-color="#83A4D4"/>
<stop offset="0.9543" stop-color="#B4F7FD"/>
<stop offset="0.9994" stop-color="#B6FBFF"/>
</linearGradient>
<linearGradient id="paint9_linear_597_6411" x1="68.9345" y1="160.553" x2="253.503" y2="160.553" gradientUnits="userSpaceOnUse">
<stop stop-color="#83A4D4"/>
<stop offset="0.9543" stop-color="#B4F7FD"/>
<stop offset="0.9994" stop-color="#B6FBFF"/>
</linearGradient>
<linearGradient id="paint10_linear_597_6411" x1="61.6525" y1="160.554" x2="260.791" y2="160.554" gradientUnits="userSpaceOnUse">
<stop stop-color="#83A4D4"/>
<stop offset="0.9543" stop-color="#B4F7FD"/>
<stop offset="0.9994" stop-color="#B6FBFF"/>
</linearGradient>
<linearGradient id="paint11_linear_597_6411" x1="53.0627" y1="160.555" x2="269.351" y2="160.555" gradientUnits="userSpaceOnUse">
<stop stop-color="#83A4D4"/>
<stop offset="0.9543" stop-color="#B4F7FD"/>
<stop offset="0.9994" stop-color="#B6FBFF"/>
</linearGradient>
<linearGradient id="paint12_linear_597_6411" x1="43.8283" y1="160.554" x2="278.626" y2="160.554" gradientUnits="userSpaceOnUse">
<stop stop-color="#83A4D4"/>
<stop offset="0.9543" stop-color="#B4F7FD"/>
<stop offset="0.9994" stop-color="#B6FBFF"/>
</linearGradient>
<linearGradient id="paint13_linear_597_6411" x1="34.3755" y1="160.553" x2="288.046" y2="160.553" gradientUnits="userSpaceOnUse">
<stop stop-color="#83A4D4"/>
<stop offset="0.9543" stop-color="#B4F7FD"/>
<stop offset="0.9994" stop-color="#B6FBFF"/>
</linearGradient>
<linearGradient id="paint14_linear_597_6411" x1="25.4261" y1="160.553" x2="297.003" y2="160.553" gradientUnits="userSpaceOnUse">
<stop stop-color="#83A4D4"/>
<stop offset="0.9543" stop-color="#B4F7FD"/>
<stop offset="0.9994" stop-color="#B6FBFF"/>
</linearGradient>
<linearGradient id="paint15_linear_597_6411" x1="17.5199" y1="160.554" x2="304.938" y2="160.554" gradientUnits="userSpaceOnUse">
<stop stop-color="#83A4D4"/>
<stop offset="0.9543" stop-color="#B4F7FD"/>
<stop offset="0.9994" stop-color="#B6FBFF"/>
</linearGradient>
<linearGradient id="paint16_linear_597_6411" x1="10.9826" y1="160.555" x2="311.475" y2="160.555" gradientUnits="userSpaceOnUse">
<stop stop-color="#83A4D4"/>
<stop offset="0.9543" stop-color="#B4F7FD"/>
<stop offset="0.9994" stop-color="#B6FBFF"/>
</linearGradient>
<linearGradient id="paint17_linear_597_6411" x1="6.08362" y1="160.554" x2="316.371" y2="160.554" gradientUnits="userSpaceOnUse">
<stop stop-color="#83A4D4"/>
<stop offset="0.9543" stop-color="#B4F7FD"/>
<stop offset="0.9994" stop-color="#B6FBFF"/>
</linearGradient>
<linearGradient id="paint18_linear_597_6411" x1="2.88606" y1="160.553" x2="319.565" y2="160.553" gradientUnits="userSpaceOnUse">
<stop stop-color="#83A4D4"/>
<stop offset="0.9543" stop-color="#B4F7FD"/>
<stop offset="0.9994" stop-color="#B6FBFF"/>
</linearGradient>
<linearGradient id="paint19_linear_597_6411" x1="1.21677" y1="160.555" x2="321.208" y2="160.555" gradientUnits="userSpaceOnUse">
<stop stop-color="#83A4D4"/>
<stop offset="0.9543" stop-color="#B4F7FD"/>
<stop offset="0.9994" stop-color="#B6FBFF"/>
</linearGradient>
<linearGradient id="paint20_linear_597_6411" x1="0.777344" y1="160.555" x2="321.659" y2="160.555" gradientUnits="userSpaceOnUse">
<stop stop-color="#83A4D4"/>
<stop offset="0.9543" stop-color="#B4F7FD"/>
<stop offset="0.9994" stop-color="#B6FBFF"/>
</linearGradient>
</defs>
</svg>
