<svg width="106" height="43" viewBox="0 0 106 43" fill="none" xmlns="http://www.w3.org/2000/svg">
<g clip-path="url(#clip0_545_2740)">
<g clip-path="url(#clip1_545_2740)">
<path d="M0.132812 0.385742V3.27955H20.715V0.385742H0.132812ZM23.6311 0.385742V3.27955H52.9616C52.9616 3.27955 49.9656 0.385742 45.9976 0.385742H23.6311ZM58.7153 0.385742V3.27955H76.4599L75.4066 0.385742H58.7153ZM89.1817 0.385742L88.1285 3.27955H105.712V0.385742H89.1817ZM0.132812 6.01351V8.90733H20.715V6.01351H0.132812ZM23.6311 6.01765V8.90733H56.3651C56.3651 8.90733 55.9828 6.68017 55.316 6.01765H23.6311ZM58.7153 6.01765V8.90733H78.4053L77.4305 6.01765H58.7153ZM87.0752 6.01765L86.1004 8.90733H105.712V6.01765H87.0752ZM6.04765 11.6413V14.5388H14.9612V11.6413H6.04765ZM29.5459 11.6413V14.5388H38.4595V11.6413H29.5459ZM47.1294 11.6413V14.5388H56.0429C56.0429 14.5388 56.6088 13.0085 56.6088 11.6411H47.1294V11.6413ZM64.6302 11.6413V14.5388H80.4334L79.3801 11.6411H64.6302V11.6413ZM85.1339 11.6413L84.0765 14.539H99.9581V11.6413H85.1339ZM6.04765 17.2732V20.1666H14.9612V17.2732H6.04765ZM29.5459 17.2732V20.1666H52.3131C52.3131 20.1666 54.2177 18.6817 54.8244 17.2728H29.5459V17.2732ZM64.6302 17.2732V20.1666H73.5438V18.5557L74.1096 20.1666H90.4374L91.0446 18.5557V20.1666H99.9581V17.2732H83.2256L82.3375 19.7244L81.4454 17.2732H64.6302ZM6.04765 22.9006V25.7944H14.9612V22.9006H6.04765ZM29.5459 22.9006V25.7944H54.8244C54.2175 24.39 52.3131 22.9006 52.3131 22.9006H29.5459ZM64.6302 22.9006V25.7944H73.5438V22.9006H64.6302ZM75.1629 22.9006L76.241 25.7944H88.4837L89.508 22.9006H75.1629ZM91.0446 22.9006V25.7944H99.9581V22.9006H91.0446ZM6.04765 28.5283V31.4221H14.9612V28.5283H6.04765ZM29.5459 28.5283V31.4221H38.4595V28.5283H29.5459ZM47.1294 28.5283V31.4221H56.6088C56.6088 30.0564 56.0429 28.5283 56.0429 28.5283H47.1294ZM64.6302 28.5283V31.4221H73.5438V28.5283H64.6302ZM77.1868 28.5283L78.2318 31.4221H86.4391L87.4924 28.5283H77.1868ZM91.0446 28.5283V31.4221H99.9581V28.5283H91.0446ZM0.293901 34.1563V37.054H20.8761V34.1561H0.293901V34.1563ZM23.6311 34.1563V37.054H55.316C55.9828 36.3905 56.3651 34.1561 56.3651 34.1561H23.6311V34.1563ZM58.8764 34.1563V37.054H73.5438V34.1561H58.8764V34.1563ZM79.2149 34.1563L80.2888 37.054H84.4647L85.4726 34.1561H79.2149V34.1563ZM91.0446 34.1563V37.054H105.873V34.1561H91.0446V34.1563ZM0.293901 39.788V42.6818H20.8761V39.788H0.293901ZM23.6311 39.788V42.6775H45.9976C49.9656 42.6775 52.9616 39.7878 52.9616 39.7878H23.6311V39.788ZM58.8764 39.788V42.6818H73.5438V39.788H58.8764ZM81.2512 39.788L82.2838 42.6733L82.4615 42.6775L83.5106 39.7878H81.2512V39.788ZM91.0446 39.788V42.6818H105.873V39.788H91.0446Z" fill="#1F70C1"/>
</g>
</g>
<defs>
<clipPath id="clip0_545_2740">
<rect width="105.74" height="42.3374" fill="white" transform="translate(0.132812 0.385742)"/>
</clipPath>
<clipPath id="clip1_545_2740">
<rect width="105.74" height="42.3374" fill="white" transform="translate(0.132812 0.385742)"/>
</clipPath>
</defs>
</svg>
