<svg width="32" height="32" viewBox="0 0 32 32" fill="none" xmlns="http://www.w3.org/2000/svg">
<path d="M11.9084 4.521C13.9333 4.521 15.8752 5.32539 17.3071 6.75721C18.7389 8.18904 19.5433 10.131 19.5433 12.1559C19.5433 14.047 18.8503 15.7854 17.7109 17.1245L18.028 17.4416H18.956L24.829 23.3146L23.0671 25.0765L17.1941 19.2035V18.2756L16.8769 17.9585C15.5379 19.0978 13.7995 19.7908 11.9084 19.7908C9.88345 19.7908 7.94148 18.9864 6.50965 17.5546C5.07783 16.1228 4.27344 14.1808 4.27344 12.1559C4.27344 10.131 5.07783 8.18904 6.50965 6.75721C7.94148 5.32539 9.88345 4.521 11.9084 4.521ZM11.9084 6.8702C8.97185 6.8702 6.62264 9.21941 6.62264 12.1559C6.62264 15.0924 8.97185 17.4416 11.9084 17.4416C14.8449 17.4416 17.1941 15.0924 17.1941 12.1559C17.1941 9.21941 14.8449 6.8702 11.9084 6.8702Z" fill="#999999"/>
</svg>
