<svg width="37" height="37" viewBox="0 0 37 37" fill="none" xmlns="http://www.w3.org/2000/svg">
<path d="M31.7385 4.20703H5.55258C4.92284 4.20703 4.41406 4.71581 4.41406 5.34555V31.5314C4.41406 32.1612 4.92284 32.6699 5.55258 32.6699H31.7385C32.3682 32.6699 32.877 32.1612 32.877 31.5314V5.34555C32.877 4.71581 32.3682 4.20703 31.7385 4.20703ZM12.8569 28.461H8.63369V14.8771H12.8569V28.461ZM10.7471 13.0199C10.2629 13.0199 9.78967 12.8763 9.38713 12.6073C8.98459 12.3384 8.67085 11.9561 8.48558 11.5088C8.30031 11.0615 8.25183 10.5693 8.34628 10.0945C8.44073 9.61968 8.67386 9.18352 9.0162 8.84119C9.35853 8.49885 9.79469 8.26572 10.2695 8.17127C10.7443 8.07682 11.2365 8.1253 11.6838 8.31057C12.1311 8.49584 12.5134 8.80958 12.7823 9.21212C13.0513 9.61466 13.1949 10.0879 13.1949 10.5721C13.1913 11.924 12.0955 13.0199 10.7471 13.0199ZM28.668 28.461H24.4484V21.854C24.4484 20.2779 24.4199 18.2535 22.2532 18.2535C20.058 18.2535 19.72 19.9684 19.72 21.7402V28.461H15.5039V14.8771H19.5528V16.7343H19.6097C20.1718 15.6669 21.5487 14.5391 23.6052 14.5391C27.8817 14.5391 28.668 17.3533 28.668 21.0108V28.461Z" fill="white"/>
</svg>
