<svg width="288" height="70" viewBox="0 0 288 70" fill="none" xmlns="http://www.w3.org/2000/svg">
<path d="M84.6836 49.4309H105.102V43.2845H91.9406V20.1333H84.6836V49.4309Z" fill="white"/>
<path d="M117.197 45.3335C114.286 45.3335 112.769 42.7931 112.769 38.9823C112.769 35.1716 114.286 32.5901 117.197 32.5901C120.108 32.5901 121.666 35.1716 121.666 38.9823C121.666 42.7931 120.108 45.3335 117.197 45.3335ZM117.238 50.0867C124.003 50.0867 128.431 45.2926 128.431 38.9823C128.431 32.6721 124.003 27.8779 117.238 27.8779C110.514 27.8779 106.004 32.6721 106.004 38.9823C106.004 45.2926 110.514 50.0867 117.238 50.0867Z" fill="white"/>
<path d="M140.142 56.6837C143.258 56.6837 146.005 55.9872 147.85 54.3481C149.531 52.832 150.638 50.5374 150.638 47.3823V28.4515H144.242V30.7052H144.16C142.93 28.9433 141.044 27.8369 138.256 27.8369C133.049 27.8369 129.441 32.1803 129.441 38.3267C129.441 44.7598 133.828 48.2837 138.543 48.2837C141.085 48.2837 142.684 47.2594 143.914 45.8662H144.078V47.9559C144.078 50.4964 142.889 51.9715 140.06 51.9715C137.846 51.9715 136.739 51.0291 136.37 49.9228H129.892C130.548 54.3072 134.361 56.6837 140.142 56.6837ZM140.101 43.3257C137.6 43.3257 135.96 41.2769 135.96 38.1218C135.96 34.9257 137.6 32.8769 140.101 32.8769C142.889 32.8769 144.365 35.2535 144.365 38.0808C144.365 41.0311 143.012 43.3257 140.101 43.3257Z" fill="white"/>
<path d="M163.787 45.3335C160.876 45.3335 159.359 42.7931 159.359 38.9823C159.359 35.1716 160.876 32.5901 163.787 32.5901C166.698 32.5901 168.256 35.1716 168.256 38.9823C168.256 42.7931 166.698 45.3335 163.787 45.3335ZM163.828 50.0867C170.593 50.0867 175.02 45.2926 175.02 38.9823C175.02 32.6721 170.593 27.8779 163.828 27.8779C157.104 27.8779 152.594 32.6721 152.594 38.9823C152.594 45.2926 157.104 50.0867 163.828 50.0867Z" fill="white"/>
<path d="M176.973 49.4309H183.656V28.4513H176.973V49.4309ZM176.973 25.5421H183.656V20.1333H176.973V25.5421Z" fill="white"/>
<path d="M186.555 56.3559H193.238V47.2594H193.32C194.632 49.0213 196.559 50.0867 199.265 50.0867C204.759 50.0867 208.408 45.7433 208.408 38.9413C208.408 32.6311 205.005 27.8369 199.429 27.8369C196.559 27.8369 194.509 29.1072 193.074 30.992H192.951V28.4515H186.555V56.3559ZM197.543 44.9237C194.673 44.9237 193.033 42.5881 193.033 39.1872C193.033 35.7862 194.509 33.2047 197.42 33.2047C200.29 33.2047 201.643 35.5813 201.643 39.1872C201.643 42.752 200.085 44.9237 197.543 44.9237Z" fill="white"/>
<path d="M219.291 50.0867C224.785 50.0867 228.844 47.7101 228.844 43.1208C228.844 37.753 224.498 36.8106 220.808 36.1959C218.143 35.7042 215.765 35.4994 215.765 34.0242C215.765 32.713 217.036 32.0984 218.676 32.0984C220.521 32.0984 221.792 32.672 222.038 34.5569H228.188C227.86 30.4184 224.662 27.8369 218.717 27.8369C213.756 27.8369 209.656 30.1315 209.656 34.5569C209.656 39.474 213.551 40.4574 217.2 41.072C219.988 41.5637 222.53 41.7686 222.53 43.6535C222.53 45.0057 221.259 45.7433 219.25 45.7433C217.036 45.7433 215.642 44.7189 215.396 42.6291H209.082C209.287 47.2594 213.141 50.0867 219.291 50.0867Z" fill="white"/>
<path d="M237.919 50.0453C240.83 50.0453 242.675 48.898 244.192 46.8492H244.315V49.4307H250.711V28.4512H244.028V40.1702C244.028 42.6697 242.634 44.3907 240.338 44.3907C238.206 44.3907 237.181 43.1204 237.181 40.8258V28.4512H230.539V42.219C230.539 46.8902 233.081 50.0453 237.919 50.0453Z" fill="white"/>
<path d="M253.621 49.4311H260.304V37.6711C260.304 35.1715 261.534 33.4096 263.625 33.4096C265.634 33.4096 266.577 34.7208 266.577 36.9745V49.4311H273.26V37.6711C273.26 35.1715 274.449 33.4096 276.581 33.4096C278.59 33.4096 279.533 34.7208 279.533 36.9745V49.4311H286.216V35.7862C286.216 31.074 283.838 27.8369 279.082 27.8369C276.376 27.8369 274.121 28.9842 272.481 31.5247H272.399C271.333 29.2711 269.242 27.8369 266.495 27.8369C263.461 27.8369 261.452 29.2711 260.14 31.4428H260.017V28.4515H253.621V49.4311Z" fill="white"/>
<path d="M43.9094 3.37496L37.1905 1.57568L31.5284 22.6945L26.4165 3.62829L19.6975 5.42756L25.2205 26.0271L11.4639 12.2788L6.54532 17.1945L21.6346 32.2749L2.84331 27.2428L1.04297 33.9576L21.5748 39.4559C21.3397 38.4426 21.2153 37.3868 21.2153 36.3019C21.2153 28.6231 27.4439 22.3982 35.1273 22.3982C42.8107 22.3982 49.0393 28.6231 49.0393 36.3019C49.0393 37.3798 48.9165 38.4291 48.6843 39.4364L67.3439 44.4332L69.1442 37.7183L48.5307 32.1982L67.3233 27.1658L65.5228 20.4509L44.9103 25.9706L58.6668 12.2224L53.7482 7.30668L38.8682 22.1778L43.9094 3.37496Z" fill="#8BD2BD"/>
<path d="M48.664 39.5146C48.088 41.9486 46.8718 44.1352 45.2031 45.887L58.7212 59.3972L63.6398 54.4815L48.664 39.5146Z" fill="#8BD2BD"/>
<path d="M45.068 46.0288C43.3792 47.7527 41.2449 49.0391 38.8516 49.7021L43.7705 68.0489L50.4894 66.2496L45.068 46.0288Z" fill="#8BD2BD"/>
<path d="M38.6 49.7687C37.4896 50.054 36.3257 50.2056 35.1263 50.2056C33.8413 50.2056 32.5969 50.0315 31.4156 49.7056L26.4922 68.0691L33.2111 69.8683L38.6 49.7687Z" fill="#8BD2BD"/>
<path d="M31.1783 49.6382C28.8215 48.9423 26.7252 47.6395 25.0709 45.9106L11.5195 59.4539L16.4381 64.3696L31.1783 49.6382Z" fill="#8BD2BD"/>
<path d="M24.9579 45.7906C23.332 44.0508 22.1476 41.8935 21.5838 39.4971L2.86328 44.5103L4.66361 51.2251L24.9579 45.7906Z" fill="#8BD2BD"/>
</svg>
