<svg width="322" height="322" viewBox="0 0 322 322" fill="none" xmlns="http://www.w3.org/2000/svg">
<path d="M94.0611 250.574C87.9357 250.574 83.0575 248.869 79.679 245.428C71.4066 236.982 73.1905 218.763 84.573 195.462C106.785 149.963 158.93 97.171 200.798 77.7844C219.916 68.9278 234.503 68.2016 241.86 75.7163C250.132 84.1624 248.349 102.381 236.966 125.682C214.754 171.181 162.609 223.973 120.741 243.36C110.369 248.159 101.339 250.574 94.0611 250.574ZM200.987 78.1948L201.192 78.6211C159.499 97.9287 107.559 150.516 85.4255 195.856C74.2324 218.795 72.3854 236.619 80.3579 244.749C87.4305 251.964 101.639 251.158 120.362 242.491C162.056 223.184 213.996 170.597 236.129 125.256C247.322 102.318 249.169 84.4939 241.197 76.3635C234.124 69.1488 219.932 69.954 201.192 78.6211L200.987 78.1948Z" fill="url(#paint0_linear_597_6475)"/>
<path d="M89.6565 251.79C82.4891 251.79 76.9163 249.737 73.3169 245.617C64.8865 236.003 67.9808 216.142 81.8103 191.151C107.906 143.995 164.44 91.7714 207.839 74.7529C226.894 67.2698 241.244 67.5382 248.222 75.5107C256.653 85.1251 253.558 104.985 239.713 129.976C213.617 177.132 157.083 229.356 113.684 246.375C104.481 249.99 96.366 251.79 89.6565 251.79ZM231.898 70.2536C225.315 70.2536 217.327 72.0376 208.202 75.6212C164.977 92.5766 108.664 144.611 82.647 191.593C69.0227 216.221 65.8811 235.687 74.0272 244.985C80.721 252.626 94.6926 252.8 113.353 245.475C156.578 228.519 212.891 176.485 238.908 129.503C252.532 104.875 255.674 85.4092 247.528 76.1106C244.102 72.2112 238.766 70.2536 231.898 70.2536Z" fill="url(#paint1_linear_597_6475)"/>
<path d="M85.6312 252.72C77.1851 252.72 70.7913 250.226 66.9392 245.3C58.3984 234.376 62.9609 212.842 79.4584 186.225C109.564 137.632 170.44 86.4505 215.149 72.1316C234.03 66.0851 248.049 67.3797 254.632 75.7942C263.173 86.7189 258.611 108.253 242.113 134.87C212.007 183.462 151.132 234.644 106.423 248.963C98.5766 251.489 91.5987 252.72 85.6312 252.72ZM235.94 69.3215C230.067 69.3215 223.184 70.5529 215.433 73.0315C170.897 87.303 110.259 138.295 80.2478 186.73C63.9712 212.984 59.393 234.123 67.6812 244.732C73.9961 252.815 87.6519 253.999 106.123 248.079C150.658 233.807 211.297 182.815 241.308 134.38C257.584 108.126 262.163 86.9873 253.874 76.3783C250.212 71.6896 244.055 69.3215 235.94 69.3215Z" fill="url(#paint2_linear_597_6475)"/>
<path d="M81.8336 253.446C71.9193 253.446 64.673 250.415 60.5368 244.432C51.9802 232.039 58.153 208.816 77.4922 180.699C111.719 130.938 176.825 81.2875 222.623 70.0156C241.489 65.3741 254.75 67.6791 260.986 76.6935C269.542 89.0864 263.37 112.309 244.03 140.426C209.804 190.187 144.698 239.838 98.8995 251.11C92.5689 252.672 86.8539 253.446 81.8336 253.446ZM239.705 68.6105C234.763 68.6105 229.127 69.3841 222.86 70.9312C177.251 82.1558 112.397 131.648 78.2815 181.236C59.1791 209.005 53.0063 231.849 61.3261 243.895C67.3095 252.562 80.2391 254.741 98.6943 250.194C144.303 238.969 209.157 189.477 243.273 139.889C262.375 112.12 268.548 89.2758 260.228 77.2303C256.25 71.5153 249.288 68.6105 239.705 68.6105Z" fill="url(#paint3_linear_597_6475)"/>
<path d="M78.8932 253.827C67.0213 253.827 58.5909 250.132 54.2337 242.918C45.756 228.899 53.7127 203.971 76.0673 174.512C114.493 123.883 183.688 76.2848 230.292 68.407L230.371 68.8648L230.292 68.407C248.763 65.2812 261.566 68.6754 267.328 78.1792C275.806 92.1982 267.849 117.126 245.495 146.585C207.069 197.214 137.874 244.812 91.2703 252.69C86.8025 253.464 82.6821 253.827 78.8932 253.827ZM242.669 68.2334C238.943 68.2334 234.854 68.5965 230.434 69.3542C184.035 77.2004 115.109 124.625 76.7935 175.096C55.0073 203.797 46.8611 228.978 55.023 242.444C60.5643 251.601 73.0519 254.837 91.1124 251.79C137.527 243.944 206.437 196.519 244.753 146.048C266.539 117.347 274.685 92.1666 266.523 78.7002C262.324 71.7697 254.178 68.2334 242.669 68.2334Z" fill="url(#paint4_linear_597_6475)"/>
<path d="M76.7753 254.017C62.4406 254.017 52.5578 249.486 47.9796 240.724C39.8492 225.142 50.0003 197.846 75.1492 167.693C117.853 116.511 190.916 71.5176 238.041 67.4129C256.022 65.85 268.305 70.3335 273.562 80.3899C281.692 95.9718 271.541 123.268 246.392 153.421C203.688 204.603 130.625 249.596 83.5006 253.701C81.1641 253.922 78.9224 254.017 76.7753 254.017ZM238.088 67.8865L238.135 68.3601C191.232 72.449 118.437 117.284 75.8754 168.308C50.9792 198.146 40.8596 225.063 48.8163 240.298C53.884 249.991 65.8506 254.317 83.4217 252.785C130.325 248.696 203.12 203.861 245.682 152.837C270.578 122.999 280.697 96.0823 272.741 80.8477C267.673 71.1545 255.706 66.8288 238.135 68.3601L238.088 67.8865Z" fill="url(#paint5_linear_597_6475)"/>
<path d="M75.6975 254.063C75.6817 254.063 75.6817 254.063 75.6817 254.063C58.2685 254.063 46.5703 248.427 41.8815 237.77C34.1616 220.231 46.4756 191.23 74.845 160.224C121.827 108.853 198.537 67.0645 245.851 67.0645C245.867 67.0645 245.867 67.0645 245.867 67.0645C263.28 67.0645 274.978 72.7005 279.667 83.3725C287.387 100.912 275.073 129.913 246.704 160.919C199.721 212.274 123.011 254.063 75.6975 254.063ZM245.835 67.9959C198.758 67.9959 122.364 109.642 75.5238 160.856C47.4228 191.577 35.1562 220.199 42.734 237.392C47.2649 247.685 58.6632 253.131 75.6817 253.131H75.6975C122.775 253.131 199.169 211.485 246.009 160.272C274.11 129.55 286.376 100.928 278.799 83.7356C274.268 73.4424 262.869 67.9959 245.851 67.9959C245.851 67.9959 245.851 67.9959 245.835 67.9959Z" fill="url(#paint6_linear_597_6475)"/>
<path d="M75.7415 254.062C73.0103 254.062 70.3739 253.936 67.8322 253.699C51.0347 252.089 39.9995 245.269 35.9422 233.934C28.8696 214.247 43.5358 183.652 75.1732 152.093C126.466 100.911 206.554 62.9277 253.694 67.4112C270.491 69.0215 281.527 75.8415 285.584 87.1767C292.656 106.863 277.99 137.459 246.353 169.017C197.823 217.452 123.529 254.062 75.7415 254.062ZM245.753 67.9953C198.202 67.9953 124.208 104.495 75.8362 152.756C44.4672 184.046 29.8957 214.279 36.8263 233.618C40.7573 244.574 51.5083 251.205 67.9269 252.768C114.815 257.235 194.555 219.378 245.69 168.37C277.059 137.08 291.63 106.847 284.7 87.5082C280.769 76.5519 270.018 69.9214 253.599 68.3584C251.073 68.1058 248.453 67.9953 245.753 67.9953Z" fill="url(#paint7_linear_597_6475)"/>
<path d="M77.1165 254.141C71.0226 254.141 65.3235 253.636 60.0664 252.578C43.932 249.342 33.623 241.243 30.2761 229.15C24.1823 207.143 41.3587 175.063 76.2166 143.331C131.787 92.7649 214.891 59.2173 261.447 68.5475C277.581 71.7838 287.89 79.8826 291.237 91.9756C297.331 113.983 280.155 146.062 245.297 177.794C196.009 222.661 125.03 254.125 77.1165 254.141ZM244.365 67.916C196.704 67.916 126.009 99.285 76.8639 144.01C42.2743 175.489 25.1926 207.221 31.1917 228.881C34.4439 240.611 44.5003 248.473 60.2716 251.631C65.4814 252.673 71.149 253.178 77.1954 253.178C124.857 253.178 195.551 221.809 244.697 177.084C279.286 145.604 296.368 113.872 290.369 92.2124C287.117 80.4825 277.06 72.6206 261.289 69.4631C256.063 68.4212 250.396 67.916 244.365 67.916Z" fill="url(#paint8_linear_597_6475)"/>
<path d="M80.0337 254.41C69.8194 254.41 60.4892 253.179 52.422 250.621C36.9664 245.696 27.4626 236.239 24.9366 223.262C20.1847 198.792 40.0291 165.402 78.0287 133.954C137.799 84.4618 223.523 55.9976 269.1 70.5218C284.556 75.4474 294.06 84.9038 296.586 97.8808C301.337 122.351 281.493 155.741 243.493 187.189C194.317 227.919 127.537 254.41 80.0337 254.41ZM241.425 67.6485C194.159 67.6485 127.663 94.0604 78.6286 134.665C40.9132 165.908 21.1793 198.95 25.8681 223.073C28.3151 235.687 37.5979 244.906 52.7062 249.721C98.031 264.166 183.345 235.781 242.894 186.462C280.609 155.22 300.343 122.177 295.654 98.0545C293.207 85.4406 283.924 76.2209 268.816 71.4059C260.812 68.8641 251.561 67.6485 241.425 67.6485Z" fill="url(#paint9_linear_597_6475)"/>
<path d="M84.7057 255.057C69.4869 255.057 55.8942 252.705 44.9853 247.764C30.2086 241.054 21.5888 230.098 20.0575 216.079C17.1053 189.083 39.7598 154.636 80.6642 123.93C144.523 75.9841 232.41 53.298 276.566 73.3477C291.343 80.0572 299.963 91.0134 301.494 105.032C304.447 132.028 281.792 166.476 240.888 197.182C192.816 233.287 131.104 255.057 84.7057 255.057ZM236.799 66.9855C190.637 66.9855 129.162 88.7085 81.2325 124.703C40.5965 155.204 18.0841 189.336 21.0047 216C22.5045 229.672 30.9348 240.36 45.38 246.927C89.2524 266.85 176.713 244.212 240.335 196.456C280.971 165.955 303.484 131.823 300.563 105.159C299.063 91.4871 290.633 80.7992 276.188 74.2317C265.358 69.3062 251.891 66.9855 236.799 66.9855Z" fill="url(#paint10_linear_597_6475)"/>
<path d="M91.1739 256.305C70.0034 256.305 51.4377 252.342 37.7977 243.975C23.7156 235.34 16.0904 222.726 15.7431 207.475C15.08 177.953 40.6393 142.78 84.1328 113.368C151.938 67.5068 241.483 51.2619 283.729 77.1527C297.811 85.7883 305.437 98.4022 305.784 113.653C306.447 143.174 280.888 178.348 237.394 207.775C191.485 238.829 135.599 256.305 91.1739 256.305ZM230.337 65.7387C186.133 65.7387 130.452 83.1676 84.6696 114.142C41.4603 143.38 16.043 178.253 16.6902 207.46C17.0218 222.363 24.4891 234.724 38.3028 243.186C80.265 268.919 169.352 252.674 236.889 207.002C280.098 177.764 305.516 142.89 304.868 113.684C304.537 98.7811 297.069 86.4198 283.256 77.9579C269.726 69.6697 251.334 65.7387 230.337 65.7387Z" fill="url(#paint11_linear_597_6475)"/>
<path d="M99.3792 258.342C71.3729 258.342 47.0608 252.106 30.9895 239.176C17.602 228.41 11.1293 213.901 12.2344 197.198C14.3657 165.308 42.8929 129.787 88.5177 102.223C160.065 58.9822 250.699 49.8731 290.545 81.9209C303.933 92.6877 310.406 107.196 309.301 123.899C307.169 155.789 278.642 191.31 233.017 218.874C190.313 244.702 140.82 258.342 99.3792 258.342ZM222.171 63.6868C180.92 63.6868 131.601 77.3111 89.0229 103.044C43.6507 130.466 15.2971 165.687 13.1816 197.277C12.0765 213.649 18.4545 227.889 31.5894 238.45C71.1519 270.277 161.296 261.136 232.544 218.085C277.916 190.663 306.269 155.441 308.385 123.851C309.49 107.48 303.112 93.2403 289.977 82.6787C274.048 69.8596 249.925 63.6868 222.171 63.6868Z" fill="url(#paint12_linear_597_6475)"/>
<path d="M108.948 261.42C73.3958 261.42 42.5794 252.105 24.6136 233.366C11.9681 220.184 6.83733 203.497 9.77373 185.136C15.1887 151.163 46.6366 115.831 93.8717 90.619C168.939 50.5671 260.015 49.2884 296.926 87.7774C309.571 100.96 314.702 117.647 311.765 136.007C306.35 169.981 274.903 205.312 227.667 230.524C189.163 251.063 146.427 261.42 108.948 261.42ZM212.622 60.6235C175.317 60.6235 132.724 70.9325 94.3137 91.44C47.3313 116.51 16.0728 151.589 10.7052 185.279C7.81613 203.355 12.868 219.758 25.2924 232.719C61.9186 270.924 152.505 269.566 227.225 229.703C274.208 204.634 305.466 169.555 310.834 135.865C313.723 117.789 308.671 101.386 296.247 88.4246C278.439 69.8432 247.891 60.6235 212.622 60.6235Z" fill="url(#paint13_linear_597_6475)"/>
<path d="M119.279 265.697C75.7221 265.697 37.8646 252.263 18.7779 226.451C6.96919 210.49 3.46443 191.324 8.6426 171.038C17.736 135.454 51.9624 100.864 100.208 78.5097C178.48 42.2467 269.351 49.493 302.757 94.6599C314.565 110.621 318.07 129.786 312.892 150.073C303.798 185.657 269.572 220.246 221.327 242.601C187.779 258.151 151.926 265.697 119.279 265.697ZM202.303 56.3446C169.782 56.3446 134.04 63.875 100.603 79.3622C52.6097 101.59 18.5727 135.959 9.55828 171.275C4.44326 191.277 7.90065 210.158 19.5357 225.898C52.6887 270.734 143.038 277.854 220.932 241.764C268.925 219.536 302.962 185.167 311.976 149.852C317.091 129.849 313.634 110.968 301.999 95.2282C283.07 69.6531 245.528 56.3446 202.303 56.3446Z" fill="url(#paint14_linear_597_6475)"/>
<path d="M129.588 271.333C77.9171 271.333 32.766 252.515 13.553 218.415C2.73887 199.217 1.23907 177.242 9.19578 154.871C22.2044 118.308 58.9725 85.0924 107.565 66.0216C188.711 34.1632 278.619 50.6134 307.951 102.695C318.765 121.892 320.265 143.852 312.308 166.238C299.3 202.801 262.532 236.017 213.939 255.088C185.932 266.092 156.853 271.333 129.588 271.333ZM191.979 50.7081C164.825 50.7081 135.856 55.9336 107.913 66.9057C59.5725 85.8818 22.9937 118.893 10.0799 155.203C2.21787 177.321 3.70186 199.028 14.374 217.973C43.5012 269.66 132.872 285.936 213.607 254.236C261.947 235.259 298.526 202.249 311.44 165.938C319.302 143.82 317.818 122.113 307.146 103.169C288.107 69.3685 243.287 50.7081 191.979 50.7081Z" fill="url(#paint15_linear_597_6475)"/>
<path d="M139.159 278.424C79.5156 278.424 27.1971 252.691 9.07347 209.245C-0.49352 186.322 0.437922 161.204 11.7889 136.64C28.76 99.8714 67.7226 68.6761 116.015 53.2047C199.64 26.3982 287.779 52.7153 312.47 111.885C322.037 134.808 321.106 159.926 309.755 184.49C292.784 221.258 253.821 252.454 205.528 267.925C183.3 275.045 160.756 278.424 139.159 278.424ZM182.4 43.6377C160.898 43.6377 138.449 47.0003 116.284 54.1045C68.2436 69.5128 29.502 100.503 12.6256 137.034C1.40093 161.362 0.453672 186.195 9.92594 208.881C27.9075 251.98 79.8629 277.492 139.112 277.492C160.614 277.492 183.063 274.13 205.228 267.025C253.269 251.617 292.01 220.627 308.887 184.096C320.111 159.768 321.043 134.935 311.586 112.248C293.605 69.1497 241.649 43.6377 182.4 43.6377Z" fill="url(#paint16_linear_597_6475)"/>
<path d="M147.403 286.963C80.1023 286.963 21.1532 252.595 5.42924 198.871C-2.54326 171.638 1.37195 143.143 16.7328 116.431C37.8402 79.7573 77.4974 51.9404 125.553 40.1001C211.214 18.9927 296.717 55.8398 316.151 122.24C324.124 149.473 320.209 177.969 304.848 204.681C283.756 241.354 244.083 269.171 196.027 281.011C179.656 285.053 163.285 286.963 147.403 286.963ZM174.193 35.0956C158.359 35.0956 142.083 37.0058 125.774 41.0157C77.971 52.7929 38.519 80.452 17.5537 116.904C2.31916 143.379 -1.56448 171.623 6.34487 198.603C21.9425 251.916 80.5285 286.016 147.403 286.016C163.237 286.016 179.514 284.106 195.822 280.096C243.625 268.319 283.077 240.66 304.042 204.207C319.277 177.732 323.161 149.489 315.251 122.509C299.638 69.2115 241.068 35.0956 174.193 35.0956Z" fill="url(#paint17_linear_597_6475)"/>
<path d="M153.841 296.957C79.2316 296.957 14.5834 252.074 2.66411 187.315C-3.16134 155.678 4.49541 122.715 24.2135 94.5346C48.8098 59.3767 89.6195 34.7014 136.16 26.8394C223.336 12.0943 305.303 60.0713 318.88 133.813C324.705 165.45 317.049 198.398 297.331 226.594C272.734 261.752 231.925 286.427 185.384 294.289C174.759 296.089 164.198 296.957 153.841 296.957ZM167.703 25.1186C157.394 25.1186 146.895 25.9869 136.318 27.7709C90.0142 35.6013 49.4413 60.1345 24.9871 95.0871C5.41104 123.062 -2.18254 155.757 3.59554 187.158C15.4359 251.443 79.6894 296.026 153.841 296.026C164.15 296.026 174.649 295.157 185.226 293.373C231.53 285.543 272.103 261.01 296.557 226.057C316.133 198.082 323.727 165.387 317.949 133.987C306.108 69.6857 241.855 25.1186 167.703 25.1186Z" fill="url(#paint18_linear_597_6475)"/>
<path d="M158.318 308.322C76.6828 308.322 7.59846 250.92 0.920513 174.542C-6.1679 93.4439 59.7591 21.1863 147.899 13.4664C190.587 9.72483 232.06 21.5178 264.676 46.6509C297.308 71.7998 317.168 107.273 320.61 146.583C324.051 185.877 310.648 224.272 282.878 254.709C255.125 285.131 216.32 303.934 173.632 307.659C168.485 308.101 163.37 308.322 158.318 308.322ZM163.37 13.7348C158.271 13.7348 153.124 13.9558 147.977 14.4136C60.359 22.0861 -5.18909 93.8859 1.86775 174.463C8.51412 250.352 77.188 307.375 158.334 307.375C163.37 307.375 168.438 307.154 173.553 306.712C216.004 303.002 254.588 284.294 282.184 254.062C309.78 223.83 323.088 185.688 319.678 146.662C316.268 107.637 296.534 72.3839 264.107 47.3929C235.596 25.4488 200.312 13.7348 163.37 13.7348Z" fill="url(#paint19_linear_597_6475)"/>
<path d="M160.78 321.016C72.3094 321.016 0.33594 249.042 0.33594 160.572C0.320153 72.0848 72.3094 0.111328 160.78 0.111328C249.251 0.111328 321.225 72.0848 321.225 160.556C321.225 249.042 249.251 321.016 160.78 321.016ZM160.78 1.05855C72.8304 1.05855 1.26737 72.6215 1.26737 160.572C1.26737 248.522 72.8304 320.085 160.78 320.085C248.73 320.085 320.293 248.522 320.293 160.572C320.278 72.6057 248.73 1.05855 160.78 1.05855Z" fill="url(#paint20_linear_597_6475)"/>
<defs>
<linearGradient id="paint0_linear_597_6475" x1="74.5446" y1="160.563" x2="246.999" y2="160.563" gradientUnits="userSpaceOnUse">
<stop stop-color="#83A4D4"/>
<stop offset="0.9543" stop-color="#B4F7FD"/>
<stop offset="0.9994" stop-color="#B6FBFF"/>
</linearGradient>
<linearGradient id="paint1_linear_597_6475" x1="68.6533" y1="160.562" x2="252.891" y2="160.562" gradientUnits="userSpaceOnUse">
<stop stop-color="#83A4D4"/>
<stop offset="0.9543" stop-color="#B4F7FD"/>
<stop offset="0.9994" stop-color="#B6FBFF"/>
</linearGradient>
<linearGradient id="paint2_linear_597_6475" x1="62.7154" y1="160.562" x2="258.829" y2="160.562" gradientUnits="userSpaceOnUse">
<stop stop-color="#83A4D4"/>
<stop offset="0.9543" stop-color="#B4F7FD"/>
<stop offset="0.9994" stop-color="#B6FBFF"/>
</linearGradient>
<linearGradient id="paint3_linear_597_6475" x1="56.7728" y1="160.561" x2="264.754" y2="160.561" gradientUnits="userSpaceOnUse">
<stop stop-color="#83A4D4"/>
<stop offset="0.9543" stop-color="#B4F7FD"/>
<stop offset="0.9994" stop-color="#B6FBFF"/>
</linearGradient>
<linearGradient id="paint4_linear_597_6475" x1="50.9067" y1="160.563" x2="270.644" y2="160.563" gradientUnits="userSpaceOnUse">
<stop stop-color="#83A4D4"/>
<stop offset="0.9543" stop-color="#B4F7FD"/>
<stop offset="0.9994" stop-color="#B6FBFF"/>
</linearGradient>
<linearGradient id="paint5_linear_597_6475" x1="45.2304" y1="160.563" x2="276.316" y2="160.563" gradientUnits="userSpaceOnUse">
<stop stop-color="#83A4D4"/>
<stop offset="0.9543" stop-color="#B4F7FD"/>
<stop offset="0.9994" stop-color="#B6FBFF"/>
</linearGradient>
<linearGradient id="paint6_linear_597_6475" x1="39.6093" y1="160.562" x2="281.928" y2="160.562" gradientUnits="userSpaceOnUse">
<stop stop-color="#83A4D4"/>
<stop offset="0.9543" stop-color="#B4F7FD"/>
<stop offset="0.9994" stop-color="#B6FBFF"/>
</linearGradient>
<linearGradient id="paint7_linear_597_6475" x1="34.2034" y1="160.562" x2="287.327" y2="160.562" gradientUnits="userSpaceOnUse">
<stop stop-color="#83A4D4"/>
<stop offset="0.9543" stop-color="#B4F7FD"/>
<stop offset="0.9994" stop-color="#B6FBFF"/>
</linearGradient>
<linearGradient id="paint8_linear_597_6475" x1="29.069" y1="160.561" x2="292.465" y2="160.561" gradientUnits="userSpaceOnUse">
<stop stop-color="#83A4D4"/>
<stop offset="0.9543" stop-color="#B4F7FD"/>
<stop offset="0.9994" stop-color="#B6FBFF"/>
</linearGradient>
<linearGradient id="paint9_linear_597_6475" x1="24.2463" y1="160.562" x2="297.28" y2="160.562" gradientUnits="userSpaceOnUse">
<stop stop-color="#83A4D4"/>
<stop offset="0.9543" stop-color="#B4F7FD"/>
<stop offset="0.9994" stop-color="#B6FBFF"/>
</linearGradient>
<linearGradient id="paint10_linear_597_6475" x1="19.8043" y1="160.562" x2="301.753" y2="160.562" gradientUnits="userSpaceOnUse">
<stop stop-color="#83A4D4"/>
<stop offset="0.9543" stop-color="#B4F7FD"/>
<stop offset="0.9994" stop-color="#B6FBFF"/>
</linearGradient>
<linearGradient id="paint11_linear_597_6475" x1="15.7423" y1="160.562" x2="305.806" y2="160.562" gradientUnits="userSpaceOnUse">
<stop stop-color="#83A4D4"/>
<stop offset="0.9543" stop-color="#B4F7FD"/>
<stop offset="0.9994" stop-color="#B6FBFF"/>
</linearGradient>
<linearGradient id="paint12_linear_597_6475" x1="12.116" y1="160.563" x2="309.423" y2="160.563" gradientUnits="userSpaceOnUse">
<stop stop-color="#83A4D4"/>
<stop offset="0.9543" stop-color="#B4F7FD"/>
<stop offset="0.9994" stop-color="#B6FBFF"/>
</linearGradient>
<linearGradient id="paint13_linear_597_6475" x1="8.97159" y1="160.562" x2="312.573" y2="160.562" gradientUnits="userSpaceOnUse">
<stop stop-color="#83A4D4"/>
<stop offset="0.9543" stop-color="#B4F7FD"/>
<stop offset="0.9994" stop-color="#B6FBFF"/>
</linearGradient>
<linearGradient id="paint14_linear_597_6475" x1="6.31101" y1="160.561" x2="315.212" y2="160.561" gradientUnits="userSpaceOnUse">
<stop stop-color="#83A4D4"/>
<stop offset="0.9543" stop-color="#B4F7FD"/>
<stop offset="0.9994" stop-color="#B6FBFF"/>
</linearGradient>
<linearGradient id="paint15_linear_597_6475" x1="4.16664" y1="160.561" x2="317.358" y2="160.561" gradientUnits="userSpaceOnUse">
<stop stop-color="#83A4D4"/>
<stop offset="0.9543" stop-color="#B4F7FD"/>
<stop offset="0.9994" stop-color="#B6FBFF"/>
</linearGradient>
<linearGradient id="paint16_linear_597_6475" x1="2.52924" y1="160.563" x2="319.003" y2="160.563" gradientUnits="userSpaceOnUse">
<stop stop-color="#83A4D4"/>
<stop offset="0.9543" stop-color="#B4F7FD"/>
<stop offset="0.9994" stop-color="#B6FBFF"/>
</linearGradient>
<linearGradient id="paint17_linear_597_6475" x1="1.39737" y1="160.562" x2="320.172" y2="160.562" gradientUnits="userSpaceOnUse">
<stop stop-color="#83A4D4"/>
<stop offset="0.9543" stop-color="#B4F7FD"/>
<stop offset="0.9994" stop-color="#B6FBFF"/>
</linearGradient>
<linearGradient id="paint18_linear_597_6475" x1="0.753868" y1="160.562" x2="320.779" y2="160.562" gradientUnits="userSpaceOnUse">
<stop stop-color="#83A4D4"/>
<stop offset="0.9543" stop-color="#B4F7FD"/>
<stop offset="0.9994" stop-color="#B6FBFF"/>
</linearGradient>
<linearGradient id="paint19_linear_597_6475" x1="0.396381" y1="160.558" x2="321.129" y2="160.558" gradientUnits="userSpaceOnUse">
<stop stop-color="#83A4D4"/>
<stop offset="0.9543" stop-color="#B4F7FD"/>
<stop offset="0.9994" stop-color="#B6FBFF"/>
</linearGradient>
<linearGradient id="paint20_linear_597_6475" x1="0.324573" y1="160.562" x2="321.225" y2="160.562" gradientUnits="userSpaceOnUse">
<stop stop-color="#83A4D4"/>
<stop offset="0.9543" stop-color="#B4F7FD"/>
<stop offset="0.9994" stop-color="#B6FBFF"/>
</linearGradient>
</defs>
</svg>
