<svg width="322" height="301" viewBox="0 0 322 301" fill="none" xmlns="http://www.w3.org/2000/svg">
<path d="M207.818 296.764C164.017 296.764 107.73 235.425 80.6578 157.222C61.7704 102.673 61.1708 51.7972 79.0839 24.4404C86.7587 12.7182 97.6715 5.9877 110.638 4.96837C154.888 1.49069 213.544 64.0291 241.366 144.376C260.253 198.924 260.853 249.801 242.94 277.157C235.265 288.88 224.352 295.61 211.386 296.629C210.202 296.719 209.002 296.764 207.818 296.764ZM114.205 5.73287C113.021 5.73287 111.852 5.77784 110.698 5.86778C97.8364 6.87211 87.4483 13.2878 79.8334 24.9351C62.0702 52.067 62.7147 102.643 81.5122 156.922C108.479 234.781 164.362 295.85 207.788 295.85C208.972 295.85 210.142 295.805 211.296 295.715C224.157 294.711 234.545 288.295 242.16 276.648C259.924 249.516 259.279 198.939 240.481 144.66C213.529 66.8172 157.632 5.73287 114.205 5.73287Z" fill="url(#paint0_linear_597_6539)"/>
<path d="M216.939 299.222C175.461 299.222 118.454 243.444 85.0263 167.97C60.1278 111.727 53.907 55.7842 69.1669 25.4593C75.2229 13.4074 84.1868 5.98729 95.8041 3.37902C137.656 -6.03472 200.974 52.3964 236.935 133.627C261.834 189.87 268.055 245.813 252.795 276.138C246.739 288.19 237.775 295.61 226.157 298.218C223.189 298.892 220.116 299.222 216.939 299.222ZM105.098 3.28908C101.965 3.28908 98.937 3.60387 95.999 4.26343C84.6665 6.81174 75.9124 14.0819 69.9763 25.8641C54.8214 55.964 61.0573 111.592 85.8508 167.595C119.114 242.725 175.746 298.308 216.849 298.308C219.982 298.308 223.009 297.993 225.948 297.333C237.28 294.785 246.034 287.515 251.97 275.733C267.125 245.633 260.889 190.005 236.096 134.002C202.833 58.8571 146.216 3.28908 105.098 3.28908Z" fill="url(#paint1_linear_597_6539)"/>
<path d="M225.947 300.617C186.374 300.617 129.262 250.49 90.4825 178.748C59.3033 121.066 47.1014 61.9907 59.3932 28.2481C63.8752 15.9263 71.3103 7.6518 81.4885 3.61948C120.343 -11.7603 187.633 41.7391 231.494 122.85C262.673 180.532 274.875 239.608 262.583 273.35C258.101 285.672 250.666 293.946 240.488 297.979L240.323 297.559L240.488 297.979C235.991 299.763 231.119 300.617 225.947 300.617ZM96.1338 1.86565C91.0372 1.86565 86.2554 2.70509 81.8333 4.45892C71.9099 8.38631 64.6547 16.4959 60.2627 28.5479C48.0608 62.0656 60.2476 120.842 91.3069 178.298C129.921 249.741 186.674 299.703 225.872 299.718C230.969 299.718 235.751 298.878 240.173 297.124C250.096 293.197 257.352 285.087 261.744 273.035C273.945 239.518 261.759 180.742 230.699 123.285C192.07 51.8424 135.318 1.86565 96.1338 1.86565Z" fill="url(#paint2_linear_597_6539)"/>
<path d="M234.576 300.931C196.621 300.931 140.064 256.515 96.9676 189.42C59.7924 131.543 41.3696 70.1593 50.0039 33.044C52.9719 20.2725 58.9829 11.0836 67.857 5.73213C103.159 -15.5537 173.672 32.2045 225.042 112.191C262.218 170.068 280.64 231.452 272.006 268.567C269.038 281.339 263.027 290.528 254.153 295.879C248.457 299.297 241.861 300.931 234.576 300.931ZM87.5389 1.53493C80.3737 1.53493 73.898 3.13886 68.3217 6.51162C59.6725 11.7281 53.7964 20.7222 50.8883 33.2538C42.299 70.1443 60.6918 131.244 97.7322 188.925C148.833 268.492 218.792 316.116 253.673 295.085L253.913 295.474L253.673 295.085C262.323 289.868 268.199 280.874 271.107 268.342C279.696 231.452 261.303 170.353 224.263 112.671C181.346 45.8454 125.119 1.53493 87.5389 1.53493Z" fill="url(#paint3_linear_597_6539)"/>
<path d="M242.44 300.227C240.477 300.227 238.453 300.122 236.354 299.897C198.789 295.88 146.984 256.606 104.367 199.839C45.9811 122.055 23.8708 36.7771 55.0651 9.73512C62.7549 3.06455 73.0381 0.366348 85.6147 1.70046C123.18 5.7028 174.985 44.9767 217.602 101.759C275.988 179.542 298.098 264.82 266.904 291.862C260.503 297.424 252.289 300.227 242.44 300.227ZM79.5438 2.28507C69.9202 2.28507 61.9005 5.01326 55.6647 10.4247C24.8302 37.1669 47.0004 121.891 105.102 199.284C147.569 255.856 199.134 294.995 236.459 298.983C248.781 300.302 258.825 297.664 266.32 291.173L266.619 291.518L266.32 291.173C297.154 264.431 274.984 179.707 216.882 102.314C174.416 45.7412 122.85 6.6022 85.5248 2.61485C83.4712 2.39 81.4775 2.28507 79.5438 2.28507Z" fill="url(#paint4_linear_597_6539)"/>
<path d="M249.401 298.429C213.081 298.429 159.551 263.802 112.662 209.882C47.8454 135.337 16.7411 48.2 43.3334 15.6267C49.914 7.56206 59.4627 3.36485 71.6796 3.16998C107.985 2.60036 162.024 37.3622 209.288 91.7161C274.105 166.261 305.209 253.399 278.617 285.972L278.257 285.687L278.617 285.972C272.036 294.036 262.488 298.234 250.271 298.429C249.986 298.429 249.701 298.429 249.401 298.429ZM72.5639 4.06938C72.2641 4.06938 71.9794 4.06938 71.6946 4.06938C59.7475 4.24926 50.4537 8.32655 44.038 16.1813C17.7155 48.4249 48.8198 135.052 113.352 209.268C160.451 263.427 214.22 298.084 250.256 297.499C262.203 297.319 271.497 293.242 277.912 285.387C304.235 253.144 273.131 166.516 208.598 92.3007C161.89 38.5914 108.63 4.06938 72.5639 4.06938Z" fill="url(#paint5_linear_597_6539)"/>
<path d="M255.207 295.684C220.401 295.684 169.195 266.648 121.781 219.415C51.2081 149.127 11.3046 61.18 32.8453 23.3452C38.3167 13.7366 47.2208 8.04037 59.2878 6.40645C93.9447 1.69959 149.258 31.4548 200.194 82.196C270.767 152.484 310.671 240.431 289.13 278.266C283.659 287.874 274.754 293.57 262.687 295.204C260.289 295.519 257.786 295.684 255.207 295.684ZM66.8128 6.82618C64.2495 6.82618 61.7911 6.99107 59.4227 7.30586C47.6405 8.90979 38.9613 14.4561 33.6398 23.7949C12.294 61.2849 52.1225 148.737 122.426 218.755C169.674 265.809 220.625 294.755 255.177 294.755C257.741 294.755 260.199 294.59 262.568 294.275C274.35 292.671 283.029 287.125 288.35 277.786C309.696 240.296 269.868 152.844 199.564 82.8256C152.301 35.7719 101.35 6.82618 66.8128 6.82618Z" fill="url(#paint6_linear_597_6539)"/>
<path d="M259.681 292.058C226.403 292.058 178.181 268.388 131.592 228.29C56.0118 163.233 7.63895 75.5717 23.7532 32.8651C28.0254 21.5476 36.3298 14.2475 48.4568 11.1595C81.15 2.82507 136.883 27.2138 190.427 73.3082C266.007 138.365 314.38 226.027 298.266 268.733C293.993 280.051 285.689 287.351 273.562 290.439C269.305 291.533 264.658 292.058 259.681 292.058ZM62.3975 10.44C57.4807 10.44 52.8939 10.9647 48.6817 12.0289C36.8695 15.0419 28.7749 22.1622 24.6077 33.1799C8.61332 75.5567 56.8811 162.769 132.191 227.601C185.526 273.5 240.914 297.814 273.337 289.554C285.149 286.541 293.244 279.421 297.411 268.403L297.831 268.568L297.411 268.403C313.406 226.042 265.138 138.815 189.828 73.9977C143.419 34.0493 95.4355 10.44 62.3975 10.44Z" fill="url(#paint7_linear_597_6539)"/>
<path d="M262.127 287.77C250.6 287.77 237.288 285.311 222.658 280.425C197.535 272.045 169.638 256.815 141.982 236.399C62.2349 177.518 5.79738 91.2354 16.1705 44.0768C19.0785 30.8706 26.7985 21.8166 39.1053 17.1997C54.0054 11.6084 74.8265 12.9725 99.3502 21.157C124.474 29.5365 152.37 44.7663 180.027 65.1828C259.774 124.064 316.211 210.346 305.838 257.505C302.93 270.711 295.21 279.765 282.903 284.382C276.892 286.646 269.922 287.77 262.127 287.77ZM59.6416 14.7863C52.1016 14.7863 45.2961 15.8506 39.42 18.0691C27.413 22.5811 19.888 31.3952 17.0549 44.2867C6.75678 91.1305 63.0294 176.978 142.521 235.679C197.31 276.137 252.278 294.92 282.573 283.543C294.58 279.031 302.105 270.216 304.938 257.325C315.237 210.481 258.964 124.633 179.472 65.9323C135.311 33.314 91.0157 14.7863 59.6416 14.7863Z" fill="url(#paint8_linear_597_6539)"/>
<path d="M262.488 283.017C233.093 283.017 193.879 269.226 152.851 243.608C69.8513 191.772 5.87384 108.008 10.2509 56.8921C11.5401 41.8271 18.7952 30.5846 31.222 24.3637C60.0328 9.9583 112.888 22.8347 169.145 57.9714C252.145 109.807 316.122 193.571 311.745 244.687L311.296 244.642L311.745 244.687C310.456 259.752 303.201 270.995 290.774 277.216C282.979 281.128 273.416 283.017 262.488 283.017ZM59.5381 19.462C48.7603 19.462 39.3166 21.3357 31.6267 25.1882C19.3199 31.3341 12.4394 42.037 11.1653 56.982C6.81819 107.798 70.6007 191.173 153.346 242.843C194.238 268.386 233.273 282.132 262.473 282.132C273.251 282.132 282.695 280.259 290.385 276.406C302.691 270.26 309.572 259.557 310.846 244.612C315.193 193.796 251.411 110.421 168.666 58.7508C127.773 33.2078 88.7387 19.462 59.5381 19.462Z" fill="url(#paint9_linear_597_6539)"/>
<path d="M260.662 277.967C233.95 277.967 199.968 268.328 164.082 249.831C78.8034 205.865 7.93056 125.728 6.11677 71.1946C5.54714 53.956 11.9929 40.5699 24.7644 32.5053C51.2967 15.7165 102.323 23.1066 157.936 51.7825C243.214 95.7482 314.087 175.885 315.901 230.419C316.47 247.657 310.025 261.043 297.253 269.108C287.839 275.044 275.338 277.967 260.662 277.967ZM61.355 24.5306C46.8446 24.5306 34.5229 27.4087 25.2441 33.2698C12.7574 41.1695 6.46151 54.2708 7.03114 71.1646C8.84493 125.399 79.4779 205.175 164.501 249.021C219.83 277.547 270.511 284.937 296.758 268.328C309.245 260.429 315.541 247.327 314.971 230.434C313.158 176.2 242.525 96.4228 157.501 52.577C121.735 34.1392 87.9023 24.5306 61.355 24.5306Z" fill="url(#paint10_linear_597_6539)"/>
<path d="M255.846 273.243C232.911 273.243 205.314 267.112 175.514 254.925C88.9618 219.549 11.943 144.134 3.81838 86.8122C1.06022 67.3251 6.51665 51.6456 19.6179 41.4373C44.2016 22.2951 91.6151 24.2438 146.464 46.6689C233.016 82.0453 310.035 157.46 318.159 214.782C320.918 234.269 315.461 249.949 302.36 260.157C291.132 268.896 275.138 273.243 255.846 273.243ZM66.132 29.2505C47.0496 29.2505 31.2652 33.5376 20.1876 42.1569C7.37109 52.1402 2.01965 67.535 4.73284 86.6773C12.8125 143.714 89.5914 218.814 175.859 254.071C230.408 276.361 277.476 278.355 301.805 259.422C314.622 249.439 319.973 234.044 317.26 214.902C309.18 157.865 232.401 82.7649 146.134 47.5083C116.424 35.3664 88.9468 29.2505 66.132 29.2505Z" fill="url(#paint11_linear_597_6539)"/>
<path d="M248.19 268.805C229.947 268.805 209.201 265.507 187.061 258.837C100.313 232.709 17.9731 163.065 3.50774 103.6C-1.76875 81.8794 2.47335 63.7265 15.7995 51.1049C37.9847 30.0889 82.5351 26.9709 134.97 42.7704C221.718 68.8981 304.058 138.542 318.523 198.007C323.8 219.728 319.557 237.881 306.231 250.502C293.415 262.629 273.133 268.805 248.19 268.805ZM73.7959 33.6865C49.1073 33.6865 29.0657 39.7724 16.4141 51.7495C3.34282 64.1312 -0.824448 81.9844 4.37709 103.375C18.7825 162.571 100.838 231.915 187.315 257.952C239.436 273.647 283.656 270.619 305.602 249.828C318.673 237.446 322.84 219.593 317.639 198.202C303.233 139.006 221.178 69.6625 134.7 43.6249C112.605 36.9843 91.9488 33.6865 73.7959 33.6865Z" fill="url(#paint12_linear_597_6539)"/>
<path d="M237.351 265.345C225.209 265.345 212.168 264.071 198.512 261.477C112.649 245.138 25.9015 182.27 5.12529 121.366C-3.01429 97.5165 -0.241113 76.7853 13.115 61.3905C32.8419 38.6806 74.1094 30.7359 123.487 40.1346C209.35 56.4738 296.097 119.327 316.873 180.246C325.013 204.096 322.239 224.827 308.883 240.222C294.613 256.636 269.085 265.345 237.351 265.345ZM84.6175 37.1666C53.1684 37.1666 27.8952 45.7559 13.8046 61.9901C0.673311 77.115 -2.03993 97.5465 5.97973 121.066C26.666 181.7 113.098 244.284 198.677 260.578C247.739 269.917 288.677 262.077 308.194 239.622C321.34 224.497 324.038 204.066 316.019 180.546C295.332 119.912 208.9 57.3282 123.322 41.034C109.696 38.4258 96.6994 37.1666 84.6175 37.1666Z" fill="url(#paint13_linear_597_6539)"/>
<path d="M224.787 263.321C219.9 263.321 214.893 263.141 209.752 262.766C125.882 256.635 35.7175 201.517 8.7504 139.893C-2.35721 114.515 -1.36791 90.5155 11.5235 72.2876C28.9719 47.629 65.6675 35.4421 112.227 38.8448C196.096 44.9758 286.261 100.094 313.228 161.718C324.335 187.081 323.346 211.095 310.455 229.323C294.94 251.254 264.18 263.321 224.787 263.321ZM97.1916 39.1896C58.1126 39.1896 27.6228 51.1217 12.273 72.8122C-0.618408 91.0251 -1.54776 114.095 9.58984 139.533C36.437 200.887 126.257 255.751 209.827 261.866C256.056 265.239 292.467 253.187 309.72 228.798C322.612 210.586 323.541 187.516 312.403 162.078C285.556 100.724 195.736 45.8452 112.167 39.7442C107.055 39.3695 102.063 39.1896 97.1916 39.1896Z" fill="url(#paint14_linear_597_6539)"/>
<path d="M209.95 262.96C131.867 262.96 45.9145 217.855 14.4055 158.99C0.030071 132.127 -1.19911 105.445 10.9428 83.8445C25.693 57.627 58.6411 41.2579 101.348 38.9194C182.114 34.5123 274.647 81.0264 307.611 142.605C321.986 169.468 323.215 196.15 311.073 217.75C296.323 243.968 263.375 260.337 220.668 262.676C217.116 262.87 213.533 262.96 209.95 262.96ZM112.066 39.549C108.483 39.549 104.93 39.6389 101.393 39.8338C59.0159 42.1423 26.3376 58.3465 11.7373 84.2942C-0.254692 105.595 0.989492 131.978 15.215 158.555C46.5742 217.151 132.182 262.046 209.95 262.046C213.533 262.046 217.086 261.956 220.623 261.761C263 259.453 295.678 243.249 310.279 217.301C322.271 196 321.042 169.617 306.801 143.04C275.427 84.4441 189.819 39.549 112.066 39.549Z" fill="url(#paint15_linear_597_6539)"/>
<path d="M195.443 264.533C127.404 264.533 54.8668 229.996 22.0236 178.416C4.30543 150.594 0.482982 121.408 11.2608 96.2402C23.1629 68.4187 52.2135 48.0773 90.9478 40.4323C167.532 25.3074 261.309 62.4227 299.984 123.177C317.702 150.999 321.524 180.184 310.747 205.353C298.845 233.174 269.794 253.516 231.06 261.161C219.502 263.439 207.54 264.533 195.443 264.533ZM126.594 37.959C114.542 37.959 102.64 39.0533 91.1127 41.3168C52.6783 48.9017 23.8824 69.0483 12.0852 96.585C1.44233 121.453 5.23483 150.339 22.7881 177.906C61.2825 238.376 154.625 275.311 230.88 260.246C269.314 252.661 298.11 232.515 309.907 204.978C320.55 180.109 316.758 151.224 299.204 123.657C266.541 72.3461 194.319 37.959 126.594 37.959Z" fill="url(#paint16_linear_597_6539)"/>
<path d="M182.394 268.057C124.382 268.057 64.2573 241.84 31.5641 197.949C10.638 169.842 3.84752 138.513 12.4818 109.762C21.4608 79.7974 45.8646 56.2181 81.1811 43.4016C152.519 17.4988 246.386 44.5408 290.412 103.676C311.338 131.783 318.128 163.112 309.509 191.863C300.53 221.828 276.126 245.407 240.81 258.224C222.432 264.894 202.54 268.042 182.394 268.057ZM139.627 34.4525C119.586 34.4525 99.7987 37.6004 81.4958 44.241C46.4492 56.9676 22.2553 80.322 13.3512 110.017C4.8219 138.498 11.5374 169.528 32.2986 197.409C64.8119 241.075 124.652 267.158 182.364 267.158C202.405 267.158 222.192 264.01 240.495 257.369C275.542 244.643 299.736 221.288 308.64 191.593C317.169 163.112 310.454 132.083 289.692 104.201C257.179 60.5352 197.339 34.4525 139.627 34.4525Z" fill="url(#paint17_linear_597_6539)"/>
<path d="M171.876 273.365C123.473 273.365 74.2908 253.579 42.9917 217.318C19.1725 189.721 9.15925 156.833 14.7805 124.724C20.3718 92.7956 40.7732 65.4687 72.2372 47.7505C137.309 11.1299 230.082 27.514 279.04 84.2662C302.859 111.863 312.872 144.751 307.251 176.86C301.66 208.788 281.258 236.115 249.794 253.833C226.305 267.055 199.218 273.365 171.876 273.365ZM150.17 29.1329C122.978 29.1329 96.0265 35.4137 72.672 48.56C41.4478 66.1283 21.1962 93.2453 15.6649 124.889C10.0886 156.728 20.0419 189.331 43.6662 216.718C92.3688 273.156 184.617 289.45 249.329 253.039C280.554 235.471 300.805 208.354 306.337 176.71C311.898 144.871 301.959 112.268 278.335 84.8808C247.231 48.8148 198.318 29.1329 150.17 29.1329Z" fill="url(#paint18_linear_597_6539)"/>
<path d="M164.584 280.2C124.936 280.2 85.0922 265.345 56.1465 236.294C30.0039 210.062 16.6028 176.409 18.4166 141.557C20.1854 107.395 36.4496 76.1409 64.1961 53.5359C121.998 6.43726 212.492 11.6988 265.887 65.3031C292.03 91.5356 305.431 125.188 303.617 160.04C301.848 194.202 285.584 225.457 257.837 248.062C231.38 269.617 198.042 280.2 164.584 280.2ZM157.449 22.2967C124.186 22.2967 91.0732 32.8197 64.7658 54.2554C37.2141 76.6955 21.0848 107.725 19.331 141.617C17.5322 176.214 30.8433 209.612 56.806 235.65C109.886 288.924 199.811 294.156 257.283 247.342C284.834 224.902 300.964 193.873 302.717 159.98C304.516 125.383 291.205 91.9853 265.242 65.9477C236.462 37.0619 196.843 22.2967 157.449 22.2967Z" fill="url(#paint19_linear_597_6539)"/>
<path d="M160.904 288.219C128.96 288.219 96.8667 277.171 70.9039 254.641C13.642 204.964 7.48116 117.962 57.1581 60.6999C106.835 3.43795 193.837 -2.72295 251.099 46.954C308.361 96.631 314.522 183.633 264.845 240.895C237.698 272.179 199.398 288.219 160.904 288.219ZM161.099 14.2907C122.859 14.2907 84.8297 30.2101 57.8627 61.2995C8.51553 118.172 14.6314 204.604 71.5186 253.951C97.3164 276.331 129.2 287.304 160.919 287.304C199.159 287.304 237.188 271.385 264.155 240.295C313.503 183.423 307.387 96.9907 250.499 47.6435C224.702 25.2634 192.818 14.2907 161.099 14.2907Z" fill="url(#paint20_linear_597_6539)"/>
<defs>
<linearGradient id="paint0_linear_597_6539" x1="66.0461" y1="150.798" x2="255.949" y2="150.798" gradientUnits="userSpaceOnUse">
<stop stop-color="#83A4D4"/>
<stop offset="0.9543" stop-color="#B4F7FD"/>
<stop offset="0.9994" stop-color="#B6FBFF"/>
</linearGradient>
<linearGradient id="paint1_linear_597_6539" x1="60.9119" y1="150.797" x2="261.066" y2="150.797" gradientUnits="userSpaceOnUse">
<stop stop-color="#83A4D4"/>
<stop offset="0.9543" stop-color="#B4F7FD"/>
<stop offset="0.9994" stop-color="#B6FBFF"/>
</linearGradient>
<linearGradient id="paint2_linear_597_6539" x1="54.6772" y1="150.798" x2="267.3" y2="150.798" gradientUnits="userSpaceOnUse">
<stop stop-color="#83A4D4"/>
<stop offset="0.9543" stop-color="#B4F7FD"/>
<stop offset="0.9994" stop-color="#B6FBFF"/>
</linearGradient>
<linearGradient id="paint3_linear_597_6539" x1="47.8945" y1="150.797" x2="274.102" y2="150.797" gradientUnits="userSpaceOnUse">
<stop stop-color="#83A4D4"/>
<stop offset="0.9543" stop-color="#B4F7FD"/>
<stop offset="0.9994" stop-color="#B6FBFF"/>
</linearGradient>
<linearGradient id="paint4_linear_597_6539" x1="40.9209" y1="150.797" x2="281.065" y2="150.797" gradientUnits="userSpaceOnUse">
<stop stop-color="#83A4D4"/>
<stop offset="0.9543" stop-color="#B4F7FD"/>
<stop offset="0.9994" stop-color="#B6FBFF"/>
</linearGradient>
<linearGradient id="paint5_linear_597_6539" x1="33.8303" y1="150.798" x2="288.136" y2="150.798" gradientUnits="userSpaceOnUse">
<stop stop-color="#83A4D4"/>
<stop offset="0.9543" stop-color="#B4F7FD"/>
<stop offset="0.9994" stop-color="#B6FBFF"/>
</linearGradient>
<linearGradient id="paint6_linear_597_6539" x1="27.0001" y1="150.796" x2="294.976" y2="150.796" gradientUnits="userSpaceOnUse">
<stop stop-color="#83A4D4"/>
<stop offset="0.9543" stop-color="#B4F7FD"/>
<stop offset="0.9994" stop-color="#B6FBFF"/>
</linearGradient>
<linearGradient id="paint7_linear_597_6539" x1="20.6569" y1="150.798" x2="301.363" y2="150.798" gradientUnits="userSpaceOnUse">
<stop stop-color="#83A4D4"/>
<stop offset="0.9543" stop-color="#B4F7FD"/>
<stop offset="0.9994" stop-color="#B6FBFF"/>
</linearGradient>
<linearGradient id="paint8_linear_597_6539" x1="14.9363" y1="150.797" x2="307.058" y2="150.797" gradientUnits="userSpaceOnUse">
<stop stop-color="#83A4D4"/>
<stop offset="0.9543" stop-color="#B4F7FD"/>
<stop offset="0.9994" stop-color="#B6FBFF"/>
</linearGradient>
<linearGradient id="paint9_linear_597_6539" x1="10.0414" y1="150.796" x2="311.956" y2="150.796" gradientUnits="userSpaceOnUse">
<stop stop-color="#83A4D4"/>
<stop offset="0.9543" stop-color="#B4F7FD"/>
<stop offset="0.9994" stop-color="#B6FBFF"/>
</linearGradient>
<linearGradient id="paint10_linear_597_6539" x1="6.07764" y1="150.798" x2="315.926" y2="150.798" gradientUnits="userSpaceOnUse">
<stop stop-color="#83A4D4"/>
<stop offset="0.9543" stop-color="#B4F7FD"/>
<stop offset="0.9994" stop-color="#B6FBFF"/>
</linearGradient>
<linearGradient id="paint11_linear_597_6539" x1="3.13139" y1="150.796" x2="318.862" y2="150.796" gradientUnits="userSpaceOnUse">
<stop stop-color="#83A4D4"/>
<stop offset="0.9543" stop-color="#B4F7FD"/>
<stop offset="0.9994" stop-color="#B6FBFF"/>
</linearGradient>
<linearGradient id="paint12_linear_597_6539" x1="1.28125" y1="150.795" x2="320.72" y2="150.795" gradientUnits="userSpaceOnUse">
<stop stop-color="#83A4D4"/>
<stop offset="0.9543" stop-color="#B4F7FD"/>
<stop offset="0.9994" stop-color="#B6FBFF"/>
</linearGradient>
<linearGradient id="paint13_linear_597_6539" x1="0.552741" y1="150.797" x2="321.447" y2="150.797" gradientUnits="userSpaceOnUse">
<stop stop-color="#83A4D4"/>
<stop offset="0.9543" stop-color="#B4F7FD"/>
<stop offset="0.9994" stop-color="#B6FBFF"/>
</linearGradient>
<linearGradient id="paint14_linear_597_6539" x1="1.09242" y1="150.797" x2="320.902" y2="150.797" gradientUnits="userSpaceOnUse">
<stop stop-color="#83A4D4"/>
<stop offset="0.9543" stop-color="#B4F7FD"/>
<stop offset="0.9994" stop-color="#B6FBFF"/>
</linearGradient>
<linearGradient id="paint15_linear_597_6539" x1="2.64898" y1="150.796" x2="319.353" y2="150.796" gradientUnits="userSpaceOnUse">
<stop stop-color="#83A4D4"/>
<stop offset="0.9543" stop-color="#B4F7FD"/>
<stop offset="0.9994" stop-color="#B6FBFF"/>
</linearGradient>
<linearGradient id="paint16_linear_597_6539" x1="5.2639" y1="150.795" x2="316.745" y2="150.795" gradientUnits="userSpaceOnUse">
<stop stop-color="#83A4D4"/>
<stop offset="0.9543" stop-color="#B4F7FD"/>
<stop offset="0.9994" stop-color="#B6FBFF"/>
</linearGradient>
<linearGradient id="paint17_linear_597_6539" x1="8.83395" y1="150.796" x2="313.158" y2="150.796" gradientUnits="userSpaceOnUse">
<stop stop-color="#83A4D4"/>
<stop offset="0.9543" stop-color="#B4F7FD"/>
<stop offset="0.9994" stop-color="#B6FBFF"/>
</linearGradient>
<linearGradient id="paint18_linear_597_6539" x1="13.2524" y1="150.798" x2="308.78" y2="150.798" gradientUnits="userSpaceOnUse">
<stop stop-color="#83A4D4"/>
<stop offset="0.9543" stop-color="#B4F7FD"/>
<stop offset="0.9994" stop-color="#B6FBFF"/>
</linearGradient>
<linearGradient id="paint19_linear_597_6539" x1="18.2414" y1="150.797" x2="303.778" y2="150.797" gradientUnits="userSpaceOnUse">
<stop stop-color="#83A4D4"/>
<stop offset="0.9543" stop-color="#B4F7FD"/>
<stop offset="0.9994" stop-color="#B6FBFF"/>
</linearGradient>
<linearGradient id="paint20_linear_597_6539" x1="23.586" y1="150.796" x2="298.418" y2="150.796" gradientUnits="userSpaceOnUse">
<stop stop-color="#83A4D4"/>
<stop offset="0.9543" stop-color="#B4F7FD"/>
<stop offset="0.9994" stop-color="#B6FBFF"/>
</linearGradient>
</defs>
</svg>
