<svg width="168" height="196" viewBox="0 0 168 196" fill="none" xmlns="http://www.w3.org/2000/svg">
<g clip-path="url(#clip0_545_4396)">
<path d="M79.3861 111.054C79.315 111.054 79.2438 111.019 79.1905 110.965L70.6661 100.672C70.6127 100.601 70.595 100.503 70.6216 100.423L75.1639 87.7919C75.1905 87.703 75.2705 87.6407 75.3594 87.6319L88.4261 85.2941C88.515 85.2763 88.6039 85.3119 88.6572 85.383L97.1816 95.6763C97.235 95.7474 97.2527 95.8452 97.2261 95.9252L92.6839 108.556C92.6572 108.645 92.5772 108.707 92.4883 108.716L79.4216 111.054C79.4127 111.054 79.395 111.054 79.3861 111.054ZM71.1461 100.459L79.4839 110.53L92.2661 108.245L96.7105 95.8896L88.3638 85.8185L75.5816 88.103L71.1461 100.459Z" fill="url(#paint0_linear_545_4396)"/>
<path d="M77.9422 111.383C77.8622 111.383 77.7822 111.347 77.7378 111.276L69.64 99.5693C69.5866 99.4982 69.5778 99.4005 69.6222 99.3205L75.5867 86.3604C75.6222 86.2804 75.7022 86.2271 75.7911 86.2182L89.8533 84.9738C89.9422 84.9649 90.0311 85.0093 90.0755 85.0804L98.1733 96.7871C98.2267 96.8582 98.2355 96.956 98.1911 97.036L92.2267 109.996C92.1911 110.076 92.1111 110.129 92.0222 110.138L77.96 111.383C77.96 111.383 77.9511 111.383 77.9422 111.383ZM70.1378 99.3916L78.0667 110.858L91.8444 109.632L97.6933 96.9382L89.7644 85.4716L75.9866 86.6982L70.1378 99.3916Z" fill="url(#paint1_linear_545_4396)"/>
<path d="M91.4274 111.596H76.414C76.3251 111.596 76.2451 111.551 76.2007 111.471L68.6896 98.2977C68.6451 98.2177 68.6451 98.12 68.6896 98.04L76.2007 84.8666C76.2451 84.7866 76.3251 84.7422 76.414 84.7422H91.4274C91.5163 84.7422 91.5962 84.7866 91.6407 84.8666L99.1518 98.04C99.1963 98.12 99.1963 98.2177 99.1518 98.2977L91.6407 111.471C91.6051 111.551 91.5163 111.596 91.4274 111.596ZM76.5563 111.089H91.2851L98.6451 98.1733L91.2851 85.2577H76.5563L69.1962 98.1733L76.5563 111.089Z" fill="url(#paint2_linear_545_4396)"/>
<path d="M90.6765 113.09C90.6676 113.09 90.6587 113.09 90.6587 113.09L74.7476 111.676C74.6587 111.667 74.5787 111.614 74.5431 111.534L67.7876 96.8673C67.752 96.7873 67.7609 96.6896 67.8053 96.6185L76.9698 83.3651C77.0231 83.294 77.112 83.2496 77.192 83.2585L93.1031 84.6718C93.192 84.6807 93.272 84.734 93.3076 84.814L100.063 99.4807C100.099 99.5607 100.09 99.6585 100.045 99.7296L90.8809 112.983C90.8365 113.054 90.7653 113.09 90.6765 113.09ZM74.9342 111.187L90.5609 112.574L99.5565 99.5607L92.9253 85.1607L77.2987 83.774L68.3031 96.7873L74.9342 111.187Z" fill="url(#paint3_linear_545_4396)"/>
<path d="M89.7272 114.601C89.7094 114.601 89.7005 114.601 89.6827 114.601L72.9449 111.605C72.8561 111.587 72.7849 111.525 72.7494 111.445L66.936 95.2672C66.9094 95.1783 66.9183 95.0894 66.9805 95.0183L77.896 81.8361C77.9494 81.765 78.0383 81.7294 78.1272 81.7472L94.8649 84.7428C94.9538 84.7605 95.0249 84.8228 95.0605 84.9028L100.874 101.081C100.9 101.169 100.892 101.258 100.829 101.329L89.9138 114.512C89.8694 114.565 89.7983 114.601 89.7272 114.601ZM73.1761 111.134L89.6294 114.076L100.358 101.116L94.6427 85.2139L78.1894 82.2717L67.4605 95.2317L73.1761 111.134Z" fill="url(#paint4_linear_545_4396)"/>
<path d="M88.6045 116.112C88.5868 116.112 88.5601 116.112 88.5423 116.103L71.0756 111.356C70.9868 111.33 70.9245 111.267 70.8979 111.179L66.2134 93.4897C66.1868 93.4008 66.2134 93.3119 66.2756 93.2408L79.049 80.2986C79.1112 80.2364 79.2001 80.2097 79.289 80.2364L96.7556 84.983C96.8445 85.0097 96.9068 85.0719 96.9334 85.1608L101.618 102.85C101.645 102.939 101.618 103.027 101.556 103.099L88.7823 116.041C88.729 116.094 88.6668 116.112 88.6045 116.112ZM71.3423 110.912L88.5245 115.587L101.093 102.85L96.4801 85.4453L79.2979 80.7697L66.729 93.5075L71.3423 110.912Z" fill="url(#paint5_linear_545_4396)"/>
<path d="M87.2694 117.614C87.2427 117.614 87.2161 117.605 87.1805 117.597L69.1094 110.921C69.0294 110.894 68.9672 110.814 68.9494 110.726L65.5983 91.5344C65.5805 91.4455 65.6161 91.3566 65.6872 91.2944L80.4072 78.7788C80.4783 78.7166 80.5672 78.7077 80.6561 78.7344L98.7272 85.4099C98.8072 85.4366 98.8694 85.5166 98.8872 85.6055L102.238 104.797C102.256 104.885 102.22 104.974 102.149 105.037L87.4294 117.552C87.3761 117.597 87.3227 117.614 87.2694 117.614ZM69.4116 110.503L87.2161 117.072L101.714 104.743L98.4161 85.8455L80.6116 79.2766L66.1138 91.6055L69.4116 110.503Z" fill="url(#paint6_linear_545_4396)"/>
<path d="M85.7128 119.081C85.6772 119.081 85.6417 119.072 85.6061 119.054L67.0639 110.281C66.9839 110.245 66.9306 110.165 66.9217 110.076L65.1261 89.4273C65.1172 89.3384 65.1617 89.2495 65.2328 89.1962L81.9795 77.3207C82.0506 77.2673 82.1484 77.2584 82.2284 77.3029L100.771 86.0762C100.851 86.1118 100.904 86.1918 100.913 86.2807L102.708 106.93C102.717 107.018 102.673 107.107 102.602 107.161L85.855 119.036C85.8106 119.063 85.7572 119.081 85.7128 119.081ZM67.4017 109.881L85.6861 118.53L102.193 106.823L100.424 86.4673L82.1395 77.8184L65.6328 89.5251L67.4017 109.881Z" fill="url(#paint7_linear_545_4396)"/>
<path d="M83.9481 120.476C83.9037 120.476 83.8592 120.467 83.8237 120.44L64.9704 109.4C64.8904 109.356 64.8459 109.276 64.8459 109.178L64.8281 87.1336C64.8281 87.0447 64.8726 86.9559 64.9526 86.9114L83.7881 75.8981C83.8681 75.8536 83.957 75.8536 84.037 75.8981L102.89 86.9381C102.97 86.9825 103.015 87.0625 103.015 87.1603L103.033 109.214C103.033 109.303 102.988 109.391 102.908 109.436L84.0726 120.449C84.0281 120.467 83.9837 120.476 83.9481 120.476ZM65.3437 109.036L83.9392 119.934L102.526 109.071L102.508 87.3114L83.9126 76.4136L65.3259 87.2759L65.3437 109.036Z" fill="url(#paint8_linear_545_4396)"/>
<path d="M81.922 121.8C81.8687 121.8 81.8243 121.782 81.7798 121.756L62.8109 108.28C62.7398 108.227 62.6954 108.138 62.7043 108.049L64.7043 84.6802C64.7131 84.5914 64.7665 84.5114 64.8465 84.4758L85.8154 74.5736C85.8954 74.538 85.9931 74.5469 86.0643 74.6002L105.033 88.0758C105.104 88.1291 105.149 88.218 105.14 88.3069L103.14 111.667C103.131 111.756 103.078 111.836 102.998 111.871L82.0287 121.774C81.9931 121.791 81.9576 121.8 81.922 121.8ZM63.2109 107.951L81.9398 121.258L102.642 111.48L104.615 88.3958L85.8954 75.0891L65.1931 84.8669L63.2109 107.951Z" fill="url(#paint9_linear_545_4396)"/>
<path d="M79.6685 123.01C79.6063 123.01 79.553 122.992 79.5085 122.948L60.6374 106.885C60.5663 106.823 60.5396 106.734 60.5485 106.645L64.8063 82.0676C64.8241 81.9787 64.8863 81.9076 64.9663 81.872L88.0952 73.3565C88.1752 73.3298 88.273 73.3387 88.3441 73.4009L107.215 89.4631C107.286 89.5253 107.313 89.6142 107.304 89.7031L103.055 114.281C103.037 114.37 102.975 114.441 102.895 114.476L79.7752 122.992C79.7307 123.001 79.6952 123.01 79.6685 123.01ZM61.073 106.592L79.7219 122.468L102.575 114.05L106.78 89.7565L88.1219 73.8809L65.2685 82.2987L61.073 106.592Z" fill="url(#paint10_linear_545_4396)"/>
<path d="M77.1743 124.077C77.112 124.077 77.0409 124.05 76.9965 124.006L58.4631 105.206C58.4009 105.144 58.3743 105.046 58.4009 104.957L65.1565 79.3036C65.1831 79.2147 65.2454 79.1436 65.3343 79.1258L90.6143 72.2725C90.7031 72.2458 90.792 72.2725 90.8543 72.3347L109.388 91.1347C109.45 91.1969 109.476 91.2947 109.45 91.3836L102.694 117.037C102.668 117.126 102.605 117.197 102.516 117.215L77.2365 124.068C77.2187 124.077 77.192 124.077 77.1743 124.077ZM58.9254 104.948L77.2543 123.544L102.259 116.77L108.934 91.4014L90.6054 72.8058L65.6009 79.5792L58.9254 104.948Z" fill="url(#paint11_linear_545_4396)"/>
<path d="M74.4066 124.975C74.3355 124.975 74.2644 124.939 74.2111 124.886L56.2911 103.224C56.2377 103.153 56.22 103.055 56.2466 102.975L65.7489 76.4239C65.7755 76.335 65.8555 76.2728 65.9444 76.2639L93.3666 71.3839C93.4555 71.3661 93.5444 71.4017 93.5977 71.4728L111.518 93.135C111.571 93.2061 111.589 93.3039 111.562 93.3839L102.06 119.935C102.033 120.024 101.953 120.086 101.864 120.095L74.4422 124.975C74.4333 124.975 74.4155 124.975 74.4066 124.975ZM56.7711 103.011L74.5044 124.451L101.642 119.615L111.047 93.3395L93.3133 71.8995L66.1755 76.735L56.7711 103.011Z" fill="url(#paint12_linear_545_4396)"/>
<path d="M71.4203 125.667C71.3403 125.667 71.2603 125.631 71.2158 125.56L54.2025 100.911C54.1492 100.84 54.1403 100.743 54.1847 100.663L66.6825 73.4181C66.718 73.3381 66.798 73.2848 66.8869 73.2759L96.398 70.6803C96.4869 70.6714 96.5758 70.7159 96.6203 70.787L113.634 95.4359C113.687 95.507 113.696 95.6048 113.651 95.6848L101.154 122.929C101.118 123.009 101.038 123.071 100.949 123.071L71.438 125.667C71.4292 125.667 71.4291 125.667 71.4203 125.667ZM54.6914 100.743L71.5358 125.151L100.754 122.583L113.127 95.6048L96.2825 71.1959L67.0647 73.7648L54.6914 100.743Z" fill="url(#paint13_linear_545_4396)"/>
<path d="M99.6918 126.148L68.1807 126.121C68.0918 126.121 68.0118 126.077 67.9674 125.997L52.1896 98.2724C52.1451 98.1924 52.1451 98.0946 52.1896 98.0146L67.9229 70.3168C67.9674 70.2368 68.0474 70.1924 68.1363 70.1924L99.6474 70.2191C99.7362 70.2191 99.8162 70.2635 99.8607 70.3435L115.638 98.0679C115.683 98.1479 115.683 98.2457 115.638 98.3257L99.9051 126.023C99.8696 126.103 99.7807 126.148 99.6918 126.148ZM68.3318 125.615L99.5496 125.641L115.141 98.2013L99.514 70.7346L68.2963 70.7079L52.7051 98.1479L68.3318 125.615Z" fill="url(#paint14_linear_545_4396)"/>
<path d="M98.0987 129.285C98.0899 129.285 98.081 129.285 98.081 129.285L64.6943 126.299C64.6054 126.29 64.5254 126.236 64.4899 126.156L50.3032 95.2943C50.2676 95.2143 50.2765 95.1165 50.321 95.0454L69.5299 67.1698C69.5832 67.0987 69.6721 67.0542 69.761 67.0631L103.148 70.0498C103.237 70.0587 103.317 70.112 103.352 70.192L117.539 101.054C117.574 101.134 117.565 101.232 117.521 101.303L98.3121 129.179C98.2587 129.25 98.1876 129.285 98.0987 129.285ZM64.881 125.81L97.9832 128.779L117.023 101.143L102.961 70.5476L69.8587 67.5787L50.8187 95.2142L64.881 125.81Z" fill="url(#paint15_linear_545_4396)"/>
<path d="M96.1322 132.467C96.1145 132.467 96.1056 132.467 96.0878 132.467L60.9767 126.156C60.8878 126.138 60.8167 126.076 60.79 125.996L48.5767 91.9516C48.55 91.8627 48.5589 91.7738 48.6211 91.7027L71.5189 63.9694C71.5722 63.8983 71.6611 63.8627 71.75 63.8805L106.861 70.1916C106.95 70.2094 107.021 70.2716 107.057 70.3516L119.27 104.396C119.297 104.485 119.288 104.574 119.226 104.645L96.3278 132.378C96.2745 132.432 96.2033 132.467 96.1322 132.467ZM61.1989 125.685L96.0256 131.943L118.737 104.432L106.621 70.6627L71.7944 64.405L49.0833 91.9161L61.1989 125.685Z" fill="url(#paint16_linear_545_4396)"/>
<path d="M93.7527 135.649C93.7349 135.649 93.7082 135.649 93.6904 135.64L57.0504 125.649C56.9615 125.622 56.8993 125.56 56.8727 125.471L47.0415 88.2445C47.0149 88.1556 47.0415 88.0667 47.1038 87.9956L73.9038 60.76C73.966 60.6978 74.0549 60.6711 74.1438 60.6978L110.784 70.6889C110.873 70.7156 110.935 70.7778 110.962 70.8667L120.793 108.093C120.819 108.182 120.793 108.271 120.73 108.342L93.9304 135.578C93.8771 135.622 93.8149 135.649 93.7527 135.649ZM57.3171 125.204L93.6727 135.116L120.268 108.084L110.508 71.1422L74.1527 61.2311L47.566 88.2622L57.3171 125.204Z" fill="url(#paint17_linear_545_4396)"/>
<path d="M90.9435 138.805C90.9168 138.805 90.8813 138.796 90.8546 138.787L52.9435 124.752C52.8635 124.716 52.8013 124.645 52.7835 124.556L45.7702 84.1829C45.7524 84.094 45.7879 84.0051 45.859 83.9429L76.7568 57.5962C76.8279 57.534 76.9168 57.5251 77.0057 57.5518L114.917 71.5873C114.997 71.614 115.059 71.694 115.077 71.7829L122.09 112.156C122.108 112.245 122.072 112.334 122.001 112.396L91.1035 138.743C91.059 138.778 91.0057 138.805 90.9435 138.805ZM53.2546 124.325L90.899 138.254L121.575 112.103L114.606 72.014L76.9613 58.0851L46.2857 84.2362L53.2546 124.325Z" fill="url(#paint18_linear_545_4396)"/>
<path d="M87.6556 141.88C87.6201 141.88 87.5845 141.872 87.549 141.854L48.6512 123.418C48.5712 123.383 48.5179 123.303 48.509 123.214L44.7668 79.756C44.7579 79.6671 44.8023 79.5782 44.8734 79.5249L80.0201 54.5116C80.0912 54.4582 80.189 54.4493 80.269 54.4938L119.167 72.9293C119.247 72.9649 119.3 73.0449 119.309 73.1338L123.06 116.583C123.069 116.672 123.025 116.76 122.953 116.814L87.8068 141.827C87.7623 141.863 87.709 141.88 87.6556 141.88ZM48.9979 123.018L87.629 141.329L122.545 116.485L118.82 73.3293L80.189 55.0182L45.2734 79.8627L48.9979 123.018Z" fill="url(#paint19_linear_545_4396)"/>
<path d="M83.9273 144.824C83.8828 144.824 83.8384 144.815 83.8028 144.788L44.2651 121.588C44.1851 121.544 44.1406 121.455 44.1406 121.366V74.9658C44.1406 74.8769 44.1851 74.788 44.2651 74.7436L83.8028 51.5436C83.8828 51.4991 83.9717 51.4991 84.0517 51.5436L123.59 74.7436C123.67 74.788 123.714 74.8769 123.714 74.9658V121.366C123.714 121.455 123.67 121.544 123.59 121.588L84.0517 144.788C84.0073 144.815 83.9717 144.824 83.9273 144.824ZM44.6384 121.224L83.9273 144.272L123.216 121.224V75.1169L83.9273 52.068L44.6384 75.1169V121.224Z" fill="url(#paint20_linear_545_4396)"/>
<path d="M79.684 147.596C79.6307 147.596 79.5863 147.578 79.5418 147.552L39.764 119.249C39.6929 119.196 39.6485 119.107 39.6574 119.018L43.8974 69.845C43.9063 69.7562 43.9596 69.6762 44.0396 69.6406L88.0574 48.7695C88.1374 48.7339 88.2351 48.7428 88.3063 48.7873L128.084 77.0895C128.155 77.1428 128.2 77.2317 128.191 77.3206L123.951 126.494C123.942 126.583 123.888 126.663 123.808 126.698L79.7818 147.578C79.7552 147.596 79.7196 147.596 79.684 147.596ZM40.164 118.921L79.7107 147.054L123.471 126.307L127.684 77.4273L88.1374 49.2939L44.3774 70.0317L40.164 118.921Z" fill="url(#paint21_linear_545_4396)"/>
<path d="M74.9333 150.139C74.871 150.139 74.8177 150.121 74.7733 150.077L35.1999 116.343C35.1288 116.281 35.1021 116.192 35.111 116.103L44.0977 64.3876C44.1155 64.2988 44.1777 64.2276 44.2577 64.1921L92.8177 46.2188C92.8977 46.1921 92.9955 46.201 93.0666 46.2632L132.64 80.0054C132.711 80.0676 132.738 80.1565 132.729 80.2454L123.742 131.961C123.724 132.05 123.662 132.121 123.582 132.157L75.0221 150.13C74.9866 150.139 74.9599 150.139 74.9333 150.139ZM35.6266 116.05L74.9777 149.605L123.262 131.73L132.204 80.3077L92.8532 46.7521L44.5688 64.6188L35.6266 116.05Z" fill="url(#paint22_linear_545_4396)"/>
<path d="M69.6505 152.388C69.5883 152.388 69.5172 152.361 69.4727 152.316L30.6194 112.841C30.5572 112.779 30.5305 112.681 30.5572 112.592L44.8061 58.6275C44.8327 58.5387 44.8949 58.4675 44.9838 58.4498L98.0861 43.9698C98.1749 43.9431 98.2638 43.9698 98.3261 44.032L137.179 83.5075C137.242 83.5698 137.268 83.6675 137.242 83.7564L122.993 137.721C122.966 137.81 122.904 137.881 122.815 137.899L69.7216 152.379C69.695 152.388 69.6772 152.388 69.6505 152.388ZM31.0816 112.583L69.7305 151.854L122.557 137.445L136.735 83.7653L98.0861 44.4942L45.2594 58.9031L31.0816 112.583Z" fill="url(#paint23_linear_545_4396)"/>
<path d="M63.8948 154.272C63.8237 154.272 63.7526 154.236 63.6993 154.183L26.1348 108.69C26.0815 108.619 26.0637 108.521 26.0904 108.441L46.1259 52.5919C46.1526 52.503 46.2326 52.4408 46.3215 52.4319L103.921 42.0763C104.01 42.0585 104.099 42.0941 104.153 42.1652L141.717 87.6585C141.77 87.7296 141.788 87.8274 141.761 87.9074L121.726 143.756C121.699 143.845 121.619 143.907 121.539 143.916L63.9393 154.272C63.9215 154.272 63.9037 154.272 63.8948 154.272ZM26.6059 108.476L63.9926 153.747L121.308 143.445L141.246 87.8719L103.859 42.6008L46.5437 52.903L26.6059 108.476Z" fill="url(#paint24_linear_545_4396)"/>
<path d="M57.5759 155.73C57.4959 155.73 57.4159 155.685 57.3714 155.623L21.7181 103.872C21.6648 103.801 21.6559 103.703 21.7003 103.623L48.0381 46.3254C48.0737 46.2454 48.1537 46.192 48.2426 46.1831L110.234 40.6276C110.323 40.6187 110.411 40.6631 110.465 40.7343L146.118 92.4854C146.171 92.5565 146.18 92.6543 146.136 92.7343L119.798 150.032C119.763 150.112 119.683 150.165 119.594 150.174L57.6026 155.73C57.5848 155.73 57.5848 155.73 57.5759 155.73ZM22.207 103.703L57.7003 155.214L119.407 149.685L145.62 92.6543L110.127 41.1431L48.4203 46.672L22.207 103.703Z" fill="url(#paint25_linear_545_4396)"/>
<path d="M50.7732 156.671C50.6843 156.671 50.6043 156.627 50.5599 156.547L17.5021 98.3514C17.4576 98.2714 17.4576 98.1737 17.5021 98.0937L50.6488 39.8448C50.6932 39.7648 50.7732 39.7203 50.8621 39.7203L117.067 39.667C117.155 39.667 117.235 39.7114 117.28 39.7914L150.338 97.987C150.382 98.067 150.382 98.1648 150.338 98.2448L117.191 156.494C117.147 156.574 117.067 156.618 116.978 156.618L50.7732 156.671ZM17.9999 98.227L50.9154 156.165L116.835 156.111L149.84 98.1203L116.924 40.1825L51.0043 40.2359L17.9999 98.227Z" fill="url(#paint26_linear_545_4396)"/>
<path d="M113.637 163.214C113.629 163.214 113.62 163.214 113.62 163.214L43.4508 157.045C43.3619 157.036 43.2819 156.983 43.2464 156.903L13.5219 92.1116C13.4864 92.0316 13.4953 91.9338 13.5397 91.8627L53.993 33.2494C54.0464 33.1783 54.1264 33.1338 54.2153 33.1427L124.384 39.3116C124.473 39.3205 124.553 39.3738 124.589 39.4538L154.304 104.236C154.34 104.316 154.331 104.414 154.286 104.485L113.833 163.098C113.789 163.169 113.717 163.214 113.637 163.214ZM43.6286 156.547L113.513 162.698L153.797 104.325L124.206 39.8094L54.3219 33.6583L14.0375 92.0227L43.6286 156.547Z" fill="url(#paint27_linear_545_4396)"/>
<path d="M109.482 169.881C109.465 169.881 109.456 169.881 109.438 169.881L35.6335 156.735C35.5447 156.717 35.4736 156.655 35.438 156.575L9.87355 85.1168C9.84688 85.0279 9.85577 84.939 9.91799 84.8679L58.1491 26.5568C58.2024 26.4857 58.3002 26.4501 58.3802 26.4679L132.176 39.6146C132.265 39.6324 132.336 39.6946 132.371 39.7746L157.945 111.223C157.971 111.312 157.962 111.401 157.9 111.472L109.669 169.783C109.625 169.846 109.554 169.881 109.482 169.881ZM35.8647 156.263L109.376 169.357L157.42 111.268L131.945 40.0946L58.4336 27.0012L10.3891 85.0812L35.8647 156.263Z" fill="url(#paint28_linear_545_4396)"/>
<path d="M104.489 176.556C104.471 176.556 104.444 176.556 104.427 176.547L27.4132 155.676C27.3243 155.649 27.2621 155.587 27.2354 155.498L6.66655 77.3649C6.63988 77.276 6.66655 77.1871 6.72877 77.116L63.1643 19.8538C63.2265 19.7915 63.3243 19.7649 63.4043 19.7915L140.418 40.6627C140.507 40.6893 140.569 40.7515 140.595 40.8404L161.164 118.974C161.191 119.063 161.164 119.152 161.102 119.223L104.667 176.485C104.613 176.529 104.551 176.556 104.489 176.556ZM27.6799 155.223L104.409 176.014L160.64 118.965L140.142 41.116L63.4221 20.3249L7.1821 77.3827L27.6799 155.223Z" fill="url(#paint29_linear_545_4396)"/>
<path d="M98.571 183.161C98.5443 183.161 98.5177 183.152 98.4821 183.143L18.7754 153.783C18.6954 153.756 18.6332 153.676 18.6154 153.587L3.95766 68.8585C3.93988 68.7696 3.97543 68.6807 4.04654 68.6185L69.0954 13.2407C69.1665 13.1785 69.2554 13.1696 69.3443 13.1963L149.051 42.5563C149.131 42.583 149.193 42.663 149.211 42.7519L163.869 127.49C163.887 127.579 163.851 127.667 163.78 127.73L98.731 183.099C98.6865 183.143 98.6243 183.161 98.571 183.161ZM19.0865 153.356L98.5177 182.619L163.344 127.436L148.731 42.9919L69.2999 13.7296L4.47321 68.9119L19.0865 153.356Z" fill="url(#paint30_linear_545_4396)"/>
<path d="M91.7072 189.605C91.6717 189.605 91.6361 189.596 91.6006 189.578L9.8139 150.965C9.7339 150.929 9.68057 150.849 9.67168 150.76L1.87613 59.5781C1.86724 59.4892 1.91168 59.4003 1.98279 59.347L75.9828 6.78696C76.0539 6.73362 76.1517 6.72473 76.2317 6.76918L158.018 45.3825C158.098 45.4181 158.152 45.4981 158.161 45.587L165.956 136.769C165.965 136.858 165.921 136.947 165.849 137L91.8583 189.569C91.8139 189.587 91.7606 189.605 91.7072 189.605ZM10.1606 150.574L91.6895 189.063L165.449 136.663L157.681 45.7736L76.1517 7.28474L2.39168 59.6847L10.1606 150.574Z" fill="url(#paint31_linear_545_4396)"/>
<path d="M83.8487 195.792C83.8042 195.792 83.7598 195.784 83.7242 195.757L0.577569 147.144C0.497569 147.099 0.453125 147.01 0.453125 146.921L0.524236 49.5613C0.524236 49.4724 0.568681 49.3835 0.648681 49.3391L83.8753 0.592415C83.9553 0.547971 84.0442 0.547971 84.1242 0.592415L167.271 49.2057C167.351 49.2502 167.395 49.3391 167.395 49.428L167.324 146.788C167.324 146.877 167.28 146.966 167.2 147.01L83.9731 195.757C83.9376 195.784 83.8931 195.792 83.8487 195.792ZM0.950903 146.779L83.8487 195.25L166.818 146.646L166.889 49.5791L83.9998 1.09908L1.0309 49.7035L0.950903 146.779Z" fill="url(#paint32_linear_545_4396)"/>
</g>
<defs>
<linearGradient id="paint0_linear_545_4396" x1="70.6089" y1="98.1735" x2="97.2416" y2="98.1735" gradientUnits="userSpaceOnUse">
<stop stop-color="#83A4D4"/>
<stop offset="0.9543" stop-color="#B4F7FD"/>
<stop offset="0.9994" stop-color="#B6FBFF"/>
</linearGradient>
<linearGradient id="paint1_linear_545_4396" x1="69.6015" y1="98.1734" x2="98.2235" y2="98.1734" gradientUnits="userSpaceOnUse">
<stop stop-color="#83A4D4"/>
<stop offset="0.9543" stop-color="#B4F7FD"/>
<stop offset="0.9994" stop-color="#B6FBFF"/>
</linearGradient>
<linearGradient id="paint2_linear_545_4396" x1="68.6564" y1="98.1729" x2="99.1878" y2="98.1729" gradientUnits="userSpaceOnUse">
<stop stop-color="#83A4D4"/>
<stop offset="0.9543" stop-color="#B4F7FD"/>
<stop offset="0.9994" stop-color="#B6FBFF"/>
</linearGradient>
<linearGradient id="paint3_linear_545_4396" x1="67.7633" y1="98.1736" x2="100.09" y2="98.1736" gradientUnits="userSpaceOnUse">
<stop stop-color="#83A4D4"/>
<stop offset="0.9543" stop-color="#B4F7FD"/>
<stop offset="0.9994" stop-color="#B6FBFF"/>
</linearGradient>
<linearGradient id="paint4_linear_545_4396" x1="66.9252" y1="98.1733" x2="100.896" y2="98.1733" gradientUnits="userSpaceOnUse">
<stop stop-color="#83A4D4"/>
<stop offset="0.9543" stop-color="#B4F7FD"/>
<stop offset="0.9994" stop-color="#B6FBFF"/>
</linearGradient>
<linearGradient id="paint5_linear_545_4396" x1="66.2046" y1="98.1738" x2="101.63" y2="98.1738" gradientUnits="userSpaceOnUse">
<stop stop-color="#83A4D4"/>
<stop offset="0.9543" stop-color="#B4F7FD"/>
<stop offset="0.9994" stop-color="#B6FBFF"/>
</linearGradient>
<linearGradient id="paint6_linear_545_4396" x1="65.5927" y1="98.1739" x2="102.238" y2="98.1739" gradientUnits="userSpaceOnUse">
<stop stop-color="#83A4D4"/>
<stop offset="0.9543" stop-color="#B4F7FD"/>
<stop offset="0.9994" stop-color="#B6FBFF"/>
</linearGradient>
<linearGradient id="paint7_linear_545_4396" x1="65.1211" y1="98.1735" x2="102.707" y2="98.1735" gradientUnits="userSpaceOnUse">
<stop stop-color="#83A4D4"/>
<stop offset="0.9543" stop-color="#B4F7FD"/>
<stop offset="0.9994" stop-color="#B6FBFF"/>
</linearGradient>
<linearGradient id="paint8_linear_545_4396" x1="64.8275" y1="98.1732" x2="103.027" y2="98.1732" gradientUnits="userSpaceOnUse">
<stop stop-color="#83A4D4"/>
<stop offset="0.9543" stop-color="#B4F7FD"/>
<stop offset="0.9994" stop-color="#B6FBFF"/>
</linearGradient>
<linearGradient id="paint9_linear_545_4396" x1="62.7036" y1="98.1732" x2="105.134" y2="98.1732" gradientUnits="userSpaceOnUse">
<stop stop-color="#83A4D4"/>
<stop offset="0.9543" stop-color="#B4F7FD"/>
<stop offset="0.9994" stop-color="#B6FBFF"/>
</linearGradient>
<linearGradient id="paint10_linear_545_4396" x1="60.55" y1="98.1739" x2="107.297" y2="98.1739" gradientUnits="userSpaceOnUse">
<stop stop-color="#83A4D4"/>
<stop offset="0.9543" stop-color="#B4F7FD"/>
<stop offset="0.9994" stop-color="#B6FBFF"/>
</linearGradient>
<linearGradient id="paint11_linear_545_4396" x1="58.3927" y1="98.1743" x2="109.461" y2="98.1743" gradientUnits="userSpaceOnUse">
<stop stop-color="#83A4D4"/>
<stop offset="0.9543" stop-color="#B4F7FD"/>
<stop offset="0.9994" stop-color="#B6FBFF"/>
</linearGradient>
<linearGradient id="paint12_linear_545_4396" x1="56.2339" y1="98.1746" x2="111.578" y2="98.1746" gradientUnits="userSpaceOnUse">
<stop stop-color="#83A4D4"/>
<stop offset="0.9543" stop-color="#B4F7FD"/>
<stop offset="0.9994" stop-color="#B6FBFF"/>
</linearGradient>
<linearGradient id="paint13_linear_545_4396" x1="54.1576" y1="98.1734" x2="113.672" y2="98.1734" gradientUnits="userSpaceOnUse">
<stop stop-color="#83A4D4"/>
<stop offset="0.9543" stop-color="#B4F7FD"/>
<stop offset="0.9994" stop-color="#B6FBFF"/>
</linearGradient>
<linearGradient id="paint14_linear_545_4396" x1="52.1611" y1="98.1742" x2="115.679" y2="98.1742" gradientUnits="userSpaceOnUse">
<stop stop-color="#83A4D4"/>
<stop offset="0.9543" stop-color="#B4F7FD"/>
<stop offset="0.9994" stop-color="#B6FBFF"/>
</linearGradient>
<linearGradient id="paint15_linear_545_4396" x1="50.2777" y1="98.1741" x2="117.558" y2="98.1741" gradientUnits="userSpaceOnUse">
<stop stop-color="#83A4D4"/>
<stop offset="0.9543" stop-color="#B4F7FD"/>
<stop offset="0.9994" stop-color="#B6FBFF"/>
</linearGradient>
<linearGradient id="paint16_linear_545_4396" x1="48.5529" y1="98.1734" x2="119.279" y2="98.1734" gradientUnits="userSpaceOnUse">
<stop stop-color="#83A4D4"/>
<stop offset="0.9543" stop-color="#B4F7FD"/>
<stop offset="0.9994" stop-color="#B6FBFF"/>
</linearGradient>
<linearGradient id="paint17_linear_545_4396" x1="47.0331" y1="98.1729" x2="120.804" y2="98.1729" gradientUnits="userSpaceOnUse">
<stop stop-color="#83A4D4"/>
<stop offset="0.9543" stop-color="#B4F7FD"/>
<stop offset="0.9994" stop-color="#B6FBFF"/>
</linearGradient>
<linearGradient id="paint18_linear_545_4396" x1="45.7647" y1="98.1735" x2="122.089" y2="98.1735" gradientUnits="userSpaceOnUse">
<stop stop-color="#83A4D4"/>
<stop offset="0.9543" stop-color="#B4F7FD"/>
<stop offset="0.9994" stop-color="#B6FBFF"/>
</linearGradient>
<linearGradient id="paint19_linear_545_4396" x1="44.764" y1="98.1734" x2="123.057" y2="98.1734" gradientUnits="userSpaceOnUse">
<stop stop-color="#83A4D4"/>
<stop offset="0.9543" stop-color="#B4F7FD"/>
<stop offset="0.9994" stop-color="#B6FBFF"/>
</linearGradient>
<linearGradient id="paint20_linear_545_4396" x1="44.1376" y1="98.1743" x2="123.711" y2="98.1743" gradientUnits="userSpaceOnUse">
<stop stop-color="#83A4D4"/>
<stop offset="0.9543" stop-color="#B4F7FD"/>
<stop offset="0.9994" stop-color="#B6FBFF"/>
</linearGradient>
<linearGradient id="paint21_linear_545_4396" x1="39.6504" y1="98.1736" x2="128.192" y2="98.1736" gradientUnits="userSpaceOnUse">
<stop stop-color="#83A4D4"/>
<stop offset="0.9543" stop-color="#B4F7FD"/>
<stop offset="0.9994" stop-color="#B6FBFF"/>
</linearGradient>
<linearGradient id="paint22_linear_545_4396" x1="35.1076" y1="98.174" x2="132.726" y2="98.174" gradientUnits="userSpaceOnUse">
<stop stop-color="#83A4D4"/>
<stop offset="0.9543" stop-color="#B4F7FD"/>
<stop offset="0.9994" stop-color="#B6FBFF"/>
</linearGradient>
<linearGradient id="paint23_linear_545_4396" x1="30.5505" y1="98.1739" x2="137.26" y2="98.1739" gradientUnits="userSpaceOnUse">
<stop stop-color="#83A4D4"/>
<stop offset="0.9543" stop-color="#B4F7FD"/>
<stop offset="0.9994" stop-color="#B6FBFF"/>
</linearGradient>
<linearGradient id="paint24_linear_545_4396" x1="26.0745" y1="98.1736" x2="141.78" y2="98.1736" gradientUnits="userSpaceOnUse">
<stop stop-color="#83A4D4"/>
<stop offset="0.9543" stop-color="#B4F7FD"/>
<stop offset="0.9994" stop-color="#B6FBFF"/>
</linearGradient>
<linearGradient id="paint25_linear_545_4396" x1="21.668" y1="98.1739" x2="146.153" y2="98.1739" gradientUnits="userSpaceOnUse">
<stop stop-color="#83A4D4"/>
<stop offset="0.9543" stop-color="#B4F7FD"/>
<stop offset="0.9994" stop-color="#B6FBFF"/>
</linearGradient>
<linearGradient id="paint26_linear_545_4396" x1="17.4609" y1="98.1733" x2="150.373" y2="98.1733" gradientUnits="userSpaceOnUse">
<stop stop-color="#83A4D4"/>
<stop offset="0.9543" stop-color="#B4F7FD"/>
<stop offset="0.9994" stop-color="#B6FBFF"/>
</linearGradient>
<linearGradient id="paint27_linear_545_4396" x1="13.5003" y1="98.1735" x2="154.337" y2="98.1735" gradientUnits="userSpaceOnUse">
<stop stop-color="#83A4D4"/>
<stop offset="0.9543" stop-color="#B4F7FD"/>
<stop offset="0.9994" stop-color="#B6FBFF"/>
</linearGradient>
<linearGradient id="paint28_linear_545_4396" x1="9.85693" y1="98.1741" x2="157.955" y2="98.1741" gradientUnits="userSpaceOnUse">
<stop stop-color="#83A4D4"/>
<stop offset="0.9543" stop-color="#B4F7FD"/>
<stop offset="0.9994" stop-color="#B6FBFF"/>
</linearGradient>
<linearGradient id="paint29_linear_545_4396" x1="6.65695" y1="98.1734" x2="161.177" y2="98.1734" gradientUnits="userSpaceOnUse">
<stop stop-color="#83A4D4"/>
<stop offset="0.9543" stop-color="#B4F7FD"/>
<stop offset="0.9994" stop-color="#B6FBFF"/>
</linearGradient>
<linearGradient id="paint30_linear_545_4396" x1="3.95374" y1="98.1736" x2="163.867" y2="98.1736" gradientUnits="userSpaceOnUse">
<stop stop-color="#83A4D4"/>
<stop offset="0.9543" stop-color="#B4F7FD"/>
<stop offset="0.9994" stop-color="#B6FBFF"/>
</linearGradient>
<linearGradient id="paint31_linear_545_4396" x1="1.8795" y1="98.1733" x2="165.955" y2="98.1733" gradientUnits="userSpaceOnUse">
<stop stop-color="#83A4D4"/>
<stop offset="0.9543" stop-color="#B4F7FD"/>
<stop offset="0.9994" stop-color="#B6FBFF"/>
</linearGradient>
<linearGradient id="paint32_linear_545_4396" x1="0.453125" y1="98.1742" x2="167.398" y2="98.1742" gradientUnits="userSpaceOnUse">
<stop stop-color="#83A4D4"/>
<stop offset="0.9543" stop-color="#B4F7FD"/>
<stop offset="0.9994" stop-color="#B6FBFF"/>
</linearGradient>
<clipPath id="clip0_545_4396">
<rect width="166.942" height="195.236" fill="white" transform="translate(0.445312 0.555664)"/>
</clipPath>
</defs>
</svg>
