<svg width="192" height="167" viewBox="0 0 192 167" fill="none" xmlns="http://www.w3.org/2000/svg">
<g clip-path="url(#clip0_545_2758)">
<path d="M103.076 122.427H88.6406L95.5028 45.1382H96.214L103.076 122.427ZM89.4229 121.707H102.294L95.8584 49.2004L89.4229 121.707Z" fill="url(#paint0_linear_545_2758)"/>
<path d="M103.837 123.618H87.8906L95.5084 43.9556H96.2195L103.837 123.618ZM88.6728 122.907H103.055L95.864 47.7333L88.6728 122.907Z" fill="url(#paint1_linear_545_2758)"/>
<path d="M104.667 124.845H87.0312L95.849 39.2891L104.667 124.845ZM87.8224 124.133H103.885L95.8579 46.2402L87.8224 124.133Z" fill="url(#paint2_linear_545_2758)"/>
<path d="M105.614 126.107H86.0938L95.8538 38.2671L105.614 126.107ZM86.8938 125.396H104.823L95.8626 44.7293L86.8938 125.396Z" fill="url(#paint3_linear_545_2758)"/>
<path d="M106.656 127.413H85.0469L95.8469 37.1997L106.656 127.413ZM85.8469 126.702H105.847L95.8469 43.1997L85.8469 126.702Z" fill="url(#paint4_linear_545_2758)"/>
<path d="M107.82 128.765H83.8906L95.8551 36.0806L107.82 128.765ZM84.6995 128.054H107.002L95.8462 41.6539L84.6995 128.054Z" fill="url(#paint5_linear_545_2758)"/>
<path d="M109.116 130.151H82.6094L95.8627 34.8892L109.116 130.151ZM83.4272 129.44H108.289L95.8627 40.0625L83.4272 129.44Z" fill="url(#paint6_linear_545_2758)"/>
<path d="M110.541 131.583H81.1719L95.8563 33.645L110.541 131.583ZM81.9985 130.872H109.714L95.8563 38.4628L81.9985 130.872Z" fill="url(#paint7_linear_545_2758)"/>
<path d="M112.129 133.058H79.5781L95.8537 32.356L112.129 133.058ZM80.4137 132.347H111.285L95.8537 36.8182L80.4137 132.347Z" fill="url(#paint8_linear_545_2758)"/>
<path d="M113.901 134.578H77.8125L95.8569 30.9961L113.901 134.578ZM78.6658 133.867H113.048L95.8569 35.1472L78.6658 133.867Z" fill="url(#paint9_linear_545_2758)"/>
<path d="M115.868 136.143H75.8594L95.8594 29.5737L115.868 136.143ZM76.7127 135.432H115.006L95.8594 33.4404L76.7127 135.432Z" fill="url(#paint10_linear_545_2758)"/>
<path d="M118.045 137.76H73.6719L95.8585 28.1069L118.045 137.76ZM74.543 137.049H117.174L95.8585 31.698L74.543 137.049Z" fill="url(#paint11_linear_545_2758)"/>
<path d="M120.468 139.422H71.25L95.8544 26.5688L120.468 139.422ZM72.13 138.711H119.579L95.8544 29.9111L72.13 138.711Z" fill="url(#paint12_linear_545_2758)"/>
<path d="M123.142 141.147H68.5469L95.8447 24.978L123.142 141.147ZM69.4446 140.427H122.245L95.8447 28.0891L69.4446 140.427Z" fill="url(#paint13_linear_545_2758)"/>
<path d="M126.149 142.916H65.5625L95.8558 23.3164L126.149 142.916ZM66.4781 142.205H125.234L95.8558 26.2231L66.4781 142.205Z" fill="url(#paint14_linear_545_2758)"/>
<path d="M129.47 144.738H62.2344L95.8522 21.6001L129.47 144.738ZM63.1677 144.027H128.537L95.8522 24.3023L63.1677 144.027Z" fill="url(#paint15_linear_545_2758)"/>
<path d="M133.16 146.623H58.5469L95.8535 19.814L133.16 146.623ZM59.498 145.912H132.209L95.8535 22.3473L59.498 145.912Z" fill="url(#paint16_linear_545_2758)"/>
<path d="M137.28 148.561H54.4531L95.8665 17.9653L137.28 148.561ZM55.4309 147.85H136.311L95.8665 20.3298L55.4309 147.85Z" fill="url(#paint17_linear_545_2758)"/>
<path d="M141.837 150.56H49.8906L95.864 16.0532L141.837 150.56ZM50.8951 149.849H140.842L95.864 18.2577L50.8951 149.849Z" fill="url(#paint18_linear_545_2758)"/>
<path d="M146.893 152.622H44.8125L95.8525 14.0713L146.893 152.622ZM45.8436 151.911H145.87L95.8525 16.1335L45.8436 151.911Z" fill="url(#paint19_linear_545_2758)"/>
<path d="M152.521 154.746H39.1875L39.3831 154.258L95.8542 12.0176L152.521 154.746ZM40.2364 154.035H151.463L95.8542 13.9554L40.2364 154.035Z" fill="url(#paint20_linear_545_2758)"/>
<path d="M158.769 156.942H32.9375L95.8531 9.90234L158.769 156.942ZM34.0131 156.231H157.684L95.8531 11.7068L34.0131 156.231Z" fill="url(#paint21_linear_545_2758)"/>
<path d="M165.718 159.201H25.9844L95.851 7.70752L165.718 159.201ZM27.1044 158.49H164.607L95.851 9.4053L27.1044 158.49Z" fill="url(#paint22_linear_545_2758)"/>
<path d="M173.43 161.53H18.2656L95.8478 5.43213L173.43 161.53ZM19.4123 160.819H172.275L95.839 7.04102L19.4123 160.819Z" fill="url(#paint23_linear_545_2758)"/>
<path d="M182.023 163.93H9.70312L95.8631 3.09424L182.023 163.93ZM10.8942 163.219H180.832L95.8631 4.59646L10.8942 163.219Z" fill="url(#paint24_linear_545_2758)"/>
<path d="M191.55 166.41H0.171875L95.8608 0.66748L191.55 166.41ZM1.40743 165.69H190.314L95.8608 2.0897L1.40743 165.69Z" fill="url(#paint25_linear_545_2758)"/>
</g>
<defs>
<linearGradient id="paint0_linear_545_2758" x1="88.644" y1="83.7822" x2="103.074" y2="83.7822" gradientUnits="userSpaceOnUse">
<stop stop-color="#83A4D4"/>
<stop offset="0.9543" stop-color="#B4F7FD"/>
<stop offset="0.9994" stop-color="#B6FBFF"/>
</linearGradient>
<linearGradient id="paint1_linear_545_2758" x1="87.8884" y1="83.7831" x2="103.84" y2="83.7831" gradientUnits="userSpaceOnUse">
<stop stop-color="#83A4D4"/>
<stop offset="0.9543" stop-color="#B4F7FD"/>
<stop offset="0.9994" stop-color="#B6FBFF"/>
</linearGradient>
<linearGradient id="paint2_linear_545_2758" x1="87.028" y1="82.0644" x2="104.671" y2="82.0644" gradientUnits="userSpaceOnUse">
<stop stop-color="#83A4D4"/>
<stop offset="0.9543" stop-color="#B4F7FD"/>
<stop offset="0.9994" stop-color="#B6FBFF"/>
</linearGradient>
<linearGradient id="paint3_linear_545_2758" x1="86.0935" y1="82.1916" x2="105.615" y2="82.1916" gradientUnits="userSpaceOnUse">
<stop stop-color="#83A4D4"/>
<stop offset="0.9543" stop-color="#B4F7FD"/>
<stop offset="0.9994" stop-color="#B6FBFF"/>
</linearGradient>
<linearGradient id="paint4_linear_545_2758" x1="85.0429" y1="82.3088" x2="106.652" y2="82.3088" gradientUnits="userSpaceOnUse">
<stop stop-color="#83A4D4"/>
<stop offset="0.9543" stop-color="#B4F7FD"/>
<stop offset="0.9994" stop-color="#B6FBFF"/>
</linearGradient>
<linearGradient id="paint5_linear_545_2758" x1="83.8914" y1="82.4191" x2="107.819" y2="82.4191" gradientUnits="userSpaceOnUse">
<stop stop-color="#83A4D4"/>
<stop offset="0.9543" stop-color="#B4F7FD"/>
<stop offset="0.9994" stop-color="#B6FBFF"/>
</linearGradient>
<linearGradient id="paint6_linear_545_2758" x1="82.6109" y1="82.5206" x2="109.116" y2="82.5206" gradientUnits="userSpaceOnUse">
<stop stop-color="#83A4D4"/>
<stop offset="0.9543" stop-color="#B4F7FD"/>
<stop offset="0.9994" stop-color="#B6FBFF"/>
</linearGradient>
<linearGradient id="paint7_linear_545_2758" x1="81.1731" y1="82.6155" x2="110.54" y2="82.6155" gradientUnits="userSpaceOnUse">
<stop stop-color="#83A4D4"/>
<stop offset="0.9543" stop-color="#B4F7FD"/>
<stop offset="0.9994" stop-color="#B6FBFF"/>
</linearGradient>
<linearGradient id="paint8_linear_545_2758" x1="79.5801" y1="82.7033" x2="112.128" y2="82.7033" gradientUnits="userSpaceOnUse">
<stop stop-color="#83A4D4"/>
<stop offset="0.9543" stop-color="#B4F7FD"/>
<stop offset="0.9994" stop-color="#B6FBFF"/>
</linearGradient>
<linearGradient id="paint9_linear_545_2758" x1="77.8162" y1="82.7853" x2="113.898" y2="82.7853" gradientUnits="userSpaceOnUse">
<stop stop-color="#83A4D4"/>
<stop offset="0.9543" stop-color="#B4F7FD"/>
<stop offset="0.9994" stop-color="#B6FBFF"/>
</linearGradient>
<linearGradient id="paint10_linear_545_2758" x1="75.8556" y1="82.8613" x2="115.864" y2="82.8613" gradientUnits="userSpaceOnUse">
<stop stop-color="#83A4D4"/>
<stop offset="0.9543" stop-color="#B4F7FD"/>
<stop offset="0.9994" stop-color="#B6FBFF"/>
</linearGradient>
<linearGradient id="paint11_linear_545_2758" x1="73.6736" y1="82.9319" x2="118.044" y2="82.9319" gradientUnits="userSpaceOnUse">
<stop stop-color="#83A4D4"/>
<stop offset="0.9543" stop-color="#B4F7FD"/>
<stop offset="0.9994" stop-color="#B6FBFF"/>
</linearGradient>
<linearGradient id="paint12_linear_545_2758" x1="71.2461" y1="82.9975" x2="120.464" y2="82.9975" gradientUnits="userSpaceOnUse">
<stop stop-color="#83A4D4"/>
<stop offset="0.9543" stop-color="#B4F7FD"/>
<stop offset="0.9994" stop-color="#B6FBFF"/>
</linearGradient>
<linearGradient id="paint13_linear_545_2758" x1="68.5439" y1="83.059" x2="123.146" y2="83.059" gradientUnits="userSpaceOnUse">
<stop stop-color="#83A4D4"/>
<stop offset="0.9543" stop-color="#B4F7FD"/>
<stop offset="0.9994" stop-color="#B6FBFF"/>
</linearGradient>
<linearGradient id="paint14_linear_545_2758" x1="65.5634" y1="83.1166" x2="126.149" y2="83.1166" gradientUnits="userSpaceOnUse">
<stop stop-color="#83A4D4"/>
<stop offset="0.9543" stop-color="#B4F7FD"/>
<stop offset="0.9994" stop-color="#B6FBFF"/>
</linearGradient>
<linearGradient id="paint15_linear_545_2758" x1="62.2361" y1="83.1689" x2="129.469" y2="83.1689" gradientUnits="userSpaceOnUse">
<stop stop-color="#83A4D4"/>
<stop offset="0.9543" stop-color="#B4F7FD"/>
<stop offset="0.9994" stop-color="#B6FBFF"/>
</linearGradient>
<linearGradient id="paint16_linear_545_2758" x1="58.5447" y1="83.2188" x2="133.163" y2="83.2188" gradientUnits="userSpaceOnUse">
<stop stop-color="#83A4D4"/>
<stop offset="0.9543" stop-color="#B4F7FD"/>
<stop offset="0.9994" stop-color="#B6FBFF"/>
</linearGradient>
<linearGradient id="paint17_linear_545_2758" x1="54.4545" y1="83.2652" x2="137.279" y2="83.2652" gradientUnits="userSpaceOnUse">
<stop stop-color="#83A4D4"/>
<stop offset="0.9543" stop-color="#B4F7FD"/>
<stop offset="0.9994" stop-color="#B6FBFF"/>
</linearGradient>
<linearGradient id="paint18_linear_545_2758" x1="49.8933" y1="83.307" x2="141.836" y2="83.307" gradientUnits="userSpaceOnUse">
<stop stop-color="#83A4D4"/>
<stop offset="0.9543" stop-color="#B4F7FD"/>
<stop offset="0.9994" stop-color="#B6FBFF"/>
</linearGradient>
<linearGradient id="paint19_linear_545_2758" x1="44.8164" y1="83.3472" x2="146.889" y2="83.3472" gradientUnits="userSpaceOnUse">
<stop stop-color="#83A4D4"/>
<stop offset="0.9543" stop-color="#B4F7FD"/>
<stop offset="0.9994" stop-color="#B6FBFF"/>
</linearGradient>
<linearGradient id="paint20_linear_545_2758" x1="39.1906" y1="83.3842" x2="152.519" y2="83.3842" gradientUnits="userSpaceOnUse">
<stop stop-color="#83A4D4"/>
<stop offset="0.9543" stop-color="#B4F7FD"/>
<stop offset="0.9994" stop-color="#B6FBFF"/>
</linearGradient>
<linearGradient id="paint21_linear_545_2758" x1="32.9364" y1="83.4191" x2="158.77" y2="83.4191" gradientUnits="userSpaceOnUse">
<stop stop-color="#83A4D4"/>
<stop offset="0.9543" stop-color="#B4F7FD"/>
<stop offset="0.9994" stop-color="#B6FBFF"/>
</linearGradient>
<linearGradient id="paint22_linear_545_2758" x1="25.987" y1="83.4522" x2="165.716" y2="83.4522" gradientUnits="userSpaceOnUse">
<stop stop-color="#83A4D4"/>
<stop offset="0.9543" stop-color="#B4F7FD"/>
<stop offset="0.9994" stop-color="#B6FBFF"/>
</linearGradient>
<linearGradient id="paint23_linear_545_2758" x1="18.2647" y1="83.4826" x2="173.432" y2="83.4826" gradientUnits="userSpaceOnUse">
<stop stop-color="#83A4D4"/>
<stop offset="0.9543" stop-color="#B4F7FD"/>
<stop offset="0.9994" stop-color="#B6FBFF"/>
</linearGradient>
<linearGradient id="paint24_linear_545_2758" x1="9.70357" y1="83.5106" x2="182.023" y2="83.5106" gradientUnits="userSpaceOnUse">
<stop stop-color="#83A4D4"/>
<stop offset="0.9543" stop-color="#B4F7FD"/>
<stop offset="0.9994" stop-color="#B6FBFF"/>
</linearGradient>
<linearGradient id="paint25_linear_545_2758" x1="0.171875" y1="83.5369" x2="191.55" y2="83.5369" gradientUnits="userSpaceOnUse">
<stop stop-color="#83A4D4"/>
<stop offset="0.9543" stop-color="#B4F7FD"/>
<stop offset="0.9994" stop-color="#B6FBFF"/>
</linearGradient>
<clipPath id="clip0_545_2758">
<rect width="191.378" height="165.742" fill="white" transform="translate(0.164062 0.666992)"/>
</clipPath>
</defs>
</svg>
