<svg width="38" height="37" viewBox="0 0 38 37" fill="none" xmlns="http://www.w3.org/2000/svg">
<path d="M33.9019 9.27055C32.8132 9.74019 31.6284 10.0782 30.408 10.2098C31.675 9.45711 32.6238 8.26795 33.0764 6.86544C31.8875 7.5727 30.585 8.06865 29.2268 8.33128C28.6591 7.7244 27.9726 7.24093 27.2099 6.911C26.4472 6.58108 25.6247 6.41175 24.7937 6.41359C21.4315 6.41359 18.7276 9.13891 18.7276 12.4833C18.7276 12.9529 18.7845 13.4226 18.877 13.8744C13.8426 13.6111 9.3526 11.206 6.36755 7.52364C5.82364 8.45266 5.53862 9.51045 5.54213 10.587C5.54213 12.6932 6.61304 14.5504 8.2461 15.6427C7.28372 15.6048 6.34387 15.3403 5.50299 14.8706V14.9453C5.50299 17.8948 7.5879 20.3391 10.3666 20.9012C9.84486 21.0367 9.30815 21.1061 8.76911 21.1076C8.37419 21.1076 8.00061 21.0684 7.62348 21.0151C8.39198 23.4202 10.6299 25.1671 13.2947 25.224C11.2098 26.8571 8.59833 27.8177 5.76271 27.8177C5.25394 27.8177 4.7843 27.7999 4.29688 27.743C6.98662 29.4685 10.178 30.4648 13.6149 30.4648C24.7724 30.4648 30.8777 21.2214 30.8777 13.1984C30.8777 12.9352 30.8777 12.6719 30.8599 12.4086C32.0411 11.544 33.0764 10.4731 33.9019 9.27055Z" fill="white"/>
</svg>
